<svg width="394" height="430" viewBox="0 0 394 430" fill="none" xmlns="http://www.w3.org/2000/svg">
<g clip-path="url(#clip0_3071_9670)">
<rect width="394" height="430" fill="#1C1C1C"/>
<g opacity="0.5">
<path d="M1144.11 49.5988C1156.18 89.2303 1124.14 131.732 1084.85 144.86C1045.55 158.007 1002.45 149.115 962.803 136.981C923.152 124.864 883.478 109.44 842.038 109.676C756.27 110.183 686.558 175.883 628.377 238.794C570.196 301.706 505.875 370.475 420.685 380.462C353.893 388.281 289.17 357.64 222.733 347.159C106.76 328.854 -17.3882 377.304 -90.147 469.311M1143.35 38.445C1155.45 78.0227 1123.76 120.536 1084.7 134.053C1081.21 135.27 1077.68 136.286 1074.13 137.174C1037.94 146.05 999.024 138.177 962.913 127.572C955.94 125.526 948.965 123.378 941.989 121.23C909.239 111.132 876.246 101.026 842.136 101.403C831.083 101.517 820.28 102.721 809.744 104.859C738.653 119.237 679.522 176.217 629.339 231.329C625.697 235.34 622.03 239.363 618.338 243.396C563.683 303.109 503.29 363.615 424.942 375.782C402.533 379.258 380.156 379.059 357.444 375.683C330.63 371.707 303.913 363.491 277.607 355.712C259.645 350.403 241.775 345.291 223.675 341.682C215.166 339.986 206.585 338.65 197.944 337.7C142.931 331.621 85.7722 341.348 34.5277 363.828C-16.8397 386.365 -62.4014 421.453 -96.7811 465.741M1142.6 27.291C1154.73 66.8394 1123.41 109.346 1084.57 123.251C1081.09 124.493 1077.58 125.558 1074.04 126.471C1038.03 135.698 999.161 128.31 963.005 118.156C956.024 116.189 949.058 114.126 942.074 112.056C909.305 102.338 876.279 92.5457 842.223 93.106C831.186 93.2868 820.394 94.5153 809.863 96.6954C738.812 111.353 679.956 168.415 630.272 223.833C626.666 227.857 623.028 231.911 619.39 235.964C565.366 296.012 506.037 356.177 429.14 371.039C406.674 375.39 384.092 376.684 360.731 373.74C333.12 370.264 305.587 361.279 278.979 352.492C260.822 346.5 242.868 340.562 224.605 336.181C216.005 334.125 207.35 332.436 198.562 331.167C142.645 323.063 83.2533 332.597 30.6058 356.006C-22.1579 379.453 -68.4353 416.313 -103.404 462.196M1141.86 16.1435C1154.01 55.6382 1123.07 98.1638 1084.45 112.432C1081 113.705 1077.51 114.819 1073.98 115.757C1038.12 125.345 999.315 118.449 963.122 108.729C956.15 106.847 949.151 104.873 942.176 102.888C909.389 93.5509 876.347 84.0783 842.328 84.815C831.313 85.0449 820.544 86.3226 810.024 88.5272C739.037 103.453 680.44 160.589 631.248 216.332C627.67 220.387 624.086 224.461 620.484 228.528C567.084 288.928 508.782 348.8 433.392 366.316C410.843 371.553 388.088 374.311 364.06 371.792C335.646 368.835 307.303 359.061 280.401 349.249C262.029 342.567 244.017 335.793 225.584 330.657C216.917 328.23 208.147 326.193 199.229 324.611C142.408 314.483 80.7902 323.806 26.7397 348.142C-27.427 372.517 -74.4134 411.132 -109.989 458.604M1141.11 4.9717C1153.28 44.4306 1122.71 86.9499 1084.32 101.613C1080.88 102.928 1077.43 104.056 1073.92 105.042C1038.23 114.999 999.477 108.57 963.245 99.2839C956.258 97.4981 949.275 95.5914 942.274 93.6782C909.469 84.7211 876.386 75.5799 842.41 76.4752C831.412 76.7721 820.654 78.0743 810.156 80.328C739.216 95.5151 680.906 152.758 632.176 208.793C628.634 212.862 625.08 216.966 621.525 221.071C568.756 281.806 511.45 341.517 437.597 361.555C414.977 367.703 392.013 371.911 367.342 369.806C338.107 367.361 308.972 356.806 281.769 345.987C263.208 338.603 245.106 331.023 226.492 325.106C217.751 322.327 208.865 319.941 199.806 318.022C142.088 305.852 78.2306 315 22.7838 340.246C-32.7792 365.531 -80.4813 405.918 -116.664 454.978M1140.36 -6.1823C1152.56 33.2294 1122.35 75.7785 1084.19 90.8116C1080.78 92.1581 1077.33 93.328 1073.84 94.3394C1038.32 104.664 999.613 98.7018 963.337 89.8682C956.342 88.1607 949.35 86.3324 942.358 84.5041C909.535 75.9273 876.418 67.0992 842.497 68.1776C831.521 68.5237 820.786 69.875 810.275 72.1645C739.374 87.631 681.346 144.937 633.109 201.297C629.597 205.397 626.102 209.503 622.577 213.639C570.439 274.709 514.116 334.355 441.807 356.837C419.073 363.9 395.967 369.542 370.64 367.888C340.609 365.943 310.657 354.617 283.135 342.785C264.359 334.711 246.175 326.306 227.416 319.623C218.584 316.483 209.624 313.745 200.418 311.507C141.795 297.313 75.7118 306.249 18.862 332.423C-38.086 358.643 -86.5151 400.777 -123.305 451.426M1139.6 -17.3362C1151.82 22.0397 1121.99 64.5891 1084.04 80.0037C1080.66 81.3813 1077.21 82.5937 1073.75 83.6363C1038.39 94.3044 999.743 88.8521 963.454 80.4412C956.45 78.812 949.461 77.0865 942.46 75.3365C909.626 67.1221 876.486 58.6318 842.602 59.8867C831.642 60.2998 820.912 61.6936 810.43 64.0143C739.576 79.7423 681.817 137.148 634.078 193.814C630.601 197.927 627.136 202.065 623.665 206.22C572.157 267.625 516.784 327.296 446.059 352.114C423.223 360.117 399.956 367.186 373.969 365.94C343.135 364.513 312.373 352.4 284.557 339.542C265.585 330.785 247.318 321.555 228.395 314.099C219.496 310.589 210.42 307.502 201.067 304.944C141.54 288.726 73.224 297.469 14.9779 324.554C-43.3665 351.683 -92.5112 395.59 -129.908 447.827M1138.87 -28.4836C1151.12 10.8451 1121.64 53.3997 1083.94 69.1912C1080.57 70.5933 1077.15 71.8369 1073.69 72.922C1038.5 83.9583 999.904 78.9731 963.57 71.0142C956.576 69.4699 949.56 67.8161 942.569 66.151C909.699 58.3102 876.536 50.1578 842.713 51.578C831.776 52.0401 821.051 53.4763 810.592 55.8461C739.783 71.8356 682.3 129.323 635.053 186.313C631.624 190.464 628.195 194.615 624.759 198.784C573.883 260.523 519.479 320.328 450.311 347.391C427.359 356.369 403.952 364.813 377.292 364.01C345.655 363.101 314.082 350.2 285.965 336.335C266.779 326.888 248.447 316.839 229.344 308.604C220.353 304.734 211.203 301.294 201.703 298.418C141.279 280.157 70.7297 288.707 11.0806 316.72C-48.6668 344.777 -98.5204 390.438 -136.506 444.27M1138.12 -39.6554C1150.39 -0.380443 1121.29 42.1924 1083.8 58.3653C1080.45 59.8166 1077.04 61.0847 1073.61 62.2009C1038.57 73.5989 1000.06 69.1121 963.669 61.5806C956.659 60.1325 949.653 58.5637 942.654 56.9769C909.765 49.5165 876.568 41.6772 842.8 43.2805C831.868 43.7851 821.183 45.2771 810.717 47.6648C739.966 63.9402 682.741 121.502 635.993 178.798C632.6 182.963 629.2 187.145 625.811 191.352C575.583 253.432 522.13 313.425 454.527 342.655C431.453 352.627 407.888 362.438 380.603 362.056C348.17 361.647 315.78 347.976 287.362 333.104C267.98 322.973 249.572 312.082 230.305 303.073C221.241 298.85 211.982 295.045 202.353 291.855C141.024 271.571 68.26 279.934 7.19657 308.85C-53.9471 337.817 -104.523 385.269 -143.109 440.671M1137.37 -50.8094C1149.67 -11.5637 1120.92 30.9964 1083.67 47.5641C1080.33 49.0399 1076.95 50.3571 1073.54 51.5045C1038.68 63.2528 1000.21 59.251 963.786 52.1536C956.767 50.7838 949.753 49.2933 942.745 47.7849C909.838 40.7047 876.625 33.1853 842.894 34.9651C831.978 35.5367 821.304 37.0532 810.861 39.49C740.156 56.0269 683.207 113.67 636.932 171.284C633.575 175.462 630.222 179.682 626.87 183.902C577.273 246.317 524.79 306.608 458.75 337.901C435.565 348.891 411.849 360.051 383.897 360.095C350.66 360.204 317.454 345.763 288.724 329.859C269.134 319.02 250.654 307.329 231.206 297.541C222.075 292.947 212.7 288.793 202.924 285.284C140.697 262.958 65.7004 271.128 3.23404 300.971C-59.306 330.849 -110.615 380.066 -149.79 437.063M1136.61 -61.9634C1148.93 -22.7714 1120.56 19.825 1083.54 36.7448C1080.23 38.2518 1076.88 39.6003 1073.47 40.7835C1038.75 52.8934 1000.35 49.3833 963.884 42.7199C956.875 41.4351 949.852 40.0229 942.836 38.5928C909.918 31.8749 876.657 24.7047 842.987 26.6497C832.094 27.2704 821.443 28.836 811.005 31.3153C740.346 48.1136 683.672 105.838 637.89 163.777C634.562 167.985 631.245 172.219 627.946 176.458C578.98 239.209 527.478 299.882 462.984 333.172C439.682 345.197 415.827 357.671 387.208 358.141C353.168 358.768 319.152 343.539 290.127 326.61C270.323 315.081 251.779 302.571 232.168 292.01C222.945 287.057 213.497 282.549 203.573 278.722C140.442 254.371 63.2126 262.348 -0.656713 293.119C-64.5997 323.925 -116.618 374.896 -156.4 433.482M1135.87 -73.1108C1148.23 -33.948 1120.22 8.64219 1083.41 25.9435C1080.13 27.4996 1076.78 28.8726 1073.4 30.087C1038.86 42.5651 1000.5 39.5222 964.019 33.2995C957.001 32.093 949.963 30.777 942.956 29.4318C910.02 23.0943 876.725 16.2372 843.092 18.3587C832.215 19.0465 821.575 20.6367 811.141 23.1584C740.522 40.2361 684.143 98.049 638.841 156.287C635.549 160.509 632.279 164.78 629.009 169.051C580.674 232.136 530.193 293.247 467.212 328.46C443.803 341.546 419.792 355.327 390.524 356.229C355.688 357.357 320.855 341.357 291.529 323.421C271.529 311.209 252.902 297.874 233.128 286.54C223.838 281.216 214.273 276.36 204.202 272.213C140.168 245.838 60.7051 253.622 -4.56057 285.303C-69.8999 317.018 -122.634 369.762 -163.023 429.937M1135.13 -84.2826C1147.5 -45.1736 1119.86 -2.5717 1083.29 15.1244C1080.01 16.705 1076.69 18.1271 1073.31 19.3839C1038.94 32.2302 1000.63 29.6724 964.111 23.8837C957.078 22.7735 950.056 21.5245 943.04 20.2577C910.086 14.3004 876.776 7.7633 843.179 10.0613C832.324 10.7982 821.683 12.4486 811.278 15.0016C740.706 32.3407 684.601 90.2351 639.792 148.797C636.529 153.05 633.295 157.335 630.079 161.626C582.368 225.063 532.942 286.686 471.439 323.749C447.918 337.913 423.746 352.958 393.829 354.293C358.19 355.938 322.546 339.151 292.902 320.201C272.687 307.299 253.984 293.121 234.04 281.032C224.659 275.348 215.003 270.132 204.802 265.673C139.87 237.256 58.175 244.847 -8.49369 277.456C-75.236 310.099 -128.679 364.597 -169.657 426.367M1134.37 -95.4366C1146.77 -56.3568 1119.5 -13.761 1083.14 4.31653C1079.89 5.92836 1076.59 7.37491 1073.23 8.68086C1039.02 21.8708 1000.77 19.8048 964.21 14.4502C957.168 13.4182 950.149 12.2721 943.131 11.0656C910.159 5.48858 876.808 -0.717312 843.273 1.74593C832.44 2.53186 821.821 4.23152 811.422 6.82694C740.913 24.4342 685.06 82.4212 640.749 141.29C637.54 145.563 634.336 149.878 631.156 154.182C584.076 217.955 535.727 280.138 475.662 318.995C452.057 334.269 427.706 350.571 397.122 352.332C360.68 354.495 324.227 336.92 294.288 316.945C273.884 303.341 255.091 288.357 234.984 275.495C225.529 269.458 215.775 263.901 205.434 259.104C139.597 228.663 55.6692 236.06 -12.3958 269.58C-80.5345 303.133 -134.693 359.403 -176.278 422.761M1133.63 -106.584C1146.06 -67.5578 1119.17 -24.9438 1083.03 -6.49608C1079.82 -4.85308 1076.51 -3.36403 1073.19 -2.0269C1039.14 11.5313 1000.94 9.95038 964.344 5.02976C957.312 4.08276 950.266 3.00837 943.234 1.89813C910.232 -3.32318 876.858 -9.19135 843.378 -6.54498C832.561 -5.69203 821.954 -3.96784 811.566 -1.34787C741.103 16.5208 685.526 74.5894 641.689 133.775C638.509 138.08 635.34 142.408 632.214 146.732C585.765 210.839 538.51 273.651 479.878 314.258C456.183 330.66 431.666 348.184 400.433 350.378C363.195 353.041 325.943 334.703 295.685 313.713C275.067 299.42 256.209 283.617 235.921 269.975C226.399 263.567 216.529 257.662 206.04 252.547C139.3 220.081 53.1457 227.267 -16.3223 261.714C-85.8639 296.195 -140.732 354.22 -182.923 419.167M1132.88 -117.738C1145.33 -78.7411 1118.8 -36.1398 1082.9 -17.2974C1079.69 -15.6119 1076.42 -14.0916 1073.1 -12.7299C1039.21 1.1899 1001.08 0.0827066 964.454 -4.37933C957.414 -5.24801 950.377 -6.23749 943.336 -7.26942C910.317 -12.1105 876.926 -17.6587 843.483 -14.8358C832.689 -13.9338 822.104 -12.1605 811.72 -9.49809C741.297 8.64993 685.996 66.7999 642.658 126.292C639.514 130.61 636.399 134.958 633.296 139.332C587.477 203.773 541.374 267.275 484.124 309.553C460.375 327.096 435.649 345.847 403.749 348.466C365.708 351.648 327.645 332.521 297.087 310.525C276.272 295.547 257.331 278.92 236.88 264.505C227.267 257.737 217.323 251.479 206.688 246.045C139.05 211.537 50.656 218.548 -20.2083 253.905C-91.1463 289.296 -146.73 349.093 -189.528 415.628M1132.13 -128.91C1144.61 -89.9668 1118.44 -47.3291 1082.76 -28.1231C1079.58 -26.4064 1076.33 -24.855 1073.02 -23.4509C1039.3 -9.16289 1001.22 -9.80292 964.559 -13.8309C957.504 -14.6034 950.459 -15.5146 943.427 -16.4616C910.389 -20.9223 876.958 -26.1394 843.576 -23.1513C832.799 -22.1822 822.225 -20.3844 811.864 -17.6729C741.487 0.736589 686.462 58.9681 643.615 118.785C640.501 123.133 637.422 127.495 634.372 131.888C589.185 196.665 544.251 260.863 488.358 304.824C464.566 323.532 439.61 343.46 407.061 346.511C368.216 350.211 329.344 330.297 298.466 307.286C277.437 291.619 258.438 274.156 237.817 258.986C228.137 251.847 218.077 245.24 207.313 239.493C138.77 202.961 48.1503 209.761 -24.117 246.046C-96.458 282.365 -152.75 343.917 -196.156 412.04M1131.38 -140.064C1143.86 -101.157 1118.09 -58.5186 1082.64 -38.9425C1079.47 -37.2013 1076.25 -35.6006 1072.94 -34.1719C1039.4 -19.5336 1001.36 -19.6706 964.658 -23.2646C957.594 -23.9587 950.559 -24.785 943.518 -25.6537C910.462 -29.7342 876.997 -34.638 843.67 -31.4668C832.915 -30.4486 822.346 -28.6083 811.99 -25.8543C741.659 -7.1834 686.909 51.1296 644.555 111.271C641.476 115.632 638.444 120.032 635.431 124.438C590.874 189.55 547.176 254.49 492.581 300.07C468.757 319.968 443.57 341.073 410.379 344.539C370.738 348.739 331.048 328.055 299.876 304.019C278.652 287.669 259.57 269.381 238.768 253.431C228.996 245.932 218.845 238.966 207.933 232.9C138.493 194.326 45.6334 200.95 -28.0303 238.145C-101.768 275.374 -158.776 338.698 -202.77 408.416M1130.64 -151.211C1143.17 -112.351 1117.73 -69.7079 1082.51 -49.7436C1079.36 -47.9533 1076.15 -46.3283 1072.88 -44.8684C1039.48 -29.8685 1001.51 -29.5317 964.775 -32.6916C957.72 -33.3008 950.651 -34.0374 943.627 -34.8391C910.553 -38.5393 877.072 -43.1231 843.763 -39.782C833.031 -38.7148 822.478 -36.8074 812.133 -34.0289C741.86 -15.072 687.368 43.3158 645.512 103.763C642.463 108.156 639.467 112.569 636.507 116.995C592.581 182.441 550.123 248.165 496.815 295.34C472.978 316.435 447.548 338.693 413.683 342.603C373.239 347.321 332.733 325.867 301.267 300.806C279.834 283.747 260.663 264.652 239.723 247.918C229.878 240.067 219.635 232.741 208.575 226.355C138.213 185.75 43.1456 192.171 -31.9276 230.311C-107.061 268.45 -164.785 333.547 -209.387 404.853M1129.89 -162.365C1142.42 -123.541 1117.38 -80.8974 1082.38 -60.545C1079.26 -58.7235 1076.06 -57.0739 1072.81 -55.5649C1039.59 -40.1968 1001.66 -39.3749 964.885 -42.1007C957.822 -42.6316 950.762 -43.2832 943.705 -43.9953C910.62 -47.3331 877.091 -51.568 843.837 -48.0438C833.121 -46.9095 822.579 -44.9777 812.264 -42.1679C742.037 -22.9496 687.838 35.5264 646.439 96.2846C643.443 100.697 640.459 105.135 637.528 109.592C594.233 175.373 553.075 241.882 501 290.634C477.185 312.938 451.471 336.354 416.945 340.671C375.698 345.907 334.382 323.665 302.615 297.597C280.968 279.848 261.732 259.935 240.628 242.428C230.698 234.199 220.357 226.531 209.151 219.827C137.885 177.198 40.5842 183.425 -35.8853 222.475C-112.422 261.542 -170.873 328.386 -216.063 401.288M1129.14 -173.537C1141.71 -134.76 1117.03 -92.1046 1082.25 -71.3641C1079.15 -69.5181 1075.97 -67.8194 1072.73 -66.2859C1039.67 -50.5741 1001.81 -49.2604 965.001 -51.5277C957.923 -51.9623 950.862 -52.5536 943.814 -53.1807C910.711 -56.1383 877.148 -60.0599 843.948 -56.3525C833.255 -55.1691 822.736 -53.1882 812.425 -50.336C742.244 -30.8562 688.315 27.7191 647.414 88.7836C644.448 93.2277 641.517 97.685 638.623 102.156C595.976 168.278 556.137 235.579 505.258 285.893C481.466 309.407 455.456 333.956 420.293 338.73C378.249 344.466 336.116 321.454 304.037 294.354C282.194 275.922 262.875 255.184 241.59 236.897C231.587 228.315 221.136 220.281 209.8 213.264C137.636 168.593 38.1031 174.627 -39.7695 214.606C-117.702 254.582 -176.875 323.217 -222.666 397.689M1128.38 -184.691C1140.97 -145.95 1116.65 -103.283 1082.11 -82.19C1079.03 -80.3128 1075.86 -78.5716 1072.65 -77.0069C1039.76 -60.9269 1001.94 -59.1282 965.107 -60.9794C958.02 -61.3357 950.961 -61.824 943.905 -62.3728C910.766 -64.9568 877.204 -68.5519 844.042 -64.668C833.364 -63.4176 822.857 -61.412 812.551 -58.5173C742.41 -38.7582 688.763 19.8806 648.354 81.2694C645.423 85.7267 642.522 90.2152 639.681 94.7056C597.659 161.181 559.192 229.294 509.475 281.157C485.734 305.912 459.41 331.587 423.586 336.769C380.739 343.024 337.796 319.224 305.416 291.116C283.359 271.994 263.981 250.42 242.527 231.378C232.45 222.443 221.908 214.049 210.425 206.713C137.357 160.018 35.6088 165.865 -43.678 206.747C-123.014 247.652 -182.896 318.04 -229.294 394.101M1127.65 -195.838C1140.27 -157.144 1116.32 -114.465 1082 -92.9846C1078.93 -91.0649 1075.79 -89.3105 1072.6 -87.6968C1039.88 -71.2485 1002.11 -68.9825 965.235 -70.3818C958.157 -70.6531 951.072 -71.0699 944.025 -71.5337C910.868 -73.7374 877.272 -77.0192 844.165 -72.9522C833.51 -71.6527 823.007 -69.6048 812.723 -66.661C742.629 -46.6404 689.251 12.0979 649.341 73.793C646.439 78.2815 643.592 82.7898 640.787 87.2936C599.396 154.103 562.354 223.049 513.745 276.44C490.08 302.425 463.424 329.22 426.927 334.846C383.259 341.612 339.524 317.031 306.842 287.916C284.596 268.093 265.129 245.711 243.493 225.89C233.331 216.577 222.691 207.842 211.061 200.187C137.089 151.467 33.1144 157.103 -47.5754 198.913C-128.308 240.728 -188.905 312.889 -235.892 390.544M1126.89 -206.992C1139.53 -168.334 1115.96 -125.655 1081.85 -103.793C1078.81 -101.842 1075.69 -100.038 1072.5 -98.4064C1039.93 -81.5965 1002.23 -78.8389 965.315 -79.822C958.229 -80.0151 951.147 -80.3289 944.098 -80.7324C910.929 -82.5737 877.287 -85.5064 844.24 -81.2742C833.602 -79.9077 823.128 -77.8286 812.849 -74.8424C742.818 -54.5537 689.699 4.25945 650.28 66.2788C647.415 70.7805 644.597 75.3201 641.839 79.8616C601.078 147.006 565.47 216.766 517.954 271.722C494.394 298.968 467.371 326.869 430.231 332.91C385.767 340.176 341.215 314.824 308.215 284.696C285.754 264.183 266.222 240.983 244.424 220.388C234.188 210.723 223.45 201.646 211.679 193.654C136.809 142.892 30.5954 148.353 -51.4908 191.072C-133.608 233.821 -194.933 307.73 -242.526 386.974M1126.14 -218.164C1138.82 -179.553 1115.6 -136.869 1081.73 -114.63C1078.72 -112.648 1075.61 -110.802 1072.45 -109.139C1040.05 -91.9786 1002.39 -88.7358 965.456 -89.2603C958.362 -89.3751 951.271 -89.6107 944.207 -89.9179C911.02 -91.379 877.361 -93.9918 844.352 -89.5831C833.736 -88.1675 823.267 -86.0458 812.993 -83.0171C743.002 -62.4491 690.164 -3.57238 651.238 58.7712C648.402 63.3041 645.637 67.8635 642.915 72.4183C602.786 139.898 568.663 210.492 522.177 266.968C498.729 295.457 471.313 324.476 433.525 330.949C388.258 338.733 342.895 312.594 309.601 281.44C286.944 260.243 267.329 236.219 245.367 214.851C235.047 204.808 224.211 195.389 212.292 187.078C136.519 134.292 28.0784 139.542 -55.4107 183.189C-138.924 226.848 -200.965 302.529 -249.165 383.362M1125.39 -229.318C1138.08 -190.743 1115.24 -148.058 1081.59 -125.437C1078.57 -123.413 1075.5 -121.554 1072.34 -119.83C1040.09 -102.309 1002.5 -98.5743 965.524 -98.6648C958.432 -98.6767 951.34 -98.8518 944.267 -99.0808C911.062 -100.162 877.369 -102.461 844.396 -97.8759C833.803 -96.4112 823.35 -94.2226 813.094 -91.1872C743.149 -70.3577 690.581 -11.3817 652.135 51.2616C649.335 55.8077 646.606 60.3805 643.932 64.973C604.433 132.787 571.821 204.204 526.351 262.237C503.044 291.999 475.231 322.094 436.775 328.992C390.705 337.295 344.533 310.367 310.937 278.207C288.066 256.32 268.375 231.453 246.244 209.33C235.85 198.934 224.904 189.149 212.857 180.525C136.185 125.696 25.5058 130.771 -59.4042 175.34C-144.314 219.909 -207.07 297.363 -255.878 379.783M1124.65 -240.466C1137.38 -201.937 1114.88 -159.23 1081.47 -136.232C1078.49 -134.176 1075.42 -132.275 1072.29 -130.52C1040.21 -112.63 1002.67 -108.429 965.658 -108.085C958.558 -108.019 951.451 -108.098 944.394 -108.26C911.171 -108.96 877.437 -110.928 844.526 -106.178C833.948 -104.646 823.506 -102.433 813.273 -99.3487C743.374 -78.2577 691.082 -19.2002 653.128 43.7673C650.375 48.3513 647.683 52.9372 645.037 57.5609C606.169 125.71 575.093 197.938 530.621 257.521C507.462 288.539 479.239 319.745 440.134 327.076C393.267 335.878 346.278 308.181 312.382 275.013C289.314 252.443 269.541 226.751 247.246 203.855C236.779 193.106 225.741 182.961 213.547 174.018C135.971 117.166 23.0586 122.047 -63.2478 167.526C-149.561 213.023 -213.026 292.231 -262.44 376.24M1123.9 -251.619C1136.64 -213.127 1114.53 -170.419 1081.34 -147.033C1078.37 -144.953 1075.33 -143.002 1072.22 -141.217C1040.31 -122.983 1002.83 -118.29 965.768 -117.494C958.66 -117.35 951.562 -117.344 944.49 -117.409C911.249 -117.729 877.499 -119.378 844.624 -114.451C834.069 -112.87 823.632 -110.614 813.403 -107.488C743.551 -86.1352 691.546 -26.9717 654.073 36.2955C651.355 40.8927 648.692 45.5098 646.101 50.1534C607.863 118.637 578.366 191.672 534.842 252.827C511.867 285.115 483.186 317.394 443.432 325.157C395.762 334.478 347.957 306.011 313.754 271.793C290.479 248.515 270.634 222.022 248.158 198.347C237.606 187.22 226.471 176.734 214.129 167.472C135.649 108.595 20.5105 113.265 -67.1988 159.672C-154.908 206.079 -219.089 287.059 -269.11 372.657M1123.15 -262.791C1135.93 -224.346 1114.18 -181.626 1081.21 -157.877C1078.27 -155.766 1075.23 -153.79 1072.13 -151.962C1040.39 -133.36 1002.95 -128.182 965.862 -126.97C958.745 -126.747 951.632 -126.645 944.576 -126.644C911.305 -126.608 877.533 -127.919 844.713 -122.809C834.174 -121.161 823.766 -118.874 813.542 -115.705C743.747 -94.0663 692.006 -34.8459 655.025 28.7455C652.338 33.3739 649.728 38.0108 647.172 42.6676C609.566 111.486 581.671 185.316 539.078 248.037C516.286 281.595 487.159 314.972 446.739 323.161C398.266 332.999 349.65 303.744 315.147 268.519C291.658 244.551 271.748 217.24 249.109 192.792C238.483 181.312 227.238 170.459 214.767 160.885C135.389 99.9657 18.0114 104.461 -71.0943 151.778C-160.207 199.112 -225.096 281.847 -275.707 369.04M1122.41 -273.939C1135.21 -235.529 1113.83 -192.816 1081.1 -168.672C1078.18 -166.511 1075.15 -164.511 1072.08 -162.652C1040.51 -143.682 1003.12 -138.037 966.008 -136.366C958.894 -136.04 951.779 -135.878 944.69 -135.787C911.401 -135.371 877.588 -136.35 844.829 -131.075C834.313 -129.378 823.91 -127.049 813.709 -123.831C743.96 -101.931 692.488 -42.6107 656.006 21.287C653.354 25.9287 650.773 30.5967 648.272 35.2735C611.296 104.427 585.028 179.041 543.334 243.357C520.77 278.179 491.16 312.641 450.091 321.262C400.821 331.601 351.389 301.576 316.584 265.344C292.899 240.692 272.906 212.556 250.111 187.317C239.393 175.477 228.075 164.272 215.457 154.378C135.175 91.4347 15.5709 95.7189 -74.9378 143.964C-165.446 192.208 -231.052 276.715 -282.269 365.496M1121.66 -285.093C1134.47 -246.737 1113.47 -204.005 1080.95 -179.48C1078.04 -177.295 1075.06 -175.239 1071.98 -173.362C1040.55 -154.03 1003.24 -147.893 966.089 -145.807C958.966 -145.402 951.842 -145.161 944.763 -144.985C911.456 -144.189 877.626 -144.849 844.905 -139.397C834.393 -137.658 824.031 -135.273 813.823 -132.036C744.12 -109.875 692.924 -50.4738 656.916 13.7415C654.293 18.4143 651.767 23.1024 649.294 27.8104C612.943 97.3164 588.315 172.679 547.521 238.589C525.183 274.677 495.085 310.241 453.348 319.288C403.276 330.145 353.033 299.332 317.928 262.092C294.028 236.751 273.977 207.779 250.994 181.777C240.21 169.567 228.775 158.013 216.009 147.801C134.824 82.8329 12.9869 86.9238 -78.9182 136.079C-170.83 185.251 -237.162 271.506 -288.968 361.882M1120.9 -296.247C1134.89 -254.504 1109.17 -207.53 1071.91 -184.058C1034.66 -160.605 988.888 -155.696 944.865 -154.153C900.842 -152.609 855.867 -153.678 813.96 -140.193C739.253 -116.132 686.078 -49.4379 650.382 20.3916C614.662 90.2324 591.71 166.357 551.773 233.866C529.679 271.225 499.063 307.861 456.677 317.34C405.802 328.715 354.749 297.114 319.332 258.843C283.914 220.572 257.048 174.217 216.659 141.238C134.576 74.2284 10.5057 78.1261 -82.8022 128.209C-176.11 178.291 -243.158 266.318 -295.571 358.283" stroke="url(#paint0_linear_3071_9670)" stroke-width="0.8669" stroke-miterlimit="10"/>
<path d="M1144.11 49.5988C1156.18 89.2303 1124.14 131.732 1084.85 144.86C1045.55 158.007 1002.45 149.115 962.803 136.981C923.152 124.864 883.478 109.44 842.038 109.676C756.27 110.183 686.558 175.883 628.377 238.794C570.196 301.706 505.875 370.475 420.685 380.462C353.893 388.281 289.17 357.64 222.733 347.159C106.76 328.854 -17.3882 377.304 -90.147 469.311M1143.35 38.445C1155.45 78.0227 1123.76 120.536 1084.7 134.053C1081.21 135.27 1077.68 136.286 1074.13 137.174C1037.94 146.05 999.024 138.177 962.913 127.572C955.94 125.526 948.965 123.378 941.989 121.23C909.239 111.132 876.246 101.026 842.136 101.403C831.083 101.517 820.28 102.721 809.744 104.859C738.653 119.237 679.522 176.217 629.339 231.329C625.697 235.34 622.03 239.363 618.338 243.396C563.683 303.109 503.29 363.615 424.942 375.782C402.533 379.258 380.156 379.059 357.444 375.683C330.63 371.707 303.913 363.491 277.607 355.712C259.645 350.403 241.775 345.291 223.675 341.682C215.166 339.986 206.585 338.65 197.944 337.7C142.931 331.621 85.7722 341.348 34.5277 363.828C-16.8397 386.365 -62.4014 421.453 -96.7811 465.741M1142.6 27.291C1154.73 66.8394 1123.41 109.346 1084.57 123.251C1081.09 124.493 1077.58 125.558 1074.04 126.471C1038.03 135.698 999.161 128.31 963.005 118.156C956.024 116.189 949.058 114.126 942.074 112.056C909.305 102.338 876.279 92.5457 842.223 93.106C831.186 93.2868 820.394 94.5153 809.863 96.6954C738.812 111.353 679.956 168.415 630.272 223.833C626.666 227.857 623.028 231.911 619.39 235.964C565.366 296.012 506.037 356.177 429.14 371.039C406.674 375.39 384.092 376.684 360.731 373.74C333.12 370.264 305.587 361.279 278.979 352.492C260.822 346.5 242.868 340.562 224.605 336.181C216.005 334.125 207.35 332.436 198.562 331.167C142.645 323.063 83.2533 332.597 30.6058 356.006C-22.1579 379.453 -68.4353 416.313 -103.404 462.196M1141.86 16.1435C1154.01 55.6382 1123.07 98.1638 1084.45 112.432C1081 113.705 1077.51 114.819 1073.98 115.757C1038.12 125.345 999.315 118.449 963.122 108.729C956.15 106.847 949.151 104.873 942.176 102.888C909.389 93.5509 876.347 84.0783 842.328 84.815C831.313 85.0449 820.544 86.3226 810.024 88.5272C739.037 103.453 680.44 160.589 631.248 216.332C627.67 220.387 624.086 224.461 620.484 228.528C567.084 288.928 508.782 348.8 433.392 366.316C410.843 371.553 388.088 374.311 364.06 371.792C335.646 368.835 307.303 359.061 280.401 349.249C262.029 342.567 244.017 335.793 225.584 330.657C216.917 328.23 208.147 326.193 199.229 324.611C142.408 314.483 80.7902 323.806 26.7397 348.142C-27.427 372.517 -74.4134 411.132 -109.989 458.604M1141.11 4.9717C1153.28 44.4306 1122.71 86.9499 1084.32 101.613C1080.88 102.928 1077.43 104.056 1073.92 105.042C1038.23 114.999 999.477 108.57 963.245 99.2839C956.258 97.4981 949.275 95.5914 942.274 93.6782C909.469 84.7211 876.386 75.5799 842.41 76.4752C831.412 76.7721 820.654 78.0743 810.156 80.328C739.216 95.5151 680.906 152.758 632.176 208.793C628.634 212.862 625.08 216.966 621.525 221.071C568.756 281.806 511.45 341.517 437.597 361.555C414.977 367.703 392.013 371.911 367.342 369.806C338.107 367.361 308.972 356.806 281.769 345.987C263.208 338.603 245.106 331.023 226.492 325.106C217.751 322.327 208.865 319.941 199.806 318.022C142.088 305.852 78.2306 315 22.7838 340.246C-32.7792 365.531 -80.4813 405.918 -116.664 454.978M1140.36 -6.1823C1152.56 33.2294 1122.35 75.7785 1084.19 90.8116C1080.78 92.1581 1077.33 93.328 1073.84 94.3394C1038.32 104.664 999.613 98.7018 963.337 89.8682C956.342 88.1607 949.35 86.3324 942.358 84.5041C909.535 75.9273 876.418 67.0992 842.497 68.1776C831.521 68.5237 820.786 69.875 810.275 72.1645C739.374 87.631 681.346 144.937 633.109 201.297C629.597 205.397 626.102 209.503 622.577 213.639C570.439 274.709 514.116 334.355 441.807 356.837C419.073 363.9 395.967 369.542 370.64 367.888C340.609 365.943 310.657 354.617 283.135 342.785C264.359 334.711 246.175 326.306 227.416 319.623C218.584 316.483 209.624 313.745 200.418 311.507C141.795 297.313 75.7118 306.249 18.862 332.423C-38.086 358.643 -86.5151 400.777 -123.305 451.426M1139.6 -17.3362C1151.82 22.0397 1121.99 64.5891 1084.04 80.0037C1080.66 81.3813 1077.21 82.5937 1073.75 83.6363C1038.39 94.3044 999.743 88.8521 963.454 80.4412C956.45 78.812 949.461 77.0865 942.46 75.3365C909.626 67.1221 876.486 58.6318 842.602 59.8867C831.642 60.2998 820.912 61.6936 810.43 64.0143C739.576 79.7423 681.817 137.148 634.078 193.814C630.601 197.927 627.136 202.065 623.665 206.22C572.157 267.625 516.784 327.296 446.059 352.114C423.223 360.117 399.956 367.186 373.969 365.94C343.135 364.513 312.373 352.4 284.557 339.542C265.585 330.785 247.318 321.555 228.395 314.099C219.496 310.589 210.42 307.502 201.067 304.944C141.54 288.726 73.224 297.469 14.9779 324.554C-43.3665 351.683 -92.5112 395.59 -129.908 447.827M1138.87 -28.4836C1151.12 10.8451 1121.64 53.3997 1083.94 69.1912C1080.57 70.5933 1077.15 71.8369 1073.69 72.922C1038.5 83.9583 999.904 78.9731 963.57 71.0142C956.576 69.4699 949.56 67.8161 942.569 66.151C909.699 58.3102 876.536 50.1578 842.713 51.578C831.776 52.0401 821.051 53.4763 810.592 55.8461C739.783 71.8356 682.3 129.323 635.053 186.313C631.624 190.464 628.195 194.615 624.759 198.784C573.883 260.523 519.479 320.328 450.311 347.391C427.359 356.369 403.952 364.813 377.292 364.01C345.655 363.101 314.082 350.2 285.965 336.335C266.779 326.888 248.447 316.839 229.344 308.604C220.353 304.734 211.203 301.294 201.703 298.418C141.279 280.157 70.7297 288.707 11.0806 316.72C-48.6668 344.777 -98.5204 390.438 -136.506 444.27M1138.12 -39.6554C1150.39 -0.380443 1121.29 42.1924 1083.8 58.3653C1080.45 59.8166 1077.04 61.0847 1073.61 62.2009C1038.57 73.5989 1000.06 69.1121 963.669 61.5806C956.659 60.1325 949.653 58.5637 942.654 56.9769C909.765 49.5165 876.568 41.6772 842.8 43.2805C831.868 43.7851 821.183 45.2771 810.717 47.6648C739.966 63.9402 682.741 121.502 635.993 178.798C632.6 182.963 629.2 187.145 625.811 191.352C575.583 253.432 522.13 313.425 454.527 342.655C431.453 352.627 407.888 362.438 380.603 362.056C348.17 361.647 315.78 347.976 287.362 333.104C267.98 322.973 249.572 312.082 230.305 303.073C221.241 298.85 211.982 295.045 202.353 291.855C141.024 271.571 68.26 279.934 7.19657 308.85C-53.9471 337.817 -104.523 385.269 -143.109 440.671M1137.37 -50.8094C1149.67 -11.5637 1120.92 30.9964 1083.67 47.5641C1080.33 49.0399 1076.95 50.3571 1073.54 51.5045C1038.68 63.2528 1000.21 59.251 963.786 52.1536C956.767 50.7838 949.753 49.2933 942.745 47.7849C909.838 40.7047 876.625 33.1853 842.894 34.9651C831.978 35.5367 821.304 37.0532 810.861 39.49C740.156 56.0269 683.207 113.67 636.932 171.284C633.575 175.462 630.222 179.682 626.87 183.902C577.273 246.317 524.79 306.608 458.75 337.901C435.565 348.891 411.849 360.051 383.897 360.095C350.66 360.204 317.454 345.763 288.724 329.859C269.134 319.02 250.654 307.329 231.206 297.541C222.075 292.947 212.7 288.793 202.924 285.284C140.697 262.958 65.7004 271.128 3.23404 300.971C-59.306 330.849 -110.615 380.066 -149.79 437.063M1136.61 -61.9634C1148.93 -22.7714 1120.56 19.825 1083.54 36.7448C1080.23 38.2518 1076.88 39.6003 1073.47 40.7835C1038.75 52.8934 1000.35 49.3833 963.884 42.7199C956.875 41.4351 949.852 40.0229 942.836 38.5928C909.918 31.8749 876.657 24.7047 842.987 26.6497C832.094 27.2704 821.443 28.836 811.005 31.3153C740.346 48.1136 683.672 105.838 637.89 163.777C634.562 167.985 631.245 172.219 627.946 176.458C578.98 239.209 527.478 299.882 462.984 333.172C439.682 345.197 415.827 357.671 387.208 358.141C353.168 358.768 319.152 343.539 290.127 326.61C270.323 315.081 251.779 302.571 232.168 292.01C222.945 287.057 213.497 282.549 203.573 278.722C140.442 254.371 63.2126 262.348 -0.656713 293.119C-64.5997 323.925 -116.618 374.896 -156.4 433.482M1135.87 -73.1108C1148.23 -33.948 1120.22 8.64219 1083.41 25.9435C1080.13 27.4996 1076.78 28.8726 1073.4 30.087C1038.86 42.5651 1000.5 39.5222 964.019 33.2995C957.001 32.093 949.963 30.777 942.956 29.4318C910.02 23.0943 876.725 16.2372 843.092 18.3587C832.215 19.0465 821.575 20.6367 811.141 23.1584C740.522 40.2361 684.143 98.049 638.841 156.287C635.549 160.509 632.279 164.78 629.009 169.051C580.674 232.136 530.193 293.247 467.212 328.46C443.803 341.546 419.792 355.327 390.524 356.229C355.688 357.357 320.855 341.357 291.529 323.421C271.529 311.209 252.902 297.874 233.128 286.54C223.838 281.216 214.273 276.36 204.202 272.213C140.168 245.838 60.7051 253.622 -4.56057 285.303C-69.8999 317.018 -122.634 369.762 -163.023 429.937M1135.13 -84.2826C1147.5 -45.1736 1119.86 -2.5717 1083.29 15.1244C1080.01 16.705 1076.69 18.1271 1073.31 19.3839C1038.94 32.2302 1000.63 29.6724 964.111 23.8837C957.078 22.7735 950.056 21.5245 943.04 20.2577C910.086 14.3004 876.776 7.7633 843.179 10.0613C832.324 10.7982 821.683 12.4486 811.278 15.0016C740.706 32.3407 684.601 90.2351 639.792 148.797C636.529 153.05 633.295 157.335 630.079 161.626C582.368 225.063 532.942 286.686 471.439 323.749C447.918 337.913 423.746 352.958 393.829 354.293C358.19 355.938 322.546 339.151 292.902 320.201C272.687 307.299 253.984 293.121 234.04 281.032C224.659 275.348 215.003 270.132 204.802 265.673C139.87 237.256 58.175 244.847 -8.49369 277.456C-75.236 310.099 -128.679 364.597 -169.657 426.367M1134.37 -95.4366C1146.77 -56.3568 1119.5 -13.761 1083.14 4.31653C1079.89 5.92836 1076.59 7.37491 1073.23 8.68086C1039.02 21.8708 1000.77 19.8048 964.21 14.4502C957.168 13.4182 950.149 12.2721 943.131 11.0656C910.159 5.48858 876.808 -0.717312 843.273 1.74593C832.44 2.53186 821.821 4.23152 811.422 6.82694C740.913 24.4342 685.06 82.4212 640.749 141.29C637.54 145.563 634.336 149.878 631.156 154.182C584.076 217.955 535.727 280.138 475.662 318.995C452.057 334.269 427.706 350.571 397.122 352.332C360.68 354.495 324.227 336.92 294.288 316.945C273.884 303.341 255.091 288.357 234.984 275.495C225.529 269.458 215.775 263.901 205.434 259.104C139.597 228.663 55.6692 236.06 -12.3958 269.58C-80.5345 303.133 -134.693 359.403 -176.278 422.761M1133.63 -106.584C1146.06 -67.5578 1119.17 -24.9438 1083.03 -6.49608C1079.82 -4.85308 1076.51 -3.36403 1073.19 -2.0269C1039.14 11.5313 1000.94 9.95038 964.344 5.02976C957.312 4.08276 950.266 3.00837 943.234 1.89813C910.232 -3.32318 876.858 -9.19135 843.378 -6.54498C832.561 -5.69203 821.954 -3.96784 811.566 -1.34787C741.103 16.5208 685.526 74.5894 641.689 133.775C638.509 138.08 635.34 142.408 632.214 146.732C585.765 210.839 538.51 273.651 479.878 314.258C456.183 330.66 431.666 348.184 400.433 350.378C363.195 353.041 325.943 334.703 295.685 313.713C275.067 299.42 256.209 283.617 235.921 269.975C226.399 263.567 216.529 257.662 206.04 252.547C139.3 220.081 53.1457 227.267 -16.3223 261.714C-85.8639 296.195 -140.732 354.22 -182.923 419.167M1132.88 -117.738C1145.33 -78.7411 1118.8 -36.1398 1082.9 -17.2974C1079.69 -15.6119 1076.42 -14.0916 1073.1 -12.7299C1039.21 1.1899 1001.08 0.0827066 964.454 -4.37933C957.414 -5.24801 950.377 -6.23749 943.336 -7.26942C910.317 -12.1105 876.926 -17.6587 843.483 -14.8358C832.689 -13.9338 822.104 -12.1605 811.72 -9.49809C741.297 8.64993 685.996 66.7999 642.658 126.292C639.514 130.61 636.399 134.958 633.296 139.332C587.477 203.773 541.374 267.275 484.124 309.553C460.375 327.096 435.649 345.847 403.749 348.466C365.708 351.648 327.645 332.521 297.087 310.525C276.272 295.547 257.331 278.92 236.88 264.505C227.267 257.737 217.323 251.479 206.688 246.045C139.05 211.537 50.656 218.548 -20.2083 253.905C-91.1463 289.296 -146.73 349.093 -189.528 415.628M1132.13 -128.91C1144.61 -89.9668 1118.44 -47.3291 1082.76 -28.1231C1079.58 -26.4064 1076.33 -24.855 1073.02 -23.4509C1039.3 -9.16289 1001.22 -9.80292 964.559 -13.8309C957.504 -14.6034 950.459 -15.5146 943.427 -16.4616C910.389 -20.9223 876.958 -26.1394 843.576 -23.1513C832.799 -22.1822 822.225 -20.3844 811.864 -17.6729C741.487 0.736589 686.462 58.9681 643.615 118.785C640.501 123.133 637.422 127.495 634.372 131.888C589.185 196.665 544.251 260.863 488.358 304.824C464.566 323.532 439.61 343.46 407.061 346.511C368.216 350.211 329.344 330.297 298.466 307.286C277.437 291.619 258.438 274.156 237.817 258.986C228.137 251.847 218.077 245.24 207.313 239.493C138.77 202.961 48.1503 209.761 -24.117 246.046C-96.458 282.365 -152.75 343.917 -196.156 412.04M1131.38 -140.064C1143.86 -101.157 1118.09 -58.5186 1082.64 -38.9425C1079.47 -37.2013 1076.25 -35.6006 1072.94 -34.1719C1039.4 -19.5336 1001.36 -19.6706 964.658 -23.2646C957.594 -23.9587 950.559 -24.785 943.518 -25.6537C910.462 -29.7342 876.997 -34.638 843.67 -31.4668C832.915 -30.4486 822.346 -28.6083 811.99 -25.8543C741.659 -7.1834 686.909 51.1296 644.555 111.271C641.476 115.632 638.444 120.032 635.431 124.438C590.874 189.55 547.176 254.49 492.581 300.07C468.757 319.968 443.57 341.073 410.379 344.539C370.738 348.739 331.048 328.055 299.876 304.019C278.652 287.669 259.57 269.381 238.768 253.431C228.996 245.932 218.845 238.966 207.933 232.9C138.493 194.326 45.6334 200.95 -28.0303 238.145C-101.768 275.374 -158.776 338.698 -202.77 408.416M1130.64 -151.211C1143.17 -112.351 1117.73 -69.7079 1082.51 -49.7436C1079.36 -47.9533 1076.15 -46.3283 1072.88 -44.8684C1039.48 -29.8685 1001.51 -29.5317 964.775 -32.6916C957.72 -33.3008 950.651 -34.0374 943.627 -34.8391C910.553 -38.5393 877.072 -43.1231 843.763 -39.782C833.031 -38.7148 822.478 -36.8074 812.133 -34.0289C741.86 -15.072 687.368 43.3158 645.512 103.763C642.463 108.156 639.467 112.569 636.507 116.995C592.581 182.441 550.123 248.165 496.815 295.34C472.978 316.435 447.548 338.693 413.683 342.603C373.239 347.321 332.733 325.867 301.267 300.806C279.834 283.747 260.663 264.652 239.723 247.918C229.878 240.067 219.635 232.741 208.575 226.355C138.213 185.75 43.1456 192.171 -31.9276 230.311C-107.061 268.45 -164.785 333.547 -209.387 404.853M1129.89 -162.365C1142.42 -123.541 1117.38 -80.8974 1082.38 -60.545C1079.26 -58.7235 1076.06 -57.0739 1072.81 -55.5649C1039.59 -40.1968 1001.66 -39.3749 964.885 -42.1007C957.822 -42.6316 950.762 -43.2832 943.705 -43.9953C910.62 -47.3331 877.091 -51.568 843.837 -48.0438C833.121 -46.9095 822.579 -44.9777 812.264 -42.1679C742.037 -22.9496 687.838 35.5264 646.439 96.2846C643.443 100.697 640.459 105.135 637.528 109.592C594.233 175.373 553.075 241.882 501 290.634C477.185 312.938 451.471 336.354 416.945 340.671C375.698 345.907 334.382 323.665 302.615 297.597C280.968 279.848 261.732 259.935 240.628 242.428C230.698 234.199 220.357 226.531 209.151 219.827C137.885 177.198 40.5842 183.425 -35.8853 222.475C-112.422 261.542 -170.873 328.386 -216.063 401.288M1129.14 -173.537C1141.71 -134.76 1117.03 -92.1046 1082.25 -71.3641C1079.15 -69.5181 1075.97 -67.8194 1072.73 -66.2859C1039.67 -50.5741 1001.81 -49.2604 965.001 -51.5277C957.923 -51.9623 950.862 -52.5536 943.814 -53.1807C910.711 -56.1383 877.148 -60.0599 843.948 -56.3525C833.255 -55.1691 822.736 -53.1882 812.425 -50.336C742.244 -30.8562 688.315 27.7191 647.414 88.7836C644.448 93.2277 641.517 97.685 638.623 102.156C595.976 168.278 556.137 235.579 505.258 285.893C481.466 309.407 455.456 333.956 420.293 338.73C378.249 344.466 336.116 321.454 304.037 294.354C282.194 275.922 262.875 255.184 241.59 236.897C231.587 228.315 221.136 220.281 209.8 213.264C137.636 168.593 38.1031 174.627 -39.7695 214.606C-117.702 254.582 -176.875 323.217 -222.666 397.689M1128.38 -184.691C1140.97 -145.95 1116.65 -103.283 1082.11 -82.19C1079.03 -80.3128 1075.86 -78.5716 1072.65 -77.0069C1039.76 -60.9269 1001.94 -59.1282 965.107 -60.9794C958.02 -61.3357 950.961 -61.824 943.905 -62.3728C910.766 -64.9568 877.204 -68.5519 844.042 -64.668C833.364 -63.4176 822.857 -61.412 812.551 -58.5173C742.41 -38.7582 688.763 19.8806 648.354 81.2694C645.423 85.7267 642.522 90.2152 639.681 94.7056C597.659 161.181 559.192 229.294 509.475 281.157C485.734 305.912 459.41 331.587 423.586 336.769C380.739 343.024 337.796 319.224 305.416 291.116C283.359 271.994 263.981 250.42 242.527 231.378C232.45 222.443 221.908 214.049 210.425 206.713C137.357 160.018 35.6088 165.865 -43.678 206.747C-123.014 247.652 -182.896 318.04 -229.294 394.101M1127.65 -195.838C1140.27 -157.144 1116.32 -114.465 1082 -92.9846C1078.93 -91.0649 1075.79 -89.3105 1072.6 -87.6968C1039.88 -71.2485 1002.11 -68.9825 965.235 -70.3818C958.157 -70.6531 951.072 -71.0699 944.025 -71.5337C910.868 -73.7374 877.272 -77.0192 844.165 -72.9522C833.51 -71.6527 823.007 -69.6048 812.723 -66.661C742.629 -46.6404 689.251 12.0979 649.341 73.793C646.439 78.2815 643.592 82.7898 640.787 87.2936C599.396 154.103 562.354 223.049 513.745 276.44C490.08 302.425 463.424 329.22 426.927 334.846C383.259 341.612 339.524 317.031 306.842 287.916C284.596 268.093 265.129 245.711 243.493 225.89C233.331 216.577 222.691 207.842 211.061 200.187C137.089 151.467 33.1144 157.103 -47.5754 198.913C-128.308 240.728 -188.905 312.889 -235.892 390.544M1126.89 -206.992C1139.53 -168.334 1115.96 -125.655 1081.85 -103.793C1078.81 -101.842 1075.69 -100.038 1072.5 -98.4064C1039.93 -81.5965 1002.23 -78.8389 965.315 -79.822C958.229 -80.0151 951.147 -80.3289 944.098 -80.7324C910.929 -82.5737 877.287 -85.5064 844.24 -81.2742C833.602 -79.9077 823.128 -77.8286 812.849 -74.8424C742.818 -54.5537 689.699 4.25945 650.28 66.2788C647.415 70.7805 644.597 75.3201 641.839 79.8616C601.078 147.006 565.47 216.766 517.954 271.722C494.394 298.968 467.371 326.869 430.231 332.91C385.767 340.176 341.215 314.824 308.215 284.696C285.754 264.183 266.222 240.983 244.424 220.388C234.188 210.723 223.45 201.646 211.679 193.654C136.809 142.892 30.5954 148.353 -51.4908 191.072C-133.608 233.821 -194.933 307.73 -242.526 386.974M1126.14 -218.164C1138.82 -179.553 1115.6 -136.869 1081.73 -114.63C1078.72 -112.648 1075.61 -110.802 1072.45 -109.139C1040.05 -91.9786 1002.39 -88.7358 965.456 -89.2603C958.362 -89.3751 951.271 -89.6107 944.207 -89.9179C911.02 -91.379 877.361 -93.9918 844.352 -89.5831C833.736 -88.1675 823.267 -86.0458 812.993 -83.0171C743.002 -62.4491 690.164 -3.57238 651.238 58.7712C648.402 63.3041 645.637 67.8635 642.915 72.4183C602.786 139.898 568.663 210.492 522.177 266.968C498.729 295.457 471.313 324.476 433.525 330.949C388.258 338.733 342.895 312.594 309.601 281.44C286.944 260.243 267.329 236.219 245.367 214.851C235.047 204.808 224.211 195.389 212.292 187.078C136.519 134.292 28.0784 139.542 -55.4107 183.189C-138.924 226.848 -200.965 302.529 -249.165 383.362M1125.39 -229.318C1138.08 -190.743 1115.24 -148.058 1081.59 -125.437C1078.57 -123.413 1075.5 -121.554 1072.34 -119.83C1040.09 -102.309 1002.5 -98.5743 965.524 -98.6648C958.432 -98.6767 951.34 -98.8518 944.267 -99.0808C911.062 -100.162 877.369 -102.461 844.396 -97.8759C833.803 -96.4112 823.35 -94.2226 813.094 -91.1872C743.149 -70.3577 690.581 -11.3817 652.135 51.2616C649.335 55.8077 646.606 60.3805 643.932 64.973C604.433 132.787 571.821 204.204 526.351 262.237C503.044 291.999 475.231 322.094 436.775 328.992C390.705 337.295 344.533 310.367 310.937 278.207C288.066 256.32 268.375 231.453 246.244 209.33C235.85 198.934 224.904 189.149 212.857 180.525C136.185 125.696 25.5058 130.771 -59.4042 175.34C-144.314 219.909 -207.07 297.363 -255.878 379.783M1124.65 -240.466C1137.38 -201.937 1114.88 -159.23 1081.47 -136.232C1078.49 -134.176 1075.42 -132.275 1072.29 -130.52C1040.21 -112.63 1002.67 -108.429 965.658 -108.085C958.558 -108.019 951.451 -108.098 944.394 -108.26C911.171 -108.96 877.437 -110.928 844.526 -106.178C833.948 -104.646 823.506 -102.433 813.273 -99.3487C743.374 -78.2577 691.082 -19.2002 653.128 43.7673C650.375 48.3513 647.683 52.9372 645.037 57.5609C606.169 125.71 575.093 197.938 530.621 257.521C507.462 288.539 479.239 319.745 440.134 327.076C393.267 335.878 346.278 308.181 312.382 275.013C289.314 252.443 269.541 226.751 247.246 203.855C236.779 193.106 225.741 182.961 213.547 174.018C135.971 117.166 23.0586 122.047 -63.2478 167.526C-149.561 213.023 -213.026 292.231 -262.44 376.24M1123.9 -251.619C1136.64 -213.127 1114.53 -170.419 1081.34 -147.033C1078.37 -144.953 1075.33 -143.002 1072.22 -141.217C1040.31 -122.983 1002.83 -118.29 965.768 -117.494C958.66 -117.35 951.562 -117.344 944.49 -117.409C911.249 -117.729 877.499 -119.378 844.624 -114.451C834.069 -112.87 823.632 -110.614 813.403 -107.488C743.551 -86.1352 691.546 -26.9717 654.073 36.2955C651.355 40.8927 648.692 45.5098 646.101 50.1534C607.863 118.637 578.366 191.672 534.842 252.827C511.867 285.115 483.186 317.394 443.432 325.157C395.762 334.478 347.957 306.011 313.754 271.793C290.479 248.515 270.634 222.022 248.158 198.347C237.606 187.22 226.471 176.734 214.129 167.472C135.649 108.595 20.5105 113.265 -67.1988 159.672C-154.908 206.079 -219.089 287.059 -269.11 372.657M1123.15 -262.791C1135.93 -224.346 1114.18 -181.626 1081.21 -157.877C1078.27 -155.766 1075.23 -153.79 1072.13 -151.962C1040.39 -133.36 1002.95 -128.182 965.862 -126.97C958.745 -126.747 951.632 -126.645 944.576 -126.644C911.305 -126.608 877.533 -127.919 844.713 -122.809C834.174 -121.161 823.766 -118.874 813.542 -115.705C743.747 -94.0663 692.006 -34.8459 655.025 28.7455C652.338 33.3739 649.728 38.0108 647.172 42.6676C609.566 111.486 581.671 185.316 539.078 248.037C516.286 281.595 487.159 314.972 446.739 323.161C398.266 332.999 349.65 303.744 315.147 268.519C291.658 244.551 271.748 217.24 249.109 192.792C238.483 181.312 227.238 170.459 214.767 160.885C135.389 99.9657 18.0114 104.461 -71.0943 151.778C-160.207 199.112 -225.096 281.847 -275.707 369.04M1122.41 -273.939C1135.21 -235.529 1113.83 -192.816 1081.1 -168.672C1078.18 -166.511 1075.15 -164.511 1072.08 -162.652C1040.51 -143.682 1003.12 -138.037 966.008 -136.366C958.894 -136.04 951.779 -135.878 944.69 -135.787C911.401 -135.371 877.588 -136.35 844.829 -131.075C834.313 -129.378 823.91 -127.049 813.709 -123.831C743.96 -101.931 692.488 -42.6107 656.006 21.287C653.354 25.9287 650.773 30.5967 648.272 35.2735C611.296 104.427 585.028 179.041 543.334 243.357C520.77 278.179 491.16 312.641 450.091 321.262C400.821 331.601 351.389 301.576 316.584 265.344C292.899 240.692 272.906 212.556 250.111 187.317C239.393 175.477 228.075 164.272 215.457 154.378C135.175 91.4347 15.5709 95.7189 -74.9378 143.964C-165.446 192.208 -231.052 276.715 -282.269 365.496M1121.66 -285.093C1134.47 -246.737 1113.47 -204.005 1080.95 -179.48C1078.04 -177.295 1075.06 -175.239 1071.98 -173.362C1040.55 -154.03 1003.24 -147.893 966.089 -145.807C958.966 -145.402 951.842 -145.161 944.763 -144.985C911.456 -144.189 877.626 -144.849 844.905 -139.397C834.393 -137.658 824.031 -135.273 813.823 -132.036C744.12 -109.875 692.924 -50.4738 656.916 13.7415C654.293 18.4143 651.767 23.1024 649.294 27.8104C612.943 97.3164 588.315 172.679 547.521 238.589C525.183 274.677 495.085 310.241 453.348 319.288C403.276 330.145 353.033 299.332 317.928 262.092C294.028 236.751 273.977 207.779 250.994 181.777C240.21 169.567 228.775 158.013 216.009 147.801C134.824 82.8329 12.9869 86.9238 -78.9182 136.079C-170.83 185.251 -237.162 271.506 -288.968 361.882M1120.9 -296.247C1134.89 -254.504 1109.17 -207.53 1071.91 -184.058C1034.66 -160.605 988.888 -155.696 944.865 -154.153C900.842 -152.609 855.867 -153.678 813.96 -140.193C739.253 -116.132 686.078 -49.4379 650.382 20.3916C614.662 90.2324 591.71 166.357 551.773 233.866C529.679 271.225 499.063 307.861 456.677 317.34C405.802 328.715 354.749 297.114 319.332 258.843C283.914 220.572 257.048 174.217 216.659 141.238C134.576 74.2284 10.5057 78.1261 -82.8022 128.209C-176.11 178.291 -243.158 266.318 -295.571 358.283" stroke="url(#paint1_linear_3071_9670)" stroke-width="0.8669" stroke-miterlimit="10"/>
</g>
</g>
<defs>
<linearGradient id="paint0_linear_3071_9670" x1="-278.49" y1="403.448" x2="1173.46" y2="-164.08" gradientUnits="userSpaceOnUse">
<stop stop-color="#E4F1FC"/>
<stop offset="0.2294" stop-color="#9ADCFF"/>
<stop offset="0.711" stop-color="#5EBEF1"/>
<stop offset="1" stop-color="#0577B4"/>
</linearGradient>
<linearGradient id="paint1_linear_3071_9670" x1="813.549" y1="14.181" x2="11.3738" y2="229.526" gradientUnits="userSpaceOnUse">
<stop stop-color="#171517"/>
<stop offset="0.340467" stop-color="#171517" stop-opacity="0.75"/>
<stop offset="1" stop-color="#171517"/>
</linearGradient>
<clipPath id="clip0_3071_9670">
<rect width="394" height="430" fill="white"/>
</clipPath>
</defs>
</svg>
