<svg width="1512" height="857" viewBox="0 0 1512 857" fill="none" xmlns="http://www.w3.org/2000/svg">
<g clip-path="url(#clip0_1463_9774)">
<g opacity="0.54">
<path d="M1972.99 52.5164C1993.8 120.794 1938.59 194.017 1870.9 216.635C1803.2 239.283 1728.94 223.965 1660.64 203.059C1592.33 182.185 1523.97 155.611 1452.58 156.019C1304.82 156.892 1184.72 270.081 1084.48 378.465C984.247 486.85 873.435 605.328 726.668 622.532C611.597 636.003 500.092 583.214 385.632 565.158C185.832 533.622 -28.0518 617.092 -153.402 775.603M1971.69 33.3003C1992.53 101.485 1937.94 174.728 1870.64 198.015C1864.64 200.111 1858.54 201.862 1852.43 203.393C1790.08 218.685 1723.04 205.121 1660.83 186.849C1648.81 183.325 1636.8 179.625 1624.78 175.924C1568.36 158.527 1511.52 141.117 1452.75 141.766C1433.71 141.962 1415.1 144.037 1396.94 147.719C1274.47 172.49 1172.6 270.657 1086.14 365.604C1079.86 372.514 1073.55 379.444 1067.19 386.394C973.027 489.267 868.981 593.508 734.002 614.469C695.396 620.458 656.844 620.116 617.715 614.298C571.519 607.45 525.492 593.295 480.17 579.893C449.226 570.747 418.438 561.939 387.255 555.722C372.596 552.8 357.813 550.499 342.925 548.861C248.148 538.388 149.675 555.146 61.3897 593.876C-27.1068 632.703 -105.601 693.153 -164.831 769.453M1970.39 14.084C1991.29 82.2188 1937.33 155.451 1870.42 179.406C1864.43 181.545 1858.38 183.38 1852.28 184.953C1790.24 200.849 1723.27 188.121 1660.99 170.628C1648.96 167.239 1636.96 163.684 1624.92 160.118C1568.47 143.377 1511.57 126.506 1452.9 127.471C1433.88 127.783 1415.29 129.899 1397.15 133.655C1274.74 158.907 1173.34 257.214 1087.75 352.689C1081.53 359.622 1075.27 366.606 1069 373.59C975.926 477.04 873.713 580.695 741.235 606.298C702.529 613.794 663.625 616.024 623.378 610.951C575.81 604.964 528.375 589.483 482.535 574.345C451.253 564.022 420.322 553.793 388.858 546.244C374.041 542.702 359.131 539.793 343.99 537.606C247.655 523.645 145.335 540.07 54.6329 580.399C-36.2692 620.794 -115.996 684.297 -176.241 763.345M1969.12 -5.12095C1990.05 62.9212 1936.76 136.185 1870.21 160.766C1864.27 162.959 1858.25 164.879 1852.18 166.494C1790.4 183.013 1723.54 171.132 1661.19 154.387C1649.17 151.144 1637.12 147.744 1625.1 144.324C1568.61 128.238 1511.69 111.918 1453.08 113.187C1434.1 113.583 1415.55 115.785 1397.43 119.583C1275.13 145.297 1174.18 243.733 1089.43 339.766C1083.27 346.753 1077.09 353.771 1070.88 360.777C978.887 464.836 878.442 567.985 748.56 598.161C709.712 607.184 670.51 611.935 629.113 607.595C580.162 602.501 531.331 585.663 484.984 568.759C453.333 557.246 422.302 545.577 390.545 536.727C375.613 532.547 360.504 529.037 345.14 526.311C247.247 508.864 141.091 524.925 47.9724 566.852C-45.3467 608.846 -126.296 675.371 -187.586 757.156M1967.83 -24.3679C1988.79 43.6124 1936.13 116.865 1869.99 142.127C1864.06 144.393 1858.11 146.335 1852.07 148.036C1790.59 165.188 1723.82 154.112 1661.4 138.115C1649.36 135.038 1637.33 131.753 1625.27 128.457C1568.75 113.026 1511.76 97.2769 1453.22 98.8194C1434.27 99.3309 1415.74 101.574 1397.65 105.457C1275.44 131.622 1174.98 230.24 1091.03 326.778C1084.93 333.788 1078.8 340.86 1072.68 347.931C981.766 452.566 883.04 555.438 755.804 589.96C716.834 600.551 677.271 607.8 634.768 604.175C584.402 599.962 534.206 581.777 487.341 563.138C455.363 550.417 424.177 537.358 392.109 527.165C377.05 522.376 361.741 518.266 346.135 514.96C246.696 493.994 136.682 509.753 41.1571 553.248C-54.5677 596.809 -136.75 666.388 -199.086 750.91M1966.53 -43.5842C1987.55 24.3149 1935.5 97.6191 1869.77 123.518C1863.89 125.838 1857.94 127.854 1851.93 129.596C1790.73 147.383 1724.05 137.112 1661.56 121.893C1649.51 118.951 1637.46 115.802 1625.41 112.652C1568.87 97.8755 1511.81 82.6663 1453.37 84.5242C1434.46 85.1204 1415.97 87.4484 1397.86 91.3929C1275.71 118.039 1175.74 216.767 1092.63 313.864C1086.58 320.927 1080.56 328.002 1074.49 335.127C984.665 440.339 887.631 543.099 763.057 581.831C723.89 593.999 684.082 603.719 640.449 600.87C588.711 597.518 537.109 578.007 489.694 557.621C457.347 543.712 426.019 529.231 393.7 517.718C378.484 512.309 363.048 507.592 347.188 503.735C246.192 479.282 132.342 494.677 34.4006 539.771C-63.7104 584.942 -147.145 657.532 -210.526 744.79M1965.23 -62.8003C1986.27 5.03713 1934.89 78.3418 1869.51 104.898C1863.68 107.272 1857.75 109.36 1851.78 111.157C1790.86 129.536 1724.28 120.142 1661.76 105.652C1649.69 102.845 1637.65 99.8726 1625.59 96.8576C1569.02 82.7057 1511.93 68.0785 1453.55 70.2406C1434.67 70.9521 1416.18 73.3534 1398.13 77.3515C1276.06 104.448 1176.55 203.347 1094.3 300.972C1088.31 308.058 1082.35 315.187 1076.36 322.346C987.626 428.135 892.228 530.937 770.382 573.694C731.04 587.481 690.956 599.661 646.185 597.514C593.064 595.055 540.066 574.187 492.144 552.035C459.458 536.948 427.988 521.046 395.388 508.201C380.056 502.153 364.42 496.836 348.307 492.429C245.752 464.489 128.056 479.551 27.7089 526.213C-72.8077 572.952 -157.475 648.595 -221.902 738.59M1963.96 -82.0052C1985.07 -14.2491 1934.28 59.0646 1869.33 86.2703C1863.52 88.6861 1857.63 90.8285 1851.68 92.6978C1791.05 111.711 1724.56 103.123 1661.96 89.4111C1649.91 86.7505 1637.82 83.9013 1625.78 81.0327C1569.15 67.5245 1512.01 53.4794 1453.74 55.9261C1434.9 56.7222 1416.42 59.1965 1398.41 63.2793C1276.42 90.8261 1177.38 189.866 1095.98 288.049C1090.08 295.2 1084.17 302.352 1078.25 309.534C990.599 415.899 896.871 518.933 777.708 565.558C738.166 581.025 697.84 595.572 651.909 594.19C597.404 592.623 543.011 570.397 494.57 546.51C461.516 530.234 429.933 512.923 397.022 498.734C381.533 492.067 365.769 486.141 349.402 481.185C245.302 449.726 123.759 464.456 20.9946 512.716C-81.9391 561.054 -167.828 639.72 -233.27 732.462M1962.68 -101.252C1983.81 -33.5887 1933.69 39.7565 1869.09 67.6194C1863.31 70.1197 1857.45 72.3045 1851.54 74.2275C1791.17 93.8641 1724.82 86.1341 1662.13 73.1587C1650.05 70.664 1637.98 67.9612 1625.92 65.2275C1569.26 52.3745 1512.07 38.8689 1453.89 41.631C1435.06 42.5004 1416.65 45.0708 1398.62 49.1844C1276.73 77.224 1178.14 176.392 1097.6 275.104C1091.76 282.278 1085.9 289.483 1080.06 296.73C993.529 403.684 901.438 507.041 784.971 557.398C745.219 574.578 704.621 591.48 657.614 590.823C601.737 590.118 545.936 566.565 496.977 540.943C463.585 523.49 431.871 504.726 398.678 489.206C383.062 481.931 367.111 475.374 350.521 469.879C244.863 434.933 119.504 449.342 14.3032 499.158C-91.0361 549.063 -178.169 630.813 -244.645 726.261M1961.38 -120.469C1982.57 -52.8553 1933.04 20.4679 1868.86 49.0109C1863.11 51.5535 1857.28 53.8228 1851.42 55.7995C1791.36 76.0396 1725.09 69.1453 1662.33 56.9177C1650.24 54.5579 1638.15 51.9901 1626.08 49.3913C1569.39 37.1934 1512.17 24.2389 1454.06 27.3051C1435.25 28.2899 1416.86 30.9025 1398.87 35.1008C1277.06 63.5907 1178.94 162.9 1099.22 262.158C1093.44 269.355 1087.66 276.625 1081.89 283.895C996.439 391.425 906.021 495.295 792.246 549.208C752.303 568.141 711.444 587.368 663.288 587.444C606.027 587.632 548.819 562.753 499.322 535.353C465.573 516.68 433.736 496.538 400.231 479.675C384.5 471.76 368.348 464.603 351.505 458.559C244.3 420.094 115.095 434.17 7.47649 485.585C-100.268 537.058 -188.665 621.85 -256.156 720.046M1960.08 -139.685C1981.3 -72.1641 1932.42 1.22149 1868.65 30.3713C1862.95 32.9676 1857.17 35.2907 1851.29 37.3292C1791.49 58.1922 1725.32 52.1451 1662.5 40.6653C1650.42 38.4518 1638.33 36.0188 1626.24 33.555C1569.53 21.9813 1512.22 9.62835 1454.22 12.9792C1435.45 14.0486 1417.1 16.7458 1399.12 21.0172C1277.38 49.9576 1179.75 149.407 1100.87 249.224C1095.14 256.474 1089.42 263.768 1083.74 271.072C999.381 379.179 910.652 483.707 799.541 541.06C759.396 561.778 718.298 583.267 668.993 584.078C610.349 585.158 551.745 558.921 501.741 529.755C467.622 509.893 435.673 488.341 401.887 470.146C385.998 461.612 369.72 453.847 352.623 447.253C243.861 405.301 110.809 419.044 0.773441 472.057C-109.389 525.129 -199.007 612.944 -267.544 713.876M1958.81 -158.89C1980.09 -91.4194 1931.84 -18.0443 1868.42 11.7627C1862.76 14.4436 1857 16.8089 1851.17 18.9011C1791.66 40.3985 1725.59 35.1563 1662.73 24.4356C1650.64 22.3571 1638.52 20.0899 1626.44 17.7724C1569.7 6.85389 1512.34 -4.95957 1454.4 -1.30459C1435.66 -0.11974 1417.33 2.61989 1399.35 6.96444C1277.69 36.3861 1180.56 135.987 1102.51 236.32C1096.84 243.594 1091.21 250.952 1085.57 258.31C1002.3 366.994 915.329 472.277 806.824 532.943C766.496 555.488 725.129 579.229 674.706 580.784C614.69 582.726 554.679 555.163 504.156 524.261C469.699 503.222 437.608 480.249 403.541 460.722C387.537 451.549 371.058 443.184 353.708 436.04C243.388 390.601 106.489 404.011 -5.95218 458.592C-118.52 513.231 -209.371 604.099 -278.954 707.768M1957.52 -178.137C1978.83 -110.759 1931.21 -37.3638 1868.21 -6.87673C1862.57 -4.15356 1856.85 -1.70366 1851.03 0.461673C1791.81 22.5935 1725.81 18.1869 1662.89 8.21402C1650.77 6.30127 1638.68 4.14956 1626.59 1.96697C1569.82 -8.29637 1512.43 -19.5585 1454.55 -15.5995C1435.85 -14.33 1417.51 -11.4865 1399.59 -7.08828C1278 22.7838 1181.35 122.525 1104.15 223.417C1098.53 230.744 1092.96 238.125 1087.42 245.518C1005.22 354.809 920.065 460.974 814.108 524.826C773.585 549.229 731.94 575.148 680.399 577.448C618.999 580.283 557.593 551.362 506.521 518.713C471.695 496.485 439.472 472.061 405.113 451.233C388.951 441.44 372.315 432.455 354.742 424.773C242.875 375.815 102.13 388.893 -12.7282 445.072C-127.713 501.31 -219.786 595.201 -290.383 701.618M1956.22 -197.353C1977.59 -130.026 1930.6 -56.6409 1867.95 -25.4967C1862.36 -22.7198 1856.66 -20.2276 1850.88 -17.9777C1791.94 4.74617 1726.05 1.1868 1663.06 -8.03831C1650.93 -9.81614 1638.84 -11.7907 1626.75 -13.8692C1569.94 -23.4775 1512.48 -34.1691 1454.71 -29.9253C1436.05 -28.5713 1417.75 -25.6431 1399.84 -21.1717C1278.36 9.16227 1182.14 109.063 1105.8 210.483C1100.27 217.844 1094.75 225.279 1089.27 232.694C1008.16 342.562 924.863 449.693 821.383 516.635C780.716 542.95 738.764 571.036 686.073 574.069C623.29 577.797 560.488 547.519 508.908 513.104C473.756 489.668 441.379 463.853 406.739 441.693C390.45 431.292 373.645 421.719 355.829 413.456C242.405 361.011 97.8127 373.755 -19.4508 431.503C-136.841 489.308 -230.147 586.252 -301.79 695.406M1954.95 -216.558C1976.35 -149.323 1930.02 -75.9068 1867.77 -44.1248C1862.23 -41.2942 1856.54 -38.7288 1850.81 -36.4252C1792.16 -13.0669 1726.35 -15.7906 1663.29 -24.2679C1651.18 -25.8994 1639.04 -27.7504 1626.92 -29.6631C1570.07 -38.6585 1512.57 -48.7683 1454.89 -44.209C1436.25 -42.7396 1417.98 -39.7691 1400.08 -35.2554C1278.69 -4.47101 1182.94 95.5704 1107.42 197.537C1101.94 204.952 1096.48 212.41 1091.09 219.86C1011.07 330.304 929.658 438.517 828.646 508.476C787.825 536.733 745.586 566.924 691.778 570.703C627.622 575.292 563.444 543.698 511.315 507.537C475.794 482.912 443.305 455.687 408.353 432.184C391.949 421.145 374.944 410.971 356.875 402.158C241.893 346.226 93.4651 358.606 -26.2154 417.952C-146.023 477.357 -240.55 577.323 -313.238 689.213M1953.65 -235.774C1975.1 -168.59 1929.38 -95.1955 1867.55 -62.7334C1862.01 -59.8297 1856.37 -57.2104 1850.66 -54.8645C1792.27 -30.8833 1726.58 -32.7908 1663.48 -40.478C1651.35 -41.9746 1639.23 -43.6793 1627.1 -45.4571C1570.21 -53.7973 1512.69 -63.3559 1455.07 -58.4926C1436.47 -56.9386 1418.24 -53.8836 1400.35 -49.2967C1279.02 -18.031 1183.75 82.1507 1109.09 184.645C1103.67 192.083 1098.3 199.575 1092.96 207.109C1014.02 318.131 934.592 427.532 835.961 500.37C795.045 530.593 752.448 562.897 697.491 567.409C631.952 572.89 566.377 539.94 513.73 502.043C477.871 476.24 445.239 447.595 410.006 422.76C393.444 411.101 376.313 400.319 357.99 390.956C241.462 331.506 89.1758 343.584 -32.9104 404.498C-155.123 465.47 -250.884 568.49 -324.618 683.117M1952.36 -255.021C1973.85 -187.929 1928.77 -114.473 1867.3 -81.3841C1861.82 -78.4267 1856.23 -75.7539 1850.53 -73.3348C1792.43 -48.7192 1726.83 -49.8219 1663.66 -56.7614C1651.51 -58.0922 1639.37 -59.662 1627.26 -61.2935C1570.34 -68.9785 1512.74 -77.9666 1455.23 -72.8186C1436.66 -71.1491 1418.45 -68.0518 1400.6 -63.3804C1279.35 -31.6643 1184.55 68.6579 1110.74 171.711C1105.37 179.203 1100.07 186.717 1094.81 194.286C1016.96 305.884 939.549 416.486 843.255 492.222C802.266 524.453 759.271 558.785 703.195 564.042C636.273 570.416 569.303 536.108 516.107 496.465C479.878 469.473 447.146 439.387 411.62 413.251C394.943 400.953 377.612 389.571 359.066 379.67C240.98 316.732 84.8589 328.447 -39.6443 390.959C-164.274 453.53 -261.256 559.572 -336.036 676.936M1951.06 -274.237C1972.57 -207.207 1928.16 -133.75 1867.09 -100.024C1861.63 -97.0242 1856.08 -94.2665 1850.39 -91.8052C1792.6 -66.586 1727.06 -66.8221 1663.83 -73.0138C1651.66 -74.2097 1639.54 -75.6332 1627.41 -77.1298C1570.46 -84.1597 1512.81 -92.6081 1455.39 -87.1447C1436.86 -85.3906 1418.65 -82.2201 1400.81 -77.4755C1279.65 -45.3089 1185.32 55.1536 1112.35 158.765C1107.05 166.28 1101.83 173.86 1096.63 181.451C1019.87 293.626 944.588 405.505 850.53 484.032C809.487 518.313 766.094 554.673 708.912 560.644C640.617 567.88 572.24 532.245 518.537 490.836C481.97 462.667 449.095 431.16 413.258 403.681C396.423 390.763 378.934 378.761 360.134 368.31C240.502 301.854 80.5227 313.267 -46.3862 377.347C-173.422 441.486 -271.636 550.581 -347.431 670.693M1949.79 -293.442C1971.37 -226.493 1927.55 -153.027 1866.87 -118.632C1861.44 -115.548 1855.91 -112.748 1850.27 -110.233C1792.74 -84.3912 1727.33 -83.8109 1664.03 -89.2549C1651.88 -90.3044 1639.7 -91.5735 1627.6 -92.9546C1570.62 -99.3294 1512.94 -107.226 1455.55 -101.47C1437.06 -99.6317 1418.88 -96.3457 1401.06 -91.5588C1279.99 -58.8995 1186.11 41.6918 1114 145.831C1108.75 153.4 1103.59 161.002 1098.49 168.628C1022.81 281.379 949.666 394.609 857.825 475.884C816.758 512.226 772.948 550.573 714.605 557.308C644.927 565.437 575.143 528.475 520.932 485.3C484.008 455.911 450.979 423.013 414.903 394.183C397.941 380.657 380.295 368.036 361.242 357.035C240.021 287.08 76.2367 298.141 -53.1006 363.851C-182.542 429.557 -281.99 541.706 -358.83 664.554M1948.49 -312.658C1970.09 -245.771 1926.94 -172.304 1866.64 -137.241C1861.27 -134.103 1855.76 -131.261 1850.16 -128.661C1792.92 -102.185 1727.58 -100.769 1664.22 -105.465C1652.05 -106.38 1639.89 -107.502 1627.73 -108.729C1570.73 -114.479 1512.97 -121.775 1455.68 -115.704C1437.22 -113.75 1419.06 -110.421 1401.29 -105.581C1280.3 -72.4712 1186.92 28.2721 1115.6 132.947C1110.44 140.55 1105.3 148.195 1100.25 155.874C1025.66 269.202 954.751 383.785 865.035 467.775C824.006 506.201 779.706 546.542 720.225 553.98C649.164 563.001 577.984 524.682 523.254 479.771C485.961 449.194 452.821 414.887 416.463 384.725C399.356 370.548 381.54 357.338 362.233 345.788C239.455 272.345 71.824 283.074 -59.919 350.351C-191.777 417.655 -292.477 532.816 -370.332 658.412M1947.2 -331.906C1968.87 -265.1 1926.35 -191.613 1866.43 -155.88C1861.07 -152.7 1855.6 -149.774 1850.02 -147.132C1793.06 -120.063 1727.83 -117.8 1664.42 -121.706C1652.23 -122.455 1640.06 -123.473 1627.92 -124.554C1570.89 -129.649 1513.07 -136.405 1455.87 -130.018C1437.45 -127.98 1419.33 -124.567 1401.56 -119.653C1280.66 -86.0929 1187.75 14.8216 1117.28 120.025C1112.17 127.681 1107.12 135.36 1102.13 143.062C1028.66 256.979 960.026 372.927 872.372 459.607C831.382 500.118 786.571 542.411 725.992 550.636C653.558 560.519 580.971 520.873 525.704 474.185C488.073 442.43 454.789 406.702 418.12 375.197C400.886 360.412 382.881 346.571 363.352 334.482C239.027 257.521 67.5494 267.917 -66.6106 336.793C-200.875 405.665 -302.819 523.909 -381.708 652.211M1945.9 -351.122C1967.59 -284.378 1925.69 -210.87 1866.18 -174.531C1860.88 -171.297 1855.42 -168.298 1849.89 -165.602C1793.22 -137.899 1728.07 -134.8 1664.61 -137.989C1652.4 -138.603 1640.24 -139.445 1628.08 -140.39C1570.99 -144.842 1513.17 -151.035 1456.03 -144.344C1437.64 -142.19 1419.54 -138.735 1401.78 -133.748C1280.94 -99.7064 1188.52 1.3174 1118.9 107.079C1113.85 114.758 1108.85 122.491 1103.96 130.227C1031.56 244.751 965.289 362.099 879.636 451.448C838.734 494.096 793.383 538.33 731.665 547.258C657.848 558.033 583.866 517.03 528.08 468.606C490.08 435.663 456.696 398.494 419.734 365.688C402.373 350.295 384.211 335.834 364.428 323.196C238.546 242.748 63.2522 252.822 -73.3444 323.254C-210.026 393.725 -313.191 514.992 -393.126 646.03M1944.63 -370.327C1966.39 -303.664 1925.11 -230.136 1865.99 -193.129C1860.69 -189.821 1855.29 -186.799 1849.8 -184.019C1793.43 -155.681 1728.36 -151.777 1664.83 -154.188C1652.63 -154.656 1640.43 -155.374 1628.29 -156.173C1571.16 -159.969 1513.28 -165.623 1456.25 -158.616C1437.89 -156.378 1419.79 -152.849 1402.08 -147.778C1281.32 -113.286 1189.36 -12.0908 1120.6 94.1984C1115.6 101.931 1110.69 109.698 1105.86 117.457C1034.55 232.559 970.737 351.339 886.992 443.322C846.222 488.09 800.298 534.252 737.42 543.944C662.189 555.601 586.842 513.252 530.537 463.093C492.211 428.941 458.673 390.382 421.399 356.233C403.892 340.189 385.561 325.14 365.524 311.952C238.084 228.016 58.9549 237.727 -80.0588 309.757C-219.146 381.796 -323.544 506.116 -404.494 639.902M1943.33 -389.543C1965.11 -322.942 1924.5 -249.413 1865.73 -211.749C1860.49 -208.388 1855.13 -205.28 1849.63 -202.469C1793.51 -173.509 1728.56 -168.758 1664.96 -170.452C1652.76 -170.785 1640.56 -171.325 1628.41 -172.02C1571.27 -175.192 1513.31 -180.245 1456.38 -172.954C1438.05 -170.599 1420 -167.018 1402.29 -161.873C1281.64 -126.919 1190.13 -25.595 1122.22 81.2528C1117.28 89.0085 1112.43 96.8293 1107.67 104.654C1037.45 220.331 976.105 340.515 894.244 435.194C853.655 482.133 807.099 530.202 743.114 540.608C666.511 553.127 589.756 509.451 532.902 457.546C494.206 422.205 460.557 382.236 423.002 346.755C405.368 330.103 386.868 314.465 366.589 300.696C237.602 213.243 54.615 222.651 -86.8043 296.249C-228.277 369.898 -333.928 497.229 -415.923 633.752M1942.04 -408.79C1963.89 -342.27 1923.87 -268.733 1865.53 -230.419C1860.34 -227.004 1854.98 -223.824 1849.53 -220.959C1793.72 -191.395 1728.85 -185.809 1665.21 -186.712C1652.99 -186.91 1640.77 -187.316 1628.6 -187.845C1571.42 -190.362 1513.44 -194.864 1456.57 -187.268C1438.28 -184.83 1420.24 -181.174 1402.54 -175.956C1281.96 -140.522 1190.93 -39.0878 1123.87 68.3186C1118.98 76.128 1114.22 83.9831 1109.53 91.8301C1040.39 208.085 981.607 329.705 901.52 427.004C861.123 476.084 813.891 526.079 748.788 537.23C670.801 550.641 592.65 505.608 535.29 451.936C496.256 415.418 462.464 374.028 424.628 337.215C406.847 319.913 388.178 303.686 367.645 289.368C237.101 198.426 50.2787 207.471 -93.5576 282.668C-237.436 357.884 -344.32 488.269 -427.361 627.528M1940.74 -428.006C1962.61 -361.548 1923.26 -288.01 1865.28 -249.039C1860.09 -245.551 1854.8 -242.348 1849.34 -239.379C1793.79 -209.192 1729.03 -202.759 1665.32 -202.914C1653.11 -202.935 1640.89 -203.237 1628.7 -203.631C1571.5 -205.493 1513.45 -209.455 1456.64 -201.555C1438.39 -199.032 1420.38 -195.261 1402.72 -190.032C1282.21 -154.147 1191.65 -52.5418 1125.41 55.381C1120.59 63.2132 1115.89 71.0911 1111.28 79.0032C1043.23 195.835 987.047 318.872 908.71 418.852C868.557 470.128 820.64 521.975 754.388 533.86C675.018 548.163 595.472 501.773 537.592 446.366C498.19 408.659 464.266 365.817 426.138 327.703C408.231 309.793 389.373 292.935 368.618 278.078C236.527 183.618 45.8466 192.361 -100.438 269.145C-246.722 345.929 -354.839 479.368 -438.925 621.363M1939.47 -447.211C1961.41 -380.834 1922.64 -307.256 1865.08 -267.636C1859.95 -264.095 1854.66 -260.818 1849.26 -257.795C1794 -226.974 1729.32 -219.736 1665.56 -219.144C1653.32 -219.03 1641.08 -219.165 1628.92 -219.444C1571.68 -220.651 1513.57 -224.042 1456.87 -215.858C1438.64 -213.219 1420.65 -209.407 1403.02 -204.093C1282.6 -167.757 1192.51 -66.0117 1127.12 42.4697C1122.38 50.367 1117.74 58.2677 1113.19 66.2336C1046.22 183.642 992.685 308.077 916.066 410.727C876.168 464.167 827.545 517.928 760.174 530.558C679.432 545.723 598.479 498.006 540.081 440.864C500.34 401.979 466.274 357.716 427.864 318.271C409.831 299.752 390.815 282.275 369.806 266.868C236.158 168.921 41.6305 177.331 -107.06 255.683C-255.761 334.066 -365.099 470.526 -450.231 615.259M1938.17 -466.427C1960.13 -400.112 1922.03 -326.533 1864.86 -286.245C1859.74 -282.661 1854.5 -279.3 1849.14 -276.224C1794.16 -244.811 1729.59 -236.725 1665.75 -235.354C1653.5 -235.105 1641.27 -235.094 1629.09 -235.208C1571.82 -235.759 1513.67 -238.599 1457.04 -230.111C1438.85 -227.388 1420.87 -223.502 1403.25 -218.115C1282.91 -181.328 1193.31 -79.4005 1128.75 29.5972C1124.07 37.5174 1119.48 45.4717 1115.02 53.4718C1049.14 171.457 998.322 297.282 923.338 402.641C883.757 458.268 834.345 513.878 765.856 527.253C683.73 543.311 601.37 494.267 542.446 435.316C502.347 395.212 468.158 349.57 429.436 308.781C411.256 289.613 392.072 271.546 370.809 255.59C235.603 154.155 37.2407 162.202 -113.866 242.152C-264.973 322.103 -375.545 461.617 -461.722 609.086M1936.89 -485.674C1958.9 -419.44 1921.43 -345.842 1864.63 -304.926C1859.56 -301.289 1854.33 -297.885 1848.99 -294.736C1794.3 -262.688 1729.81 -253.767 1665.91 -251.68C1653.65 -251.295 1641.39 -251.119 1629.24 -251.117C1571.92 -251.056 1513.73 -253.314 1457.19 -244.51C1439.03 -241.671 1421.1 -237.731 1403.49 -232.271C1283.24 -194.992 1194.1 -92.9664 1130.39 16.5899C1125.76 24.5638 1121.27 32.5523 1116.86 40.5752C1052.07 159.137 1004.02 286.333 930.636 394.389C891.371 452.202 841.191 509.705 771.553 523.813C688.044 540.763 604.287 490.362 544.845 429.676C504.377 388.383 470.076 341.332 431.073 299.211C412.767 279.434 393.394 260.737 371.908 244.242C235.156 139.289 32.9352 147.034 -120.578 228.552C-274.102 310.101 -385.894 452.637 -473.087 602.854M1935.62 -504.879C1957.66 -438.707 1920.82 -365.119 1864.43 -323.524C1859.4 -319.802 1854.2 -316.356 1848.9 -313.153C1794.5 -280.471 1730.1 -270.745 1666.16 -267.867C1653.9 -267.306 1641.64 -267.025 1629.43 -266.869C1572.08 -266.152 1513.83 -267.84 1457.39 -258.752C1439.27 -255.828 1421.35 -251.815 1403.77 -246.27C1283.61 -208.541 1194.93 -106.344 1132.08 3.74033C1127.51 11.737 1123.07 19.7792 1118.76 27.8364C1055.06 146.975 1009.8 275.522 937.97 386.325C899.095 446.318 848.084 505.689 777.328 520.542C692.446 538.354 607.283 486.626 547.322 424.205C506.516 381.734 472.072 333.262 432.8 289.779C414.336 269.382 394.836 250.077 373.097 233.032C234.787 124.592 28.7306 131.973 -127.199 215.089C-283.129 298.206 -396.154 443.796 -484.392 596.75M1934.32 -524.095C1956.39 -458.016 1920.21 -384.396 1864.18 -342.144C1859.17 -338.379 1854.03 -334.838 1848.73 -331.604C1794.59 -298.299 1730.3 -287.725 1666.3 -284.131C1654.03 -283.435 1641.75 -283.02 1629.56 -282.716C1572.18 -281.345 1513.89 -282.481 1457.52 -273.089C1439.41 -270.092 1421.56 -265.983 1403.97 -260.408C1283.89 -222.228 1195.69 -119.89 1133.65 -9.25919C1129.13 -1.20877 1124.78 6.86797 1120.52 14.9788C1057.89 134.725 1015.46 264.561 945.183 378.112C906.698 440.284 854.845 501.554 782.94 517.141C696.675 535.846 610.116 482.76 549.636 418.604C508.461 374.944 473.917 325.031 434.321 280.236C415.742 259.2 396.042 239.294 374.049 221.7C234.182 109.772 24.2788 116.82 -134.057 201.505C-292.403 286.22 -406.681 434.821 -495.934 590.523M1933.02 -543.312C1957.12 -471.396 1912.8 -390.469 1848.61 -350.032C1784.44 -309.626 1705.58 -301.169 1629.73 -298.51C1553.89 -295.851 1476.41 -297.693 1404.21 -274.46C1275.5 -233.008 1183.89 -118.106 1122.39 2.19769C1060.85 122.521 1021.31 253.668 952.509 369.976C914.444 434.338 861.699 497.454 788.675 513.785C701.027 533.383 613.072 478.94 552.054 413.006C491.036 347.072 444.752 267.211 375.168 210.394C233.754 94.9485 20.0043 101.664 -140.748 187.947C-301.501 274.23 -417.011 425.884 -507.31 584.322" stroke="url(#paint0_linear_1463_9774)" stroke-width="0.8669" stroke-miterlimit="10"/>
<path d="M1972.99 52.5164C1993.8 120.794 1938.59 194.017 1870.9 216.635C1803.2 239.283 1728.94 223.965 1660.64 203.059C1592.33 182.185 1523.97 155.611 1452.58 156.019C1304.82 156.892 1184.72 270.081 1084.48 378.465C984.247 486.85 873.435 605.328 726.668 622.532C611.597 636.003 500.092 583.214 385.632 565.158C185.832 533.622 -28.0518 617.092 -153.402 775.603M1971.69 33.3003C1992.53 101.485 1937.94 174.728 1870.64 198.015C1864.64 200.111 1858.54 201.862 1852.43 203.393C1790.08 218.685 1723.04 205.121 1660.83 186.849C1648.81 183.325 1636.8 179.625 1624.78 175.924C1568.36 158.527 1511.52 141.117 1452.75 141.766C1433.71 141.962 1415.1 144.037 1396.94 147.719C1274.47 172.49 1172.6 270.657 1086.14 365.604C1079.86 372.514 1073.55 379.444 1067.19 386.394C973.027 489.267 868.981 593.508 734.002 614.469C695.396 620.458 656.844 620.116 617.715 614.298C571.519 607.45 525.492 593.295 480.17 579.893C449.226 570.747 418.438 561.939 387.255 555.722C372.596 552.8 357.813 550.499 342.925 548.861C248.148 538.388 149.675 555.146 61.3897 593.876C-27.1068 632.703 -105.601 693.153 -164.831 769.453M1970.39 14.084C1991.29 82.2188 1937.33 155.451 1870.42 179.406C1864.43 181.545 1858.38 183.38 1852.28 184.953C1790.24 200.849 1723.27 188.121 1660.99 170.628C1648.96 167.239 1636.96 163.684 1624.92 160.118C1568.47 143.377 1511.57 126.506 1452.9 127.471C1433.88 127.783 1415.29 129.899 1397.15 133.655C1274.74 158.907 1173.34 257.214 1087.75 352.689C1081.53 359.622 1075.27 366.606 1069 373.59C975.926 477.04 873.713 580.695 741.235 606.298C702.529 613.794 663.625 616.024 623.378 610.951C575.81 604.964 528.375 589.483 482.535 574.345C451.253 564.022 420.322 553.793 388.858 546.244C374.041 542.702 359.131 539.793 343.99 537.606C247.655 523.645 145.335 540.07 54.6329 580.399C-36.2692 620.794 -115.996 684.297 -176.241 763.345M1969.12 -5.12095C1990.05 62.9212 1936.76 136.185 1870.21 160.766C1864.27 162.959 1858.25 164.879 1852.18 166.494C1790.4 183.013 1723.54 171.132 1661.19 154.387C1649.17 151.144 1637.12 147.744 1625.1 144.324C1568.61 128.238 1511.69 111.918 1453.08 113.187C1434.1 113.583 1415.55 115.785 1397.43 119.583C1275.13 145.297 1174.18 243.733 1089.43 339.766C1083.27 346.753 1077.09 353.771 1070.88 360.777C978.887 464.836 878.442 567.985 748.56 598.161C709.712 607.184 670.51 611.935 629.113 607.595C580.162 602.501 531.331 585.663 484.984 568.759C453.333 557.246 422.302 545.577 390.545 536.727C375.613 532.547 360.504 529.037 345.14 526.311C247.247 508.864 141.091 524.925 47.9724 566.852C-45.3467 608.846 -126.296 675.371 -187.586 757.156M1967.83 -24.3679C1988.79 43.6124 1936.13 116.865 1869.99 142.127C1864.06 144.393 1858.11 146.335 1852.07 148.036C1790.59 165.188 1723.82 154.112 1661.4 138.115C1649.36 135.038 1637.33 131.753 1625.27 128.457C1568.75 113.026 1511.76 97.2769 1453.22 98.8194C1434.27 99.3309 1415.74 101.574 1397.65 105.457C1275.44 131.622 1174.98 230.24 1091.03 326.778C1084.93 333.788 1078.8 340.86 1072.68 347.931C981.766 452.566 883.04 555.438 755.804 589.96C716.834 600.551 677.271 607.8 634.768 604.175C584.402 599.962 534.206 581.777 487.341 563.138C455.363 550.417 424.177 537.358 392.109 527.165C377.05 522.376 361.741 518.266 346.135 514.96C246.696 493.994 136.682 509.753 41.1571 553.248C-54.5677 596.809 -136.75 666.388 -199.086 750.91M1966.53 -43.5842C1987.55 24.3149 1935.5 97.6191 1869.77 123.518C1863.89 125.838 1857.94 127.854 1851.93 129.596C1790.73 147.383 1724.05 137.112 1661.56 121.893C1649.51 118.951 1637.46 115.802 1625.41 112.652C1568.87 97.8755 1511.81 82.6663 1453.37 84.5242C1434.46 85.1204 1415.97 87.4484 1397.86 91.3929C1275.71 118.039 1175.74 216.767 1092.63 313.864C1086.58 320.927 1080.56 328.002 1074.49 335.127C984.665 440.339 887.631 543.099 763.057 581.831C723.89 593.999 684.082 603.719 640.449 600.87C588.711 597.518 537.109 578.007 489.694 557.621C457.347 543.712 426.019 529.231 393.7 517.718C378.484 512.309 363.048 507.592 347.188 503.735C246.192 479.282 132.342 494.677 34.4006 539.771C-63.7104 584.942 -147.145 657.532 -210.526 744.79M1965.23 -62.8003C1986.27 5.03713 1934.89 78.3418 1869.51 104.898C1863.68 107.272 1857.75 109.36 1851.78 111.157C1790.86 129.536 1724.28 120.142 1661.76 105.652C1649.69 102.845 1637.65 99.8726 1625.59 96.8576C1569.02 82.7057 1511.93 68.0785 1453.55 70.2406C1434.67 70.9521 1416.18 73.3534 1398.13 77.3515C1276.06 104.448 1176.55 203.347 1094.3 300.972C1088.31 308.058 1082.35 315.187 1076.36 322.346C987.626 428.135 892.228 530.937 770.382 573.694C731.04 587.481 690.956 599.661 646.185 597.514C593.064 595.055 540.066 574.187 492.144 552.035C459.458 536.948 427.988 521.046 395.388 508.201C380.056 502.153 364.42 496.836 348.307 492.429C245.752 464.489 128.056 479.551 27.7089 526.213C-72.8077 572.952 -157.475 648.595 -221.902 738.59M1963.96 -82.0052C1985.07 -14.2491 1934.28 59.0646 1869.33 86.2703C1863.52 88.6861 1857.63 90.8285 1851.68 92.6978C1791.05 111.711 1724.56 103.123 1661.96 89.4111C1649.91 86.7505 1637.82 83.9013 1625.78 81.0327C1569.15 67.5245 1512.01 53.4794 1453.74 55.9261C1434.9 56.7222 1416.42 59.1965 1398.41 63.2793C1276.42 90.8261 1177.38 189.866 1095.98 288.049C1090.08 295.2 1084.17 302.352 1078.25 309.534C990.599 415.899 896.871 518.933 777.708 565.558C738.166 581.025 697.84 595.572 651.909 594.19C597.404 592.623 543.011 570.397 494.57 546.51C461.516 530.234 429.933 512.923 397.022 498.734C381.533 492.067 365.769 486.141 349.402 481.185C245.302 449.726 123.759 464.456 20.9946 512.716C-81.9391 561.054 -167.828 639.72 -233.27 732.462M1962.68 -101.252C1983.81 -33.5887 1933.69 39.7565 1869.09 67.6194C1863.31 70.1197 1857.45 72.3045 1851.54 74.2275C1791.17 93.8641 1724.82 86.1341 1662.13 73.1587C1650.05 70.664 1637.98 67.9612 1625.92 65.2275C1569.26 52.3745 1512.07 38.8689 1453.89 41.631C1435.06 42.5004 1416.65 45.0708 1398.62 49.1844C1276.73 77.224 1178.14 176.392 1097.6 275.104C1091.76 282.278 1085.9 289.483 1080.06 296.73C993.529 403.684 901.438 507.041 784.971 557.398C745.219 574.578 704.621 591.48 657.614 590.823C601.737 590.118 545.936 566.565 496.977 540.943C463.585 523.49 431.871 504.726 398.678 489.206C383.062 481.931 367.111 475.374 350.521 469.879C244.863 434.933 119.504 449.342 14.3032 499.158C-91.0361 549.063 -178.169 630.813 -244.645 726.261M1961.38 -120.469C1982.57 -52.8553 1933.04 20.4679 1868.86 49.0109C1863.11 51.5535 1857.28 53.8228 1851.42 55.7995C1791.36 76.0396 1725.09 69.1453 1662.33 56.9177C1650.24 54.5579 1638.15 51.9901 1626.08 49.3913C1569.39 37.1934 1512.17 24.2389 1454.06 27.3051C1435.25 28.2899 1416.86 30.9025 1398.87 35.1008C1277.06 63.5907 1178.94 162.9 1099.22 262.158C1093.44 269.355 1087.66 276.625 1081.89 283.895C996.439 391.425 906.021 495.295 792.246 549.208C752.303 568.141 711.444 587.368 663.288 587.444C606.027 587.632 548.819 562.753 499.322 535.353C465.573 516.68 433.736 496.538 400.231 479.675C384.5 471.76 368.348 464.603 351.505 458.559C244.3 420.094 115.095 434.17 7.47649 485.585C-100.268 537.058 -188.665 621.85 -256.156 720.046M1960.08 -139.685C1981.3 -72.1641 1932.42 1.22149 1868.65 30.3713C1862.95 32.9676 1857.17 35.2907 1851.29 37.3292C1791.49 58.1922 1725.32 52.1451 1662.5 40.6653C1650.42 38.4518 1638.33 36.0188 1626.24 33.555C1569.53 21.9813 1512.22 9.62835 1454.22 12.9792C1435.45 14.0486 1417.1 16.7458 1399.12 21.0172C1277.38 49.9576 1179.75 149.407 1100.87 249.224C1095.14 256.474 1089.42 263.768 1083.74 271.072C999.381 379.179 910.652 483.707 799.541 541.06C759.396 561.778 718.298 583.267 668.993 584.078C610.349 585.158 551.745 558.921 501.741 529.755C467.622 509.893 435.673 488.341 401.887 470.146C385.998 461.612 369.72 453.847 352.623 447.253C243.861 405.301 110.809 419.044 0.773441 472.057C-109.389 525.129 -199.007 612.944 -267.544 713.876M1958.81 -158.89C1980.09 -91.4194 1931.84 -18.0443 1868.42 11.7627C1862.76 14.4436 1857 16.8089 1851.17 18.9011C1791.66 40.3985 1725.59 35.1563 1662.73 24.4356C1650.64 22.3571 1638.52 20.0899 1626.44 17.7724C1569.7 6.85389 1512.34 -4.95957 1454.4 -1.30459C1435.66 -0.11974 1417.33 2.61989 1399.35 6.96444C1277.69 36.3861 1180.56 135.987 1102.51 236.32C1096.84 243.594 1091.21 250.952 1085.57 258.31C1002.3 366.994 915.329 472.277 806.824 532.943C766.496 555.488 725.129 579.229 674.706 580.784C614.69 582.726 554.679 555.163 504.156 524.261C469.699 503.222 437.608 480.249 403.541 460.722C387.537 451.549 371.058 443.184 353.708 436.04C243.388 390.601 106.489 404.011 -5.95218 458.592C-118.52 513.231 -209.371 604.099 -278.954 707.768M1957.52 -178.137C1978.83 -110.759 1931.21 -37.3638 1868.21 -6.87673C1862.57 -4.15356 1856.85 -1.70366 1851.03 0.461673C1791.81 22.5935 1725.81 18.1869 1662.89 8.21402C1650.77 6.30127 1638.68 4.14956 1626.59 1.96697C1569.82 -8.29637 1512.43 -19.5585 1454.55 -15.5995C1435.85 -14.33 1417.51 -11.4865 1399.59 -7.08828C1278 22.7838 1181.35 122.525 1104.15 223.417C1098.53 230.744 1092.96 238.125 1087.42 245.518C1005.22 354.809 920.065 460.974 814.108 524.826C773.585 549.229 731.94 575.148 680.399 577.448C618.999 580.283 557.593 551.362 506.521 518.713C471.695 496.485 439.472 472.061 405.113 451.233C388.951 441.44 372.315 432.455 354.742 424.773C242.875 375.815 102.13 388.893 -12.7282 445.072C-127.713 501.31 -219.786 595.201 -290.383 701.618M1956.22 -197.353C1977.59 -130.026 1930.6 -56.6409 1867.95 -25.4967C1862.36 -22.7198 1856.66 -20.2276 1850.88 -17.9777C1791.94 4.74617 1726.05 1.1868 1663.06 -8.03831C1650.93 -9.81614 1638.84 -11.7907 1626.75 -13.8692C1569.94 -23.4775 1512.48 -34.1691 1454.71 -29.9253C1436.05 -28.5713 1417.75 -25.6431 1399.84 -21.1717C1278.36 9.16227 1182.14 109.063 1105.8 210.483C1100.27 217.844 1094.75 225.279 1089.27 232.694C1008.16 342.562 924.863 449.693 821.383 516.635C780.716 542.95 738.764 571.036 686.073 574.069C623.29 577.797 560.488 547.519 508.908 513.104C473.756 489.668 441.379 463.853 406.739 441.693C390.45 431.292 373.645 421.719 355.829 413.456C242.405 361.011 97.8127 373.755 -19.4508 431.503C-136.841 489.308 -230.147 586.252 -301.79 695.406M1954.95 -216.558C1976.35 -149.323 1930.02 -75.9068 1867.77 -44.1248C1862.23 -41.2942 1856.54 -38.7288 1850.81 -36.4252C1792.16 -13.0669 1726.35 -15.7906 1663.29 -24.2679C1651.18 -25.8994 1639.04 -27.7504 1626.92 -29.6631C1570.07 -38.6585 1512.57 -48.7683 1454.89 -44.209C1436.25 -42.7396 1417.98 -39.7691 1400.08 -35.2554C1278.69 -4.47101 1182.94 95.5704 1107.42 197.537C1101.94 204.952 1096.48 212.41 1091.09 219.86C1011.07 330.304 929.658 438.517 828.646 508.476C787.825 536.733 745.586 566.924 691.778 570.703C627.622 575.292 563.444 543.698 511.315 507.537C475.794 482.912 443.305 455.687 408.353 432.184C391.949 421.145 374.944 410.971 356.875 402.158C241.893 346.226 93.4651 358.606 -26.2154 417.952C-146.023 477.357 -240.55 577.323 -313.238 689.213M1953.65 -235.774C1975.1 -168.59 1929.38 -95.1955 1867.55 -62.7334C1862.01 -59.8297 1856.37 -57.2104 1850.66 -54.8645C1792.27 -30.8833 1726.58 -32.7908 1663.48 -40.478C1651.35 -41.9746 1639.23 -43.6793 1627.1 -45.4571C1570.21 -53.7973 1512.69 -63.3559 1455.07 -58.4926C1436.47 -56.9386 1418.24 -53.8836 1400.35 -49.2967C1279.02 -18.031 1183.75 82.1507 1109.09 184.645C1103.67 192.083 1098.3 199.575 1092.96 207.109C1014.02 318.131 934.592 427.532 835.961 500.37C795.045 530.593 752.448 562.897 697.491 567.409C631.952 572.89 566.377 539.94 513.73 502.043C477.871 476.24 445.239 447.595 410.006 422.76C393.444 411.101 376.313 400.319 357.99 390.956C241.462 331.506 89.1758 343.584 -32.9104 404.498C-155.123 465.47 -250.884 568.49 -324.618 683.117M1952.36 -255.021C1973.85 -187.929 1928.77 -114.473 1867.3 -81.3841C1861.82 -78.4267 1856.23 -75.7539 1850.53 -73.3348C1792.43 -48.7192 1726.83 -49.8219 1663.66 -56.7614C1651.51 -58.0922 1639.37 -59.662 1627.26 -61.2935C1570.34 -68.9785 1512.74 -77.9666 1455.23 -72.8186C1436.66 -71.1491 1418.45 -68.0518 1400.6 -63.3804C1279.35 -31.6643 1184.55 68.6579 1110.74 171.711C1105.37 179.203 1100.07 186.717 1094.81 194.286C1016.96 305.884 939.549 416.486 843.255 492.222C802.266 524.453 759.271 558.785 703.195 564.042C636.273 570.416 569.303 536.108 516.107 496.465C479.878 469.473 447.146 439.387 411.62 413.251C394.943 400.953 377.612 389.571 359.066 379.67C240.98 316.732 84.8589 328.447 -39.6443 390.959C-164.274 453.53 -261.256 559.572 -336.036 676.936M1951.06 -274.237C1972.57 -207.207 1928.16 -133.75 1867.09 -100.024C1861.63 -97.0242 1856.08 -94.2665 1850.39 -91.8052C1792.6 -66.586 1727.06 -66.8221 1663.83 -73.0138C1651.66 -74.2097 1639.54 -75.6332 1627.41 -77.1298C1570.46 -84.1597 1512.81 -92.6081 1455.39 -87.1447C1436.86 -85.3906 1418.65 -82.2201 1400.81 -77.4755C1279.65 -45.3089 1185.32 55.1536 1112.35 158.765C1107.05 166.28 1101.83 173.86 1096.63 181.451C1019.87 293.626 944.588 405.505 850.53 484.032C809.487 518.313 766.094 554.673 708.912 560.644C640.617 567.88 572.24 532.245 518.537 490.836C481.97 462.667 449.095 431.16 413.258 403.681C396.423 390.763 378.934 378.761 360.134 368.31C240.502 301.854 80.5227 313.267 -46.3862 377.347C-173.422 441.486 -271.636 550.581 -347.431 670.693M1949.79 -293.442C1971.37 -226.493 1927.55 -153.027 1866.87 -118.632C1861.44 -115.548 1855.91 -112.748 1850.27 -110.233C1792.74 -84.3912 1727.33 -83.8109 1664.03 -89.2549C1651.88 -90.3044 1639.7 -91.5735 1627.6 -92.9546C1570.62 -99.3294 1512.94 -107.226 1455.55 -101.47C1437.06 -99.6317 1418.88 -96.3457 1401.06 -91.5588C1279.99 -58.8995 1186.11 41.6918 1114 145.831C1108.75 153.4 1103.59 161.002 1098.49 168.628C1022.81 281.379 949.666 394.609 857.825 475.884C816.758 512.226 772.948 550.573 714.605 557.308C644.927 565.437 575.143 528.475 520.932 485.3C484.008 455.911 450.979 423.013 414.903 394.183C397.941 380.657 380.295 368.036 361.242 357.035C240.021 287.08 76.2367 298.141 -53.1006 363.851C-182.542 429.557 -281.99 541.706 -358.83 664.554M1948.49 -312.658C1970.09 -245.771 1926.94 -172.304 1866.64 -137.241C1861.27 -134.103 1855.76 -131.261 1850.16 -128.661C1792.92 -102.185 1727.58 -100.769 1664.22 -105.465C1652.05 -106.38 1639.89 -107.502 1627.73 -108.729C1570.73 -114.479 1512.97 -121.775 1455.68 -115.704C1437.22 -113.75 1419.06 -110.421 1401.29 -105.581C1280.3 -72.4712 1186.92 28.2721 1115.6 132.947C1110.44 140.55 1105.3 148.195 1100.25 155.874C1025.66 269.202 954.751 383.785 865.035 467.775C824.006 506.201 779.706 546.542 720.225 553.98C649.164 563.001 577.984 524.682 523.254 479.771C485.961 449.194 452.821 414.887 416.463 384.725C399.356 370.548 381.54 357.338 362.233 345.788C239.455 272.345 71.824 283.074 -59.919 350.351C-191.777 417.655 -292.477 532.816 -370.332 658.412M1947.2 -331.906C1968.87 -265.1 1926.35 -191.613 1866.43 -155.88C1861.07 -152.7 1855.6 -149.774 1850.02 -147.132C1793.06 -120.063 1727.83 -117.8 1664.42 -121.706C1652.23 -122.455 1640.06 -123.473 1627.92 -124.554C1570.89 -129.649 1513.07 -136.405 1455.87 -130.018C1437.45 -127.98 1419.33 -124.567 1401.56 -119.653C1280.66 -86.0929 1187.75 14.8216 1117.28 120.025C1112.17 127.681 1107.12 135.36 1102.13 143.062C1028.66 256.979 960.026 372.927 872.372 459.607C831.382 500.118 786.571 542.411 725.992 550.636C653.558 560.519 580.971 520.873 525.704 474.185C488.073 442.43 454.789 406.702 418.12 375.197C400.886 360.412 382.881 346.571 363.352 334.482C239.027 257.521 67.5494 267.917 -66.6106 336.793C-200.875 405.665 -302.819 523.909 -381.708 652.211M1945.9 -351.122C1967.59 -284.378 1925.69 -210.87 1866.18 -174.531C1860.88 -171.297 1855.42 -168.298 1849.89 -165.602C1793.22 -137.899 1728.07 -134.8 1664.61 -137.989C1652.4 -138.603 1640.24 -139.445 1628.08 -140.39C1570.99 -144.842 1513.17 -151.035 1456.03 -144.344C1437.64 -142.19 1419.54 -138.735 1401.78 -133.748C1280.94 -99.7064 1188.52 1.3174 1118.9 107.079C1113.85 114.758 1108.85 122.491 1103.96 130.227C1031.56 244.751 965.289 362.099 879.636 451.448C838.734 494.096 793.383 538.33 731.665 547.258C657.848 558.033 583.866 517.03 528.08 468.606C490.08 435.663 456.696 398.494 419.734 365.688C402.373 350.295 384.211 335.834 364.428 323.196C238.546 242.748 63.2522 252.822 -73.3444 323.254C-210.026 393.725 -313.191 514.992 -393.126 646.03M1944.63 -370.327C1966.39 -303.664 1925.11 -230.136 1865.99 -193.129C1860.69 -189.821 1855.29 -186.799 1849.8 -184.019C1793.43 -155.681 1728.36 -151.777 1664.83 -154.188C1652.63 -154.656 1640.43 -155.374 1628.29 -156.173C1571.16 -159.969 1513.28 -165.623 1456.25 -158.616C1437.89 -156.378 1419.79 -152.849 1402.08 -147.778C1281.32 -113.286 1189.36 -12.0908 1120.6 94.1984C1115.6 101.931 1110.69 109.698 1105.86 117.457C1034.55 232.559 970.737 351.339 886.992 443.322C846.222 488.09 800.298 534.252 737.42 543.944C662.189 555.601 586.842 513.252 530.537 463.093C492.211 428.941 458.673 390.382 421.399 356.233C403.892 340.189 385.561 325.14 365.524 311.952C238.084 228.016 58.9549 237.727 -80.0588 309.757C-219.146 381.796 -323.544 506.116 -404.494 639.902M1943.33 -389.543C1965.11 -322.942 1924.5 -249.413 1865.73 -211.749C1860.49 -208.388 1855.13 -205.28 1849.63 -202.469C1793.51 -173.509 1728.56 -168.758 1664.96 -170.452C1652.76 -170.785 1640.56 -171.325 1628.41 -172.02C1571.27 -175.192 1513.31 -180.245 1456.38 -172.954C1438.05 -170.599 1420 -167.018 1402.29 -161.873C1281.64 -126.919 1190.13 -25.595 1122.22 81.2528C1117.28 89.0085 1112.43 96.8293 1107.67 104.654C1037.45 220.331 976.105 340.515 894.244 435.194C853.655 482.133 807.099 530.202 743.114 540.608C666.511 553.127 589.756 509.451 532.902 457.546C494.206 422.205 460.557 382.236 423.002 346.755C405.368 330.103 386.868 314.465 366.589 300.696C237.602 213.243 54.615 222.651 -86.8043 296.249C-228.277 369.898 -333.928 497.229 -415.923 633.752M1942.04 -408.79C1963.89 -342.27 1923.87 -268.733 1865.53 -230.419C1860.34 -227.004 1854.98 -223.824 1849.53 -220.959C1793.72 -191.395 1728.85 -185.809 1665.21 -186.712C1652.99 -186.91 1640.77 -187.316 1628.6 -187.845C1571.42 -190.362 1513.44 -194.864 1456.57 -187.268C1438.28 -184.83 1420.24 -181.174 1402.54 -175.956C1281.96 -140.522 1190.93 -39.0878 1123.87 68.3186C1118.98 76.128 1114.22 83.9831 1109.53 91.8301C1040.39 208.085 981.607 329.705 901.52 427.004C861.123 476.084 813.891 526.079 748.788 537.23C670.801 550.641 592.65 505.608 535.29 451.936C496.256 415.418 462.464 374.028 424.628 337.215C406.847 319.913 388.178 303.686 367.645 289.368C237.101 198.426 50.2787 207.471 -93.5576 282.668C-237.436 357.884 -344.32 488.269 -427.361 627.528M1940.74 -428.006C1962.61 -361.548 1923.26 -288.01 1865.28 -249.039C1860.09 -245.551 1854.8 -242.348 1849.34 -239.379C1793.79 -209.192 1729.03 -202.759 1665.32 -202.914C1653.11 -202.935 1640.89 -203.237 1628.7 -203.631C1571.5 -205.493 1513.45 -209.455 1456.64 -201.555C1438.39 -199.032 1420.38 -195.261 1402.72 -190.032C1282.21 -154.147 1191.65 -52.5418 1125.41 55.381C1120.59 63.2132 1115.89 71.0911 1111.28 79.0032C1043.23 195.835 987.047 318.872 908.71 418.852C868.557 470.128 820.64 521.975 754.388 533.86C675.018 548.163 595.472 501.773 537.592 446.366C498.19 408.659 464.266 365.817 426.138 327.703C408.231 309.793 389.373 292.935 368.618 278.078C236.527 183.618 45.8466 192.361 -100.438 269.145C-246.722 345.929 -354.839 479.368 -438.925 621.363M1939.47 -447.211C1961.41 -380.834 1922.64 -307.256 1865.08 -267.636C1859.95 -264.095 1854.66 -260.818 1849.26 -257.795C1794 -226.974 1729.32 -219.736 1665.56 -219.144C1653.32 -219.03 1641.08 -219.165 1628.92 -219.444C1571.68 -220.651 1513.57 -224.042 1456.87 -215.858C1438.64 -213.219 1420.65 -209.407 1403.02 -204.093C1282.6 -167.757 1192.51 -66.0117 1127.12 42.4697C1122.38 50.367 1117.74 58.2677 1113.19 66.2336C1046.22 183.642 992.685 308.077 916.066 410.727C876.168 464.167 827.545 517.928 760.174 530.558C679.432 545.723 598.479 498.006 540.081 440.864C500.34 401.979 466.274 357.716 427.864 318.271C409.831 299.752 390.815 282.275 369.806 266.868C236.158 168.921 41.6305 177.331 -107.06 255.683C-255.761 334.066 -365.099 470.526 -450.231 615.259M1938.17 -466.427C1960.13 -400.112 1922.03 -326.533 1864.86 -286.245C1859.74 -282.661 1854.5 -279.3 1849.14 -276.224C1794.16 -244.811 1729.59 -236.725 1665.75 -235.354C1653.5 -235.105 1641.27 -235.094 1629.09 -235.208C1571.82 -235.759 1513.67 -238.599 1457.04 -230.111C1438.85 -227.388 1420.87 -223.502 1403.25 -218.115C1282.91 -181.328 1193.31 -79.4005 1128.75 29.5972C1124.07 37.5174 1119.48 45.4717 1115.02 53.4718C1049.14 171.457 998.322 297.282 923.338 402.641C883.757 458.268 834.345 513.878 765.856 527.253C683.73 543.311 601.37 494.267 542.446 435.316C502.347 395.212 468.158 349.57 429.436 308.781C411.256 289.613 392.072 271.546 370.809 255.59C235.603 154.155 37.2407 162.202 -113.866 242.152C-264.973 322.103 -375.545 461.617 -461.722 609.086M1936.89 -485.674C1958.9 -419.44 1921.43 -345.842 1864.63 -304.926C1859.56 -301.289 1854.33 -297.885 1848.99 -294.736C1794.3 -262.688 1729.81 -253.767 1665.91 -251.68C1653.65 -251.295 1641.39 -251.119 1629.24 -251.117C1571.92 -251.056 1513.73 -253.314 1457.19 -244.51C1439.03 -241.671 1421.1 -237.731 1403.49 -232.271C1283.24 -194.992 1194.1 -92.9664 1130.39 16.5899C1125.76 24.5638 1121.27 32.5523 1116.86 40.5752C1052.07 159.137 1004.02 286.333 930.636 394.389C891.371 452.202 841.191 509.705 771.553 523.813C688.044 540.763 604.287 490.362 544.845 429.676C504.377 388.383 470.076 341.332 431.073 299.211C412.767 279.434 393.394 260.737 371.908 244.242C235.156 139.289 32.9352 147.034 -120.578 228.552C-274.102 310.101 -385.894 452.637 -473.087 602.854M1935.62 -504.879C1957.66 -438.707 1920.82 -365.119 1864.43 -323.524C1859.4 -319.802 1854.2 -316.356 1848.9 -313.153C1794.5 -280.471 1730.1 -270.745 1666.16 -267.867C1653.9 -267.306 1641.64 -267.025 1629.43 -266.869C1572.08 -266.152 1513.83 -267.84 1457.39 -258.752C1439.27 -255.828 1421.35 -251.815 1403.77 -246.27C1283.61 -208.541 1194.93 -106.344 1132.08 3.74033C1127.51 11.737 1123.07 19.7792 1118.76 27.8364C1055.06 146.975 1009.8 275.522 937.97 386.325C899.095 446.318 848.084 505.689 777.328 520.542C692.446 538.354 607.283 486.626 547.322 424.205C506.516 381.734 472.072 333.262 432.8 289.779C414.336 269.382 394.836 250.077 373.097 233.032C234.787 124.592 28.7306 131.973 -127.199 215.089C-283.129 298.206 -396.154 443.796 -484.392 596.75M1934.32 -524.095C1956.39 -458.016 1920.21 -384.396 1864.18 -342.144C1859.17 -338.379 1854.03 -334.838 1848.73 -331.604C1794.59 -298.299 1730.3 -287.725 1666.3 -284.131C1654.03 -283.435 1641.75 -283.02 1629.56 -282.716C1572.18 -281.345 1513.89 -282.481 1457.52 -273.089C1439.41 -270.092 1421.56 -265.983 1403.97 -260.408C1283.89 -222.228 1195.69 -119.89 1133.65 -9.25919C1129.13 -1.20877 1124.78 6.86797 1120.52 14.9788C1057.89 134.725 1015.46 264.561 945.183 378.112C906.698 440.284 854.845 501.554 782.94 517.141C696.675 535.846 610.116 482.76 549.636 418.604C508.461 374.944 473.917 325.031 434.321 280.236C415.742 259.2 396.042 239.294 374.049 221.7C234.182 109.772 24.2788 116.82 -134.057 201.505C-292.403 286.22 -406.681 434.821 -495.934 590.523M1933.02 -543.312C1957.12 -471.396 1912.8 -390.469 1848.61 -350.032C1784.44 -309.626 1705.58 -301.169 1629.73 -298.51C1553.89 -295.851 1476.41 -297.693 1404.21 -274.46C1275.5 -233.008 1183.89 -118.106 1122.39 2.19769C1060.85 122.521 1021.31 253.668 952.509 369.976C914.444 434.338 861.699 497.454 788.675 513.785C701.027 533.383 613.072 478.94 552.054 413.006C491.036 347.072 444.752 267.211 375.168 210.394C233.754 94.9485 20.0043 101.664 -140.748 187.947C-301.501 274.23 -417.011 425.884 -507.31 584.322" stroke="url(#paint1_linear_1463_9774)" stroke-width="0.8669" stroke-miterlimit="10"/>
</g>
</g>
<defs>
<linearGradient id="paint0_linear_1463_9774" x1="-477.882" y1="662.132" x2="2023.56" y2="-315.613" gradientUnits="userSpaceOnUse">
<stop stop-color="#E4F1FC"/>
<stop offset="0.2294" stop-color="#9ADCFF"/>
<stop offset="0.711" stop-color="#5EBEF1"/>
<stop offset="1" stop-color="#0577B4"/>
</linearGradient>
<linearGradient id="paint1_linear_1463_9774" x1="1403.5" y1="-8.50198" x2="21.4999" y2="362.498" gradientUnits="userSpaceOnUse">
<stop stop-color="#171517"/>
<stop offset="0.340467" stop-color="#171517" stop-opacity="0.75"/>
<stop offset="1" stop-color="#171517"/>
</linearGradient>
<clipPath id="clip0_1463_9774">
<rect width="1512" height="857" fill="white"/>
</clipPath>
</defs>
</svg>
