<svg width="2181" height="1158" viewBox="0 0 2181 1158" fill="none" xmlns="http://www.w3.org/2000/svg">
<path opacity="0.54" d="M2141.79 0C2145.88 12.1967 2147.73 24.6847 2147.65 37.1523C2148.4 42.6302 2148.74 48.1302 2148.71 53.626C2149.47 59.1713 2149.82 64.7392 2149.77 70.3008C2150.52 75.7948 2150.86 81.3099 2150.81 86.8184C2151.57 92.2697 2151.9 97.7416 2151.86 103.206C2152.64 108.787 2152.99 114.389 2152.93 119.982C2153.68 125.403 2154.01 130.843 2153.96 136.273C2154.75 141.834 2155.1 147.414 2155.04 152.983C2155.81 158.451 2156.15 163.937 2156.09 169.412C2156.89 175.001 2157.24 180.609 2157.16 186.205C2157.93 191.631 2158.26 197.075 2158.2 202.506C2159.01 208.08 2159.36 213.672 2159.28 219.25C2160.07 224.724 2160.41 230.215 2160.34 235.691C2161.16 241.286 2161.5 246.898 2161.41 252.494C2162.2 257.941 2162.54 263.403 2162.46 268.85C2163.28 274.412 2163.63 279.991 2163.54 285.553C2164.35 291.068 2164.7 296.599 2164.61 302.111C2165.44 307.688 2165.79 313.281 2165.69 318.854C2166.5 324.334 2166.84 329.828 2166.74 335.303C2167.58 340.853 2167.92 346.417 2167.82 351.961C2168.66 357.54 2169 363.132 2168.89 368.703C2169.71 374.175 2170.05 379.659 2169.95 385.122C2170.8 390.67 2171.14 396.23 2171.04 401.768C2171.89 407.329 2172.23 412.902 2172.12 418.452C2172.97 424.039 2173.32 429.637 2173.19 435.21C2174.03 440.686 2174.37 446.173 2174.25 451.635C2175.12 457.199 2175.47 462.774 2175.34 468.323C2176.21 473.879 2176.55 479.445 2176.42 484.984C2177.3 490.573 2177.65 496.171 2177.51 501.741C2178.37 507.25 2178.71 512.767 2178.57 518.256C2179.45 523.802 2179.8 529.357 2179.66 534.883C2183.83 561.111 2176.13 587.524 2161.14 610.14C2143.84 636.246 2116.81 657.329 2087.02 667.282C2027.49 687.2 1962.21 673.72 1902.28 655.376C1842.3 637.047 1782.43 613.767 1719.88 614.124C1655.17 614.506 1596.5 639.479 1543.01 676.257C1489.51 713.036 1441.21 761.606 1397.24 809.146C1353.28 856.688 1306.96 906.475 1255.54 946.26C1204.11 986.048 1147.54 1015.85 1083.05 1023.41C1032.49 1029.33 982.734 1020.69 933.092 1008.61C883.424 996.518 833.913 980.992 783.726 973.074L781.673 972.755C607.123 946.003 420.663 1019.14 311.215 1157.55L310.535 1157.01C420.607 1017.82 608.413 944.527 783.86 972.219C834.093 980.143 883.706 995.694 933.297 1007.77C982.913 1019.84 1032.55 1028.45 1082.95 1022.55C1147.23 1015.02 1203.65 985.304 1255 945.573C1306.37 905.839 1352.63 856.108 1396.61 808.559C1440.58 761.009 1488.94 712.38 1542.52 675.543C1596.1 638.704 1654.94 613.64 1719.87 613.257C1782.59 612.899 1842.65 636.247 1902.54 654.547C1961.98 672.742 2026.47 686.076 2085.35 666.92L2086.74 666.46C2116.34 656.57 2143.22 635.611 2160.42 609.661C2174.42 588.532 2182 564.117 2179.42 539.688C2178.01 558.514 2171.08 576.88 2160.35 593.289C2143.23 619.463 2116.42 640.698 2086.8 650.945L2084.81 651.622C2080.17 653.171 2075.48 654.496 2070.78 655.674L2070.78 655.675C2015.96 669.12 1957.05 657.189 1902.45 641.155L1898.5 639.988C1889.27 637.251 1880.05 634.409 1870.82 631.568L1861.53 628.71C1815.08 614.457 1768.29 601.087 1720.03 601.62H1720.03C1703.35 601.792 1687.05 603.608 1671.15 606.834C1563.85 628.536 1474.56 714.553 1398.7 797.86L1390.41 806.968C1387.64 810.008 1384.86 813.053 1382.07 816.102C1299.47 906.343 1208.09 997.921 1089.5 1016.34C1055.58 1021.6 1021.71 1021.3 987.346 1016.19L985.444 1015.9C945.517 1009.79 905.743 997.561 866.612 985.989C839.464 977.965 812.469 970.243 785.132 964.793C772.283 962.232 759.325 960.215 746.276 958.779L744.329 958.568C661.858 949.831 576.282 964.553 499.495 998.239C421.918 1032.28 353.109 1085.27 301.189 1152.15L300.506 1151.62C352.516 1084.62 421.441 1031.54 499.147 997.445C576.668 963.438 663.139 948.72 746.372 957.917C759.446 959.355 772.429 961.376 785.302 963.942C812.681 969.401 839.71 977.134 866.858 985.158C906.631 996.92 946.981 1009.33 987.474 1015.33C1021.76 1020.43 1055.54 1020.73 1089.37 1015.48C1207.62 997.117 1298.81 905.787 1381.43 815.517C1387.01 809.42 1392.55 803.34 1398.06 797.278L1398.06 797.277C1473.9 713.983 1563.37 627.748 1670.97 605.984C1686.93 602.748 1703.28 600.925 1720.02 600.753C1771.65 600.182 1821.59 615.482 1871.08 630.741C1881.62 633.988 1892.16 637.234 1902.7 640.324H1902.7C1957.27 656.351 2015.99 668.22 2070.57 654.833C2075.93 653.492 2081.26 651.961 2086.51 650.127L2086.52 650.126C2115.95 639.943 2142.6 618.832 2159.62 592.814C2171.18 575.145 2178.28 555.228 2178.79 534.943C2178.49 533.034 2178.12 531.126 2177.68 529.221C2175.4 545.792 2168.98 561.881 2159.57 576.458C2142.64 602.698 2116.05 624.077 2086.61 634.618C2081.34 636.499 2076.02 638.113 2070.66 639.496H2070.66C2016.1 653.472 1957.26 642.275 1902.6 626.925L1902.6 626.926C1892.04 623.952 1881.51 620.832 1870.95 617.703C1821.41 603.012 1771.56 588.233 1720.16 589.078C1703.5 589.351 1687.22 591.205 1671.33 594.495C1564.09 616.618 1475.21 702.759 1400.11 786.528C1394.66 792.611 1389.16 798.737 1383.66 804.864L1383.66 804.865C1302.02 895.614 1212.25 986.671 1095.86 1009.17L1092.67 1009.77C1059.73 1015.87 1026.58 1017.57 992.323 1013.25C950.541 1007.99 908.885 994.397 868.674 981.118C841.226 972.06 814.106 963.092 786.522 956.475C773.535 953.37 760.466 950.82 747.196 948.902C662.766 936.667 573.078 951.062 493.569 986.414C413.885 1021.82 343.993 1077.49 291.182 1146.79L290.492 1146.26C343.391 1076.85 413.397 1021.09 493.217 985.622C572.239 950.487 661.311 936.01 745.337 947.762L747.32 948.045C760.618 949.966 773.713 952.52 786.724 955.63L786.725 955.631C814.35 962.259 841.504 971.239 868.946 980.295C909.17 993.578 950.747 1007.15 992.432 1012.39C1027.69 1016.84 1061.78 1014.88 1095.7 1008.31C1211.76 985.883 1301.35 895.059 1383.02 804.285C1388.52 798.158 1394.01 792.032 1399.47 785.949C1473.97 702.844 1562.21 617.182 1668.64 594.178L1671.15 593.646C1687.1 590.345 1703.44 588.485 1720.15 588.211C1771.7 587.363 1821.68 602.188 1871.2 616.872C1880.44 619.61 1889.65 622.338 1898.88 624.969L1902.83 626.091C1957.04 641.315 2015.21 652.398 2069.17 638.979L2070.44 638.656C2075.78 637.279 2081.07 635.673 2086.31 633.801C2115.58 623.325 2142.01 602.071 2158.84 575.988C2168.62 560.838 2175.14 544.07 2177.11 526.848C2176.78 525.567 2176.43 524.287 2176.04 523.01L2176.45 522.884L2176.87 522.758C2177.04 523.316 2177.2 523.876 2177.36 524.435C2177.54 522.401 2177.66 520.362 2177.71 518.319C2177.41 516.432 2177.04 514.546 2176.62 512.663C2174.37 529.115 2168.05 545.1 2158.81 559.617C2142.07 585.923 2115.71 607.446 2086.42 618.263C2081.2 620.191 2075.91 621.88 2070.57 623.301C2016.25 637.824 1957.5 627.372 1902.78 612.678H1902.78C1892.24 609.832 1881.66 606.847 1871.11 603.847C1821.54 589.73 1771.66 575.435 1720.32 576.547L1720.32 576.546C1703.7 576.893 1687.45 578.822 1671.57 582.148L1669.07 582.688C1563.05 606.023 1475.37 691.588 1401.59 775.188C1396.18 781.317 1390.76 787.475 1385.32 793.622C1304.61 884.906 1216.41 975.514 1102.3 1002.02C1068.19 1009.95 1033.75 1014.12 997.364 1010.31C954.357 1005.83 911.47 991.042 870.811 976.213L860.419 972.423C836.223 963.59 812.348 954.91 787.987 948.121L787.986 948.12C774.898 944.456 761.656 941.379 748.191 938.99L746.18 938.638C660.949 923.922 568.717 938.062 487.728 974.527C405.925 1011.34 334.961 1069.66 281.23 1141.35L280.884 1141.09L280.536 1140.83C334.35 1069.03 405.429 1010.61 487.372 973.737C568.501 937.209 660.907 923.035 746.327 937.784L748.343 938.138C761.837 940.532 775.107 943.615 788.22 947.286C812.616 954.085 836.525 962.778 860.719 971.609L871.107 975.397C911.772 990.229 954.567 1004.99 997.454 1009.45V1009.45C1033.71 1013.25 1068.05 1009.09 1102.11 1001.18C1214.13 975.153 1301.19 887.162 1380.88 797.327L1384.67 793.047C1390.11 786.9 1395.53 780.745 1400.94 774.614C1474.71 691.022 1562.56 605.243 1668.88 581.841L1671.4 581.3C1687.32 577.962 1703.63 576.029 1720.3 575.681C1771.8 574.566 1821.81 588.904 1871.35 603.014C1880.57 605.639 1889.83 608.25 1899.05 610.768L1903 611.841C1957.7 626.529 2016.26 636.923 2070.34 622.462L2070.34 622.463C2075.66 621.049 2080.92 619.369 2086.12 617.449C2115.23 606.699 2141.44 585.3 2158.08 559.151C2167.69 544.053 2174.1 527.383 2176.05 510.271C2175.7 508.896 2175.32 507.522 2174.9 506.151L2175.31 506.024L2175.73 505.898C2175.92 506.545 2176.11 507.192 2176.29 507.84C2176.47 505.833 2176.59 503.822 2176.64 501.807C2176.34 499.879 2175.97 497.953 2175.54 496.029C2173.31 512.382 2167.11 528.28 2158.02 542.752C2141.47 569.123 2115.34 590.792 2086.24 601.907C2081.02 603.9 2075.79 605.61 2070.48 607.104L2070.48 607.104C2016.42 622.185 1957.75 612.441 1902.97 598.403C1892.41 595.703 1881.85 592.819 1871.26 589.928C1821.67 576.386 1771.73 562.589 1720.45 563.94C1703.85 564.389 1687.62 566.354 1671.78 569.755H1671.77C1564.7 592.677 1476.65 679.09 1402.99 763.79L1394.95 773.049C1392.27 776.144 1389.58 779.246 1386.9 782.348L1383.15 786.649C1304.43 876.949 1218.7 964.972 1108.67 994.824C1074.46 1004.12 1039.7 1010.5 1002.33 1007.31C958.075 1003.61 913.984 987.63 872.866 971.277C844.8 960.113 817.46 948.663 789.344 939.727L786.866 938.946C774.467 935.082 761.872 931.746 749.051 929.029L747.007 928.604C660.405 910.874 564.831 924.763 481.75 962.592L479.785 963.491C396.715 1001.73 325.368 1062.35 271.145 1135.87L270.795 1135.61L270.446 1135.36C325.176 1061.15 397.334 1000.05 481.391 961.802C564.616 923.907 660.377 909.984 747.181 927.756L749.229 928.181C762.936 931.085 776.382 934.694 789.606 938.899C817.76 947.848 845.141 959.315 873.187 970.472C914.303 986.824 958.289 1002.75 1002.41 1006.45H1002.41C1039.62 1009.62 1074.28 1003.27 1108.45 993.988V993.987C1219.93 963.739 1306.47 873.588 1386.24 781.779C1391.61 775.576 1396.99 769.372 1402.34 763.222C1475.42 679.188 1562.83 593.249 1669.08 569.457L1671.59 568.907C1686.99 565.602 1702.76 563.649 1718.86 563.121L1720.42 563.074C1771.85 561.719 1821.92 575.557 1871.49 589.092C1882.08 591.984 1892.63 594.864 1903.18 597.562C1957.94 611.595 2016.42 621.286 2070.25 606.27C2075.53 604.781 2080.74 603.08 2085.93 601.098C2114.85 590.05 2140.83 568.504 2157.29 542.29C2166.74 527.229 2173.05 510.638 2174.97 493.618C2174.6 492.174 2174.2 490.731 2173.75 489.292L2174.58 489.038C2174.8 489.751 2175.01 490.465 2175.21 491.179C2175.39 489.135 2175.51 487.086 2175.55 485.033C2175.26 483.141 2174.9 481.249 2174.48 479.361C2172.29 495.637 2166.19 511.473 2157.25 525.92C2140.88 552.363 2114.97 574.184 2086.05 585.58C2080.88 587.62 2075.65 589.393 2070.36 590.926C2016.55 606.565 1957.96 597.527 1903.11 584.172C1892.54 581.59 1881.96 578.826 1871.4 576.062C1821.77 563.095 1771.78 549.771 1720.58 551.398L1719.03 551.452C1703.01 552.05 1687.32 554.068 1671.96 557.415C1564.95 580.759 1477.32 667.269 1404.41 752.457C1399.1 758.654 1393.82 764.861 1388.49 771.112C1309.69 863.412 1224.48 953.664 1115.05 987.688L1115.05 987.688C1080.68 998.368 1045.69 1006.92 1007.33 1004.41C961.855 1001.46 916.523 984.319 874.92 966.432C846.526 954.222 819.063 941.528 790.726 931.434C777.388 926.693 763.86 922.557 749.962 919.178L747.886 918.684C659.903 897.964 561.006 911.548 475.823 950.767C389.822 990.363 316.677 1054 261.108 1130.5L260.407 1129.99C316.053 1053.38 389.309 989.645 475.461 949.979C561.465 910.382 661.45 896.856 750.166 918.336L750.167 918.337C764.097 921.724 777.655 925.867 791.017 930.616L791.018 930.617C819.389 940.724 846.898 953.439 875.263 965.636C916.208 983.24 960.659 1000.08 1005.26 1003.4L1007.38 1003.54C1045.58 1006.04 1080.45 997.531 1114.79 986.86C1223.96 952.92 1309.02 862.862 1387.83 770.549C1393.16 764.298 1398.44 758.09 1403.75 751.893C1476.66 666.706 1564.45 579.98 1671.77 556.568C1687.68 553.102 1703.94 551.056 1720.55 550.532C1768.69 549.002 1815.75 560.652 1862.31 572.793L1871.62 575.224C1882.18 577.987 1892.75 580.75 1903.32 583.33C1957.71 596.575 2015.63 605.524 2068.86 590.453L2070.12 590.093C2075.38 588.568 2080.58 586.803 2085.73 584.773C2114.48 573.447 2140.24 551.75 2156.51 525.464C2165.82 510.421 2172.02 493.884 2173.9 476.936C2173.52 475.436 2173.1 473.938 2172.64 472.443L2173.06 472.315L2173.47 472.188C2173.7 472.95 2173.93 473.713 2174.14 474.476C2174.31 472.447 2174.43 470.414 2174.47 468.377C2174.18 466.479 2173.82 464.582 2173.4 462.688C2171.25 478.889 2165.26 494.663 2156.46 509.083C2140.28 535.592 2114.6 557.557 2085.83 569.242C2080.7 571.33 2075.48 573.167 2070.23 574.747L2068.98 575.121C2015.75 590.777 1957.73 582.54 1903.29 569.924L1899.33 568.994C1890.06 566.808 1880.82 564.522 1871.56 562.207L1862.24 559.877C1815.66 548.243 1768.69 537.092 1720.74 538.867C1704.2 539.491 1688.01 541.594 1672.19 545.096C1565.25 568.834 1478.03 655.495 1405.87 741.145L1401.94 745.813C1398 750.489 1394.07 755.185 1390.13 759.896V759.896C1312.29 852.703 1228.52 942.987 1121.49 980.544C1086.97 992.642 1051.74 1003.35 1012.37 1001.47C965.671 999.305 919.109 980.964 877.059 961.526L871.69 959.035C844.912 946.549 818.992 933.639 792.193 923.079C778.755 917.779 765.052 913.117 750.932 909.256C661.07 884.774 557.916 897.969 469.954 938.871C381.844 979.841 307.617 1046.15 251.129 1125.06L250.776 1124.81L250.425 1124.55C306.986 1045.55 381.324 979.126 469.589 938.084C557.705 897.11 661.07 883.876 751.159 908.42H751.16C764.429 912.048 777.328 916.381 789.982 921.284L792.511 922.272C819.338 932.843 845.306 945.776 872.06 958.251L877.422 960.739C918.803 979.868 964.441 997.875 1010.23 1000.49L1012.41 1000.6C1051.6 1002.48 1086.7 991.82 1121.21 979.727C1227.98 942.258 1311.61 852.157 1389.47 759.339C1394.72 753.058 1399.95 746.802 1405.21 740.584C1477.37 654.933 1564.75 568.056 1672 544.249C1687.87 540.736 1704.12 538.626 1720.71 538.001C1772 536.101 1822.15 548.953 1871.77 561.366C1882.35 564.011 1892.91 566.618 1903.49 569.08C1957.9 581.691 2015.74 589.878 2068.73 574.289L2069.98 573.916C2075.2 572.344 2080.4 570.516 2085.5 568.439L2085.5 568.438C2114.1 556.824 2139.63 534.984 2155.72 508.632C2164.89 493.607 2170.98 477.124 2172.82 460.242C2172.43 458.678 2171.99 457.116 2171.51 455.558L2171.93 455.43L2172.34 455.302C2172.59 456.12 2172.83 456.939 2173.06 457.759C2173.23 455.74 2173.34 453.716 2173.38 451.688C2173.09 449.845 2172.75 448.002 2172.34 446.162C2170.22 462.235 2164.34 477.895 2155.7 492.244C2139.71 518.817 2114.25 540.927 2085.67 552.897H2085.67C2080.56 555.022 2075.39 556.906 2070.15 558.55C2016.84 575.267 1958.41 567.708 1903.48 555.676L1899.51 554.793C1890.25 552.716 1880.97 550.525 1871.73 548.323C1822.03 536.469 1771.96 524.164 1720.91 526.308C1704.41 527.005 1688.22 529.173 1672.44 532.749C1565.57 556.882 1478.76 643.665 1407.35 729.804C1402.17 736.078 1396.98 742.351 1391.79 748.651C1314.9 841.965 1232.6 932.449 1127.94 973.401C1093.24 986.972 1057.79 999.767 1017.4 998.551L1015.15 998.473C967.986 996.562 921.02 977.309 879.177 956.675H879.178C850.154 942.384 822.476 927.211 793.614 914.769C780.037 908.925 766.223 903.731 751.882 899.389L749.74 898.75C659.005 872.028 553.441 885.057 464.064 927.029C373.836 969.401 298.538 1038.36 241.158 1119.68L240.449 1119.18C297.899 1037.76 373.309 968.691 463.696 926.245C553.936 883.867 660.682 870.922 752.133 898.559C766.51 902.912 780.355 908.117 793.957 913.972C822.844 926.425 850.585 941.629 879.561 955.896C922.051 976.849 969.701 996.312 1017.42 997.684H1017.42C1057.62 998.893 1092.93 986.163 1127.62 972.593C1232.05 931.732 1314.22 841.424 1391.12 748.101C1396.32 741.799 1401.5 735.524 1406.68 729.25H1406.68C1477.54 643.781 1563.71 557.466 1669.74 532.482L1672.25 531.903C1688.08 528.316 1704.32 526.141 1720.88 525.441C1772.07 523.292 1822.26 535.632 1871.93 547.48C1882.49 549.997 1893.09 552.498 1903.66 554.831C1958.57 566.858 2016.81 574.369 2069.89 557.724C2075.1 556.088 2080.25 554.211 2085.34 552.097C2113.75 540.198 2139.06 518.213 2154.96 491.797C2163.97 476.836 2169.95 460.463 2171.76 443.703C2171.35 442.032 2170.89 440.363 2170.37 438.698L2171.2 438.442C2171.48 439.36 2171.75 440.28 2172.01 441.199C2172.17 439.227 2172.28 437.249 2172.32 435.269C2172.03 433.368 2171.68 431.469 2171.27 429.572C2169.17 445.527 2163.4 461.084 2154.93 475.371C2139.12 502.012 2113.89 524.273 2085.46 536.532C2080.39 538.732 2075.23 540.653 2070.03 542.344C2016.95 559.609 1958.65 552.805 1903.63 541.419C1893.03 539.229 1882.44 536.856 1871.86 534.458C1822.13 523.178 1772.02 511.347 1721.05 513.767L1719.55 513.84C1704.09 514.639 1688.95 516.747 1674.11 520.05L1672.63 520.383C1565.84 544.948 1479.43 631.844 1408.77 718.443C1403.64 724.737 1398.5 731.058 1393.38 737.415V737.416C1317.47 831.246 1236.61 922.008 1134.32 966.236C1099.45 981.306 1063.75 996.175 1022.41 995.597C973.278 994.977 924.244 974.272 881.279 951.786C851.953 936.458 824.168 920.016 795.056 906.403H795.057C781.368 900.026 767.388 894.28 752.853 889.466C660.279 858.847 550.412 871.467 458.196 915.134C365.859 958.879 289.467 1030.55 231.179 1114.24L230.823 1113.99L230.467 1113.74C288.823 1029.95 365.324 958.173 457.824 914.351C550.203 870.606 660.301 857.942 753.124 888.643H753.125C766.788 893.168 779.956 898.512 792.848 904.427L795.423 905.617C824.553 919.238 852.415 935.72 881.682 951.017V951.018C924.624 973.491 973.504 994.113 1022.42 994.729L1022.42 994.73C1060.99 995.269 1094.63 982.305 1127.43 968.261L1133.98 965.44C1236.05 921.307 1316.79 830.709 1392.71 736.87C1395.27 733.691 1397.84 730.52 1400.4 727.358L1408.1 717.896C1478.76 631.288 1565.34 544.174 1672.43 519.538L1672.44 519.537C1688.28 515.923 1704.45 513.665 1721 512.901C1772.12 510.475 1822.35 522.34 1872.05 533.613C1882.63 536.012 1893.21 538.382 1903.81 540.569C1958.8 551.951 2016.91 558.711 2069.76 541.521C2074.94 539.837 2080.07 537.924 2085.12 535.736H2085.12C2113.37 523.55 2138.47 501.413 2154.18 474.928C2163.03 460.019 2168.9 443.742 2170.69 427.093C2170.26 425.339 2169.77 423.587 2169.23 421.84L2170.06 421.583C2170.37 422.578 2170.66 423.575 2170.93 424.572C2171.1 422.557 2171.2 420.536 2171.25 418.513C2170.96 416.638 2170.61 414.765 2170.2 412.896C2168.15 428.779 2162.48 444.275 2154.14 458.536C2138.52 485.242 2113.51 507.646 2085.27 520.204H2085.27C2080.21 522.44 2075.09 524.436 2069.93 526.175C2017.12 543.97 1958.89 537.901 1903.81 527.171C1893.2 525.1 1882.59 522.846 1872 520.565C1822.25 509.861 1772.11 498.512 1721.19 501.198C1704.72 502.061 1688.61 504.349 1672.85 508.026C1566.13 532.986 1480.13 620.005 1410.19 707.083C1405.12 713.396 1400.05 719.774 1394.99 726.152C1320.02 820.489 1240.64 911.697 1140.72 959.045C1105.69 975.651 1069.75 992.565 1027.39 992.633H1026.21C976.256 992.456 926.429 970.735 883.328 946.876H883.329C853.684 930.474 825.795 912.827 796.405 898.035C782.616 891.098 768.462 884.826 753.704 879.53C659.778 845.83 546.542 858.156 452.207 903.225C357.762 948.344 280.262 1022.68 221.082 1108.78L220.724 1108.54L220.366 1108.29C279.611 1022.09 357.221 947.642 451.834 902.442C546.335 857.295 659.813 844.921 753.997 878.714C768.794 884.024 782.981 890.311 796.796 897.261C826.196 912.058 854.173 929.755 883.748 946.118C926.821 969.962 976.487 991.59 1026.22 991.766H1027.39C1069.53 991.699 1105.29 974.877 1140.35 958.261C1240.07 911.009 1319.34 819.957 1394.31 725.612C1399.37 719.234 1404.44 712.855 1409.52 706.54C1479.47 619.451 1565.62 532.213 1672.65 507.182C1688.46 503.493 1704.62 501.197 1721.14 500.332C1769.01 497.807 1816.17 507.652 1862.85 517.708L1872.18 519.719C1882.77 521.999 1893.37 524.251 1903.98 526.32C1959.02 537.046 2017.07 543.073 2069.66 525.354C2074.14 523.84 2078.61 522.129 2083.03 520.234L2084.92 519.412C2112.99 506.928 2137.86 484.647 2153.39 458.098C2162.1 443.207 2167.87 426.982 2169.62 410.396C2169.18 408.591 2168.68 406.789 2168.12 404.991L2168.53 404.861L2168.95 404.733C2169.27 405.775 2169.57 406.819 2169.86 407.863C2170.02 405.856 2170.12 403.844 2170.17 401.83C2169.88 399.965 2169.54 398.102 2169.13 396.241C2167.12 412.041 2161.55 427.469 2153.35 441.696C2137.92 468.472 2113.15 491.025 2085.09 503.85H2085.09C2080.07 506.133 2074.99 508.176 2069.82 509.969C2017.24 528.311 1959.1 522.987 1903.97 512.913C1893.37 510.97 1882.75 508.835 1872.14 506.673L1862.81 504.765C1816.09 495.217 1768.98 485.876 1721.33 488.629L1719.79 488.721C1703.89 489.714 1688.33 492.045 1673.07 495.67L1670.57 496.275C1565.08 522.385 1480.3 608.849 1411.64 695.731V695.732C1406.61 702.093 1401.6 708.491 1396.62 714.898H1396.61C1322.61 809.74 1244.71 901.523 1147.13 951.89C1111.93 970.059 1075.78 988.966 1032.41 989.679C980.831 990.629 929.329 967.558 885.442 941.96L882.637 940.32C853.715 923.333 826.565 905.135 797.849 889.67L795.233 888.275C782.135 881.343 768.72 875.024 754.677 869.607C659.389 832.853 542.782 844.886 446.328 891.355C349.764 937.876 271.191 1014.86 211.092 1103.37L210.733 1103.12L210.376 1102.88C270.537 1014.28 349.217 937.178 445.952 890.575C541.82 844.387 657.609 832.132 752.745 867.943L754.988 868.799C769.07 874.23 782.517 880.565 795.639 887.51L798.26 888.906C827.9 904.869 855.986 923.81 885.878 941.211L885.879 941.212C929.734 966.791 981.063 989.758 1032.39 988.812H1032.39C1075.53 988.104 1111.5 969.303 1146.73 951.119C1242.6 901.635 1319.48 812.071 1392.46 718.81L1395.93 714.366C1400.92 707.957 1405.93 701.557 1410.96 695.194C1479.63 608.298 1564.57 521.619 1670.36 495.434L1672.87 494.826C1688.67 491.073 1704.79 488.702 1721.28 487.763C1772.24 484.819 1822.58 495.672 1872.32 505.823C1882.92 507.985 1893.53 510.119 1904.12 512.061C1959.23 522.13 2017.18 527.414 2069.54 509.149C2074.04 507.589 2078.47 505.837 2082.85 503.901L2084.73 503.061C2112.62 490.311 2137.26 467.883 2152.6 441.264C2161.17 426.395 2166.84 410.227 2168.55 393.714C2168.09 391.84 2167.57 389.969 2166.99 388.104L2167.4 387.977L2167.81 387.847C2168.16 388.951 2168.48 390.058 2168.78 391.165C2168.94 389.174 2169.04 387.178 2169.08 385.18C2168.8 383.363 2168.47 381.547 2168.08 379.734C2166.09 395.408 2160.64 410.722 2152.6 424.874C2137.59 451.295 2113.56 473.697 2086.2 486.899L2084.89 487.521C2079.91 489.879 2074.85 491.96 2069.72 493.8L2068.5 494.237C2016.5 512.627 1958.91 508.009 1904.17 498.675L1904.17 498.674C1893.56 496.85 1882.92 494.861 1872.33 492.827C1822.53 483.245 1772.26 472.894 1721.49 476.097C1705.08 477.135 1689.02 479.534 1673.28 483.34C1566.69 509.115 1481.55 596.391 1413.08 684.409L1409.36 689.207C1405.64 694.016 1401.93 698.857 1398.22 703.699C1325.17 799.047 1248.82 891.487 1153.53 944.761C1118.17 964.531 1081.79 985.421 1037.42 986.789L1036.19 986.823C983.814 988.117 931.55 964.046 887.553 937.136H887.554C872.432 927.902 857.828 918.243 843.277 908.758C828.724 899.271 814.222 889.955 799.29 881.396C785.262 873.355 770.821 866.025 755.619 859.766C658.968 819.957 538.991 831.697 440.429 879.541C341.755 927.436 262.101 1007.1 201.083 1098.01L200.723 1097.76L200.363 1097.52C261.441 1006.53 341.202 926.74 440.05 878.761C538.785 830.833 659.023 819.042 755.949 858.964C771.193 865.24 785.667 872.59 799.721 880.645C814.676 889.217 829.196 898.544 843.75 908.032C858.307 917.522 872.897 927.17 888.005 936.396C931.967 963.284 984.052 987.246 1036.17 985.958L1037.4 985.922C1081.51 984.561 1117.71 963.794 1153.11 944.004C1245.25 892.49 1319.69 804.26 1390.68 712.102L1397.54 703.172C1401.24 698.331 1404.95 693.488 1408.67 688.677L1412.4 683.877C1480.34 596.53 1564.84 509.715 1670.57 483.114L1673.07 482.498C1688.87 478.68 1704.97 476.273 1721.44 475.231C1765.98 472.422 1810.12 480.017 1853.8 488.375L1872.49 491.976C1881.76 493.754 1891.06 495.499 1900.34 497.129L1904.32 497.819C1959.45 507.223 2017.33 511.805 2069.43 492.984L2069.43 492.983C2074.53 491.152 2079.57 489.082 2084.52 486.736H2084.53C2112.27 473.699 2136.69 451.129 2151.85 424.445C2160.26 409.646 2165.81 393.59 2167.5 377.197C2167.02 375.209 2166.47 373.224 2165.85 371.246L2166.67 370.987C2167.05 372.197 2167.41 373.41 2167.73 374.624C2167.89 372.672 2167.98 370.715 2168.02 368.756C2167.74 366.884 2167.4 365.014 2167.01 363.147C2165.05 378.702 2159.7 393.911 2151.82 407.998C2136.76 434.906 2112.43 457.754 2084.71 471.166C2079.75 473.561 2074.72 475.716 2069.6 477.62C2017.54 497.079 1959.54 493.195 1904.32 484.443L1900.33 483.805C1891.03 482.292 1881.74 480.636 1872.46 478.961C1822.64 469.954 1772.34 460.086 1721.63 463.555L1720.09 463.664C1704.24 464.825 1688.69 467.278 1673.48 471.011C1566.97 497.181 1482.24 584.579 1414.52 673.086L1410.83 677.915C1407.15 682.751 1403.49 687.609 1399.84 692.473C1327.73 788.352 1252.98 881.563 1159.94 937.632V937.633C1124.4 959.031 1087.77 981.837 1042.42 983.861C988.418 986.355 934.447 960.92 889.62 932.264C874.335 922.508 859.622 912.269 844.97 902.192C830.315 892.114 815.72 882.195 800.659 873.065C786.492 864.481 771.914 856.608 756.518 849.878C658.514 806.987 535.166 818.434 434.484 867.68C333.692 916.976 252.966 999.288 191.057 1092.61L190.334 1092.13C252.301 998.721 333.134 916.284 434.104 866.9C534.961 817.569 658.579 806.069 756.865 849.083C772.305 855.832 786.917 863.725 801.108 872.323C816.193 881.467 830.806 891.4 845.461 901.479C860.119 911.561 874.818 921.788 890.087 931.533H890.088C934.876 960.164 988.655 985.476 1042.38 982.995L1042.39 982.996C1084.66 981.11 1119.33 961.065 1152.81 940.916L1159.49 936.89C1252.37 880.919 1327.03 787.844 1399.15 691.952C1404.01 685.466 1408.9 678.988 1413.83 672.558C1481.57 584.031 1566.45 496.415 1673.28 470.169C1689.03 466.304 1705.14 463.806 1721.57 462.69C1772.41 459.213 1822.82 469.106 1872.62 478.107C1881.89 479.783 1891.18 481.438 1900.47 482.949L1904.45 483.588C1959.65 492.335 2017.45 496.183 2069.29 476.808H2069.3C2074.39 474.913 2079.4 472.768 2084.33 470.385C2111.89 457.049 2136.09 434.327 2151.06 407.574C2159.31 392.831 2164.76 376.872 2166.43 360.591C2165.93 358.518 2165.35 356.448 2164.71 354.387L2165.12 354.258L2165.53 354.127C2165.94 355.415 2166.31 356.707 2166.66 357.999C2166.81 356.008 2166.91 354.014 2166.95 352.017C2166.67 350.176 2166.34 348.337 2165.95 346.501C2164.03 361.975 2158.79 377.115 2151.04 391.165C2136.16 418.138 2112.05 441.127 2084.49 454.828C2079.57 457.271 2074.56 459.461 2069.48 461.439L2069.47 461.44C2017.65 481.419 1959.75 478.28 1904.47 470.185C1893.83 468.624 1883.21 466.892 1872.6 465.068C1822.75 456.636 1772.4 447.268 1721.77 450.986H1721.77C1705.42 452.172 1689.4 454.737 1673.7 458.654C1567.28 485.229 1482.94 572.766 1415.97 661.734L1412.34 666.589C1408.7 671.452 1405.08 676.341 1401.47 681.22C1330.32 777.604 1257.19 871.659 1166.33 930.439C1130.67 953.513 1093.77 978.228 1047.41 980.897L1046.11 980.969C991.318 983.76 936.628 957.309 891.708 927.338C876.28 917.052 861.46 906.243 846.707 895.583C831.952 884.92 817.261 874.404 802.077 864.69C787.799 855.573 773.072 847.185 757.463 839.945L755.13 838.878C656.118 794.176 530.576 805.549 428.588 855.773C325.686 906.444 243.878 991.433 181.051 1087.16L180.688 1086.92L180.326 1086.68C243.209 990.873 325.123 905.756 428.204 854.996C530.369 804.684 656.188 793.257 755.486 838.089L757.827 839.158C772.501 845.964 786.392 853.78 799.856 862.256L802.544 863.96C817.751 873.688 832.46 884.217 847.215 894.88C861.973 905.544 876.777 916.341 892.188 926.616L892.189 926.617C937.421 956.796 992.42 983.294 1047.36 980.032L1047.36 980.031C1093.45 977.378 1130.16 952.812 1165.86 929.711C1256.57 871.029 1329.61 777.103 1400.78 680.704C1405.58 674.198 1410.43 667.674 1415.28 661.215L1415.28 661.214C1482.26 572.223 1566.76 484.466 1673.49 457.813C1688.74 454.007 1704.31 451.474 1720.17 450.237L1721.71 450.121C1772.46 446.393 1822.93 455.787 1872.75 464.214H1872.75C1883.35 466.037 1893.96 467.768 1904.6 469.327C1959.85 477.419 2017.56 480.526 2069.16 460.632C2073.59 458.909 2077.96 457.023 2082.27 454.951L2084.11 454.052C2111.51 440.429 2135.49 417.563 2150.28 390.746C2158.39 376.032 2163.74 360.135 2165.37 343.928C2164.87 341.866 2164.3 339.808 2163.66 337.757C2155.45 379.833 2123.44 418.516 2084.33 438.482C2079.46 440.972 2074.46 443.228 2069.42 445.254L2069.41 445.255C2017.85 465.791 1960.02 463.386 1904.68 455.946C1894.05 454.514 1883.39 452.89 1872.76 451.212L1854.03 448.233C1810.26 441.304 1766.16 434.958 1721.93 438.454C1705.61 439.741 1689.6 442.345 1673.92 446.299C1567.57 473.268 1483.64 560.928 1417.39 650.375L1413.79 655.259C1410.2 660.149 1406.62 665.054 1403.08 669.955H1403.08C1332.87 766.844 1261.41 861.847 1172.72 923.273C1136.92 948.05 1099.77 974.619 1052.42 977.943L1051.1 978.031C995.1 981.545 939.213 953.943 893.813 922.45C878.222 911.642 863.297 900.261 848.444 889.014C833.589 877.764 818.805 866.645 803.484 856.343C789.105 846.666 774.203 837.75 758.372 830.029H758.373C657.642 781.029 527.564 791.863 422.653 843.885C317.633 895.957 234.753 983.596 171.007 1081.72L170.645 1081.49L170.28 1081.25C234.08 983.043 317.065 895.271 422.269 843.107C527.36 790.996 657.727 780.106 758.753 829.25C774.628 836.992 789.564 845.929 803.969 855.623C819.312 865.941 834.114 877.073 848.968 888.322C862.896 898.87 876.87 909.52 891.395 919.706L894.307 921.736C940.019 953.446 996.222 981.093 1052.36 977.078L1052.36 977.079C1099.43 973.774 1136.39 947.367 1172.22 922.561C1258.01 863.148 1327.68 772.25 1395.79 678.524L1402.37 669.447C1405.92 664.544 1409.5 659.637 1413.1 654.745L1416.7 649.859C1482.97 560.387 1567.05 472.506 1673.71 445.458L1673.71 445.457C1689.43 441.491 1705.49 438.881 1721.86 437.59C1772.53 433.585 1823.03 442.467 1872.9 450.356C1883.53 452.034 1894.17 453.657 1904.8 455.088C1960.1 462.523 2017.75 464.899 2069.09 444.449C2073.49 442.685 2077.85 440.745 2082.12 438.628L2083.94 437.71C2126.05 416.21 2159.78 372.976 2164.32 327.344C2163.82 325.271 2163.25 323.204 2162.61 321.143C2154.52 363.129 2122.91 401.803 2084.14 422.153L2082.31 423.1C2078.03 425.28 2073.69 427.27 2069.29 429.075C2017.96 450.159 1960.23 448.473 1904.85 441.727H1904.85C1894.21 440.413 1883.57 438.915 1872.92 437.355C1823 430.036 1772.58 421.661 1722.09 425.923L1720.57 426.054C1704.8 427.452 1689.34 430.086 1674.16 433.979C1567.87 461.369 1484.36 549.152 1418.86 639.061C1414.11 645.584 1409.4 652.157 1404.71 658.766H1404.71C1335.46 756.159 1265.74 852.202 1179.14 916.153L1172.4 921.139C1138.54 946.112 1102.77 971.331 1057.44 975.054C999.778 979.876 942.139 950.89 895.926 917.625C880.186 906.299 865.155 894.349 850.203 882.515C835.248 870.678 820.372 858.955 804.928 848.068L802.199 846.162C788.529 836.672 774.393 827.887 759.344 820.197L756.945 818.988C655.176 768.284 522.965 779.101 416.781 832.08L416.78 832.081C309.651 885.528 225.69 975.845 161.025 1076.37L160.66 1076.14L160.296 1075.9C225.012 975.296 309.078 884.844 416.394 831.305C523.597 777.817 657.352 767.19 759.738 819.426C775.836 827.651 790.885 837.122 805.427 847.359C820.894 858.262 835.788 869.999 850.741 881.835C865.697 893.673 880.711 905.609 896.432 916.921C942.597 950.152 1000.02 978.984 1057.36 974.188L1057.36 974.189C1105.44 970.243 1142.71 941.988 1178.63 915.456C1187.35 909.016 1195.9 902.249 1204.29 895.188C1199.68 898.81 1194.94 902.227 1190.07 905.403C1188.57 906.611 1187.06 907.809 1185.55 908.997C1149.61 937.258 1111.79 967.473 1062.45 972.099L1061.07 972.224C1002.65 977.235 944.336 947.253 898.005 912.727C882.102 900.879 866.968 888.352 851.921 875.928C837.812 864.278 823.78 852.718 809.25 841.879L806.336 839.722V839.721C791.717 828.94 776.529 818.966 760.281 810.292C656.833 755.156 520.013 765.403 410.874 820.201C301.625 875.05 216.59 968.017 151.008 1070.95L150.277 1070.48C215.91 967.475 301.048 874.37 410.485 819.427C519.81 764.536 656.935 754.228 760.689 809.527C776.983 818.226 792.207 828.224 806.851 839.023C822.445 850.496 837.426 862.835 852.473 875.259C867.523 887.686 882.64 900.198 898.522 912.031C945.169 946.793 1003.81 976.812 1062.36 971.235H1062.36C1089.55 968.687 1113.22 958.325 1135.05 944.778C1114.73 957.184 1092.62 966.491 1067.47 969.117C1007.38 975.484 947.273 944.134 900.131 907.784C884.08 895.419 868.84 882.322 853.69 869.31C838.538 856.295 823.475 843.365 807.766 831.319C793.008 819.995 777.682 809.478 761.212 800.322C656.409 742.104 516.208 752.086 404.96 808.259C293.601 864.482 207.485 960.127 141.011 1065.47L140.278 1065C206.8 959.588 293.02 863.805 404.569 807.485C515.135 751.657 654.325 741.333 759.163 798.209L761.633 799.564C777.117 808.172 791.587 817.977 805.515 828.515L808.294 830.632C824.026 842.694 839.106 855.64 854.255 868.652C869.407 881.667 884.63 894.748 900.66 907.097V907.098C947.751 943.408 1007.63 974.585 1067.37 968.255H1067.38C1089.21 965.975 1108.75 958.629 1126.83 948.571C1110.23 957.454 1092.3 963.9 1072.46 966.19C1011.16 973.342 949.815 940.823 902.227 902.922H902.228C886.019 890.021 870.667 876.352 855.418 862.753C840.166 849.151 825.018 835.62 809.203 822.981L806.408 820.769C792.396 809.748 777.826 799.462 762.177 790.427C655.983 729.144 512.448 738.816 399.07 796.417L396.415 797.775C284.24 855.553 197.877 953.18 131.012 1060.08L130.645 1059.85L130.277 1059.62C197.715 951.805 285.016 853.34 398.677 795.645C512.245 737.947 656.1 728.21 762.61 789.676C778.304 798.737 792.909 809.047 806.944 820.086L809.744 822.304C825.581 834.959 840.746 848.508 855.994 862.106C871.246 875.708 886.581 889.361 902.768 902.244C949.931 939.806 1010.45 971.934 1070.94 965.488L1072.36 965.329C1091.75 963.091 1109.31 956.858 1125.6 948.244C1110.76 955.704 1094.82 961.091 1077.4 963.27C1014.87 971.207 952.305 937.494 904.261 898.069L904.26 898.068C887.889 884.646 872.431 870.406 857.086 856.221C841.738 842.033 826.505 827.9 810.566 814.678C795.569 802.25 779.956 790.675 763.041 780.556C655.482 716.217 508.576 725.597 393.089 784.573C277.501 843.573 189.205 944.536 120.922 1054.69L120.553 1054.46L120.185 1054.23C188.512 944.007 276.912 842.9 392.694 783.801C508.374 724.727 655.608 715.282 763.487 779.812C780.45 789.959 796.098 801.564 811.118 814.011H811.119C827.079 827.251 842.331 841.4 857.675 855.584C873.022 869.771 888.462 883.994 904.81 897.398C952.423 936.47 1014.15 969.776 1075.83 962.586L1077.29 962.409C1095.2 960.169 1111.55 954.517 1126.74 946.692C1113.04 953.347 1098.37 958.175 1082.46 960.335C1018.73 969.031 954.921 934.149 906.404 893.163L903.318 890.539C887.94 877.372 873.356 863.49 858.874 849.64C843.423 834.863 828.088 820.125 812.013 806.313L812.014 806.314C796.905 793.353 781.126 781.224 764.017 770.633C655.103 703.212 504.826 712.299 387.219 772.677L384.465 774.101C268.126 834.672 179.592 937.599 110.941 1049.25L110.572 1049.02L110.203 1048.79C179.437 936.196 268.928 832.381 386.822 771.906C504.624 711.429 655.235 702.275 764.473 769.896C781.631 780.516 797.445 792.675 812.577 805.656H812.578C828.674 819.486 844.026 834.241 859.473 849.013C874.922 863.787 890.467 878.58 906.963 892.5C955.423 933.437 1018.98 968.121 1082.35 959.476H1082.35C1099.1 957.201 1114.47 951.948 1128.8 944.705C1115.95 950.791 1102.23 955.232 1087.45 957.371C1022.49 966.853 957.457 930.774 908.484 888.265L906.924 886.907C890.824 872.842 875.651 857.935 860.594 843.053C845.048 827.687 829.628 812.348 813.425 797.967C798.204 784.472 782.288 771.8 764.956 760.728L763.662 759.905C653.478 690.321 500.588 699.298 381.312 760.799C261.495 822.575 171.034 928.894 100.925 1043.83L100.555 1043.6L100.185 1043.37C170.335 928.374 260.899 821.907 380.915 760.028C500.855 698.185 654.817 689.312 765.423 759.997C782.804 771.101 798.756 783.804 813.999 797.318H814C830.225 811.719 845.663 827.076 861.204 842.437C876.748 857.8 892.395 873.169 909.053 887.609L909.052 887.61C957.966 930.069 1022.75 965.939 1087.32 956.513H1087.32C1102.34 954.34 1116.25 949.774 1129.29 943.512C1117.77 948.654 1105.55 952.451 1092.5 954.463L1090.95 954.695C1025.26 964.138 959.678 927.113 910.637 883.425C893.812 868.432 878.039 852.474 862.393 836.527C846.743 820.577 831.221 804.638 814.88 789.667C799.531 775.602 783.467 762.414 765.912 750.859C654.268 677.328 497.285 685.813 375.422 748.957C253.495 812.108 161.953 921.104 90.9521 1038.45L90.2109 1038C161.251 920.59 252.895 811.441 375.022 748.187C497.084 684.94 654.415 676.387 766.389 750.136C783.993 761.723 800.095 774.941 815.466 789.027C831.827 804.017 847.367 819.975 863.012 835.92C878.659 851.868 894.412 867.806 911.213 882.776C960.196 926.413 1025.53 963.224 1090.82 953.837L1092.37 953.606C1106.88 951.369 1120.36 946.91 1133.01 940.835C1121.86 945.798 1110.06 949.493 1097.5 951.536C1030.09 962.552 962.617 924.119 912.707 878.553C895.72 863.038 879.843 846.51 864.101 829.978C848.355 813.441 832.745 796.902 816.281 781.347C800.822 766.748 784.609 753.045 766.842 740.981L765.516 740.087C652.591 664.432 492.993 672.839 369.504 737.105C245.485 801.668 152.843 913.305 80.9248 1033.05L80.5537 1032.83L80.1816 1032.6C152.139 912.794 244.883 801.005 369.104 736.337C492.793 671.967 652.741 663.491 765.998 739.368L767.328 740.264C785.145 752.36 801.395 766.097 816.877 780.717C833.361 796.291 848.989 812.849 864.729 829.38C880.472 845.914 896.33 862.422 913.292 877.913C962.753 923.069 1029.3 961.033 1095.79 950.928L1097.36 950.68C1111.76 948.338 1125.15 943.814 1137.71 937.686C1126.64 942.688 1114.93 946.438 1102.48 948.571L1100.87 948.839C1032.78 959.753 964.76 920.378 914.798 873.629C897.662 857.598 881.679 840.499 865.838 823.379C849.993 806.256 834.291 789.113 817.703 772.974V772.973C802.115 757.804 785.754 743.584 767.765 731.039C653.4 651.369 489.672 659.269 363.579 725.189L360.63 726.745C235.988 792.915 143.158 906.396 70.8906 1027.59L70.1465 1027.14C143.02 904.935 236.846 790.465 363.179 724.421C489.473 658.395 653.56 650.425 768.26 730.328H768.261C786.3 742.908 802.697 757.161 818.308 772.352C834.915 788.51 850.635 805.672 866.474 822.789C882.316 839.91 898.279 856.988 915.39 872.996C965.291 919.688 1033.05 958.831 1100.73 947.982L1102.33 947.717C1116.12 945.356 1128.99 941.004 1141.08 935.152C1130.47 939.896 1119.27 943.484 1107.39 945.614C1037.55 958.2 967.625 917.377 916.814 868.737C899.517 852.184 883.424 834.505 867.48 816.794C851.534 799.079 835.739 781.332 819.023 764.623C803.324 748.921 786.798 734.148 768.613 721.131L767.255 720.166C651.588 638.439 485.283 646.275 357.544 713.325C229.305 780.637 134.501 897.63 60.7461 1022.18L60.373 1021.96L60.001 1021.74C133.791 897.127 228.698 779.978 357.142 712.559C485.585 645.139 653.06 637.432 769.117 720.426H769.118C787.353 733.478 803.915 748.285 819.637 764.01C836.373 780.739 852.185 798.506 868.125 816.215C884.068 833.927 900.142 851.583 917.414 868.111C968.163 916.693 1037.82 957.272 1107.24 944.761C1119.3 942.598 1130.66 938.922 1141.42 934.051C1132.22 937.871 1122.59 940.821 1112.47 942.717L1110.81 943.019C1040.31 955.404 969.86 913.679 918.995 863.907C901.549 846.837 885.35 828.589 869.308 810.29C853.262 791.988 837.374 773.637 820.534 756.344C804.723 740.108 788.058 724.793 769.651 711.294C653.48 626.156 484.746 632.718 354.798 699.916L351.735 701.515C221.377 770.229 125.501 889.871 50.8281 1016.82L50.4541 1016.6L50.0801 1016.38C124.787 889.373 220.766 769.57 351.331 700.747C481.885 631.952 652.739 624.537 770.164 710.594H770.165C788.622 724.129 805.323 739.481 821.155 755.739C838.014 773.053 853.92 791.424 869.959 809.719C886.002 828.017 902.181 846.243 919.601 863.288C970.404 913 1040.58 954.477 1110.66 942.165L1112.31 941.864C1124.19 939.638 1135.4 935.95 1146.02 931.097C1136.94 934.907 1127.43 937.869 1117.46 939.815C1045.19 953.946 972.794 910.788 921.065 859.037C903.462 841.431 887.158 822.612 871.016 803.73C854.87 784.845 838.886 765.897 821.91 748.015C805.971 731.208 789.158 715.376 770.528 701.396C652.077 612.531 478.233 619.553 345.764 689.643C213.295 759.731 116.338 882.053 40.7471 1011.41L40.373 1011.19L39.998 1010.97C115.622 881.558 212.682 759.076 345.358 688.877C478.034 618.678 652.256 611.581 771.049 700.702C789.145 714.282 805.523 729.599 821.04 745.843L822.538 747.418C839.534 765.321 855.534 784.289 871.674 803.167C887.817 822.049 904.102 840.845 921.679 858.425C973.344 910.113 1045.46 953.01 1117.3 938.965C1129.73 936.537 1141.45 932.516 1152.52 927.233C1142.98 931.416 1132.97 934.669 1122.46 936.798C1048.98 951.714 975.35 907.36 923.167 854.086L921.506 852.382C904.377 834.745 888.484 815.96 872.753 797.101C856.511 777.629 840.441 758.081 823.342 739.614C807.291 722.275 790.313 705.889 771.488 691.437C651.681 599.489 474.456 606.246 339.877 677.71C205.289 749.201 107.259 874.173 30.7773 1005.94L30.4023 1005.72L30.0264 1005.5C106.54 873.682 204.672 748.547 339.47 676.944C474.257 605.37 651.866 598.538 772.017 690.749C790.892 705.24 807.907 721.662 823.979 739.024C841.097 757.512 857.184 777.081 873.42 796.545C889.659 816.013 906.049 835.378 923.787 853.479L923.786 853.479C975.906 906.689 1049.25 950.774 1122.29 935.948V935.947C1132.69 933.841 1142.59 930.631 1152.03 926.501C1144.18 929.638 1136.02 932.146 1127.53 933.927C1052.84 949.601 977.976 904.08 925.338 849.282C907.424 830.638 890.908 810.678 874.571 790.62C858.232 770.558 842.072 750.4 824.854 731.336C808.665 713.452 791.575 696.533 772.528 681.599C651.355 586.595 470.766 593.032 334.067 665.898C197.369 738.764 98.258 866.414 20.8584 1000.58L20.4834 1000.36L20.1074 1000.15C97.538 865.927 196.751 738.112 333.66 665.134C470.569 592.156 651.545 585.642 773.062 680.916C792.161 695.89 809.287 712.847 825.496 730.753L825.497 730.754C842.734 749.839 858.911 770.019 875.244 790.072C891.581 810.13 908.075 830.065 925.962 848.682C978.537 903.413 1053.11 948.658 1127.36 933.078C1138.96 930.642 1149.96 926.838 1160.39 921.917C1151.48 925.778 1142.18 928.835 1132.46 930.942L1130.68 931.316C1055.36 946.672 980.043 900.246 927.364 844.365H927.365C909.29 825.199 892.672 804.662 876.237 784.014C860.313 764.006 844.561 743.897 827.81 724.804L826.186 722.959C809.895 704.515 792.63 687.07 773.36 671.654C650.821 573.594 466.862 579.739 328.053 653.979C189.235 728.247 89.0228 858.538 10.7324 995.115L10.3574 994.9L9.98047 994.684C88.3009 858.054 188.613 727.597 327.644 653.216C466.663 578.862 651.016 572.641 773.901 670.978C793.222 686.434 810.524 703.918 826.835 722.385C844.214 742.046 860.484 762.83 876.915 783.474C893.349 804.122 909.947 824.633 927.995 843.771C981.025 900.024 1056.82 946.456 1132.28 930.096C1142.69 927.838 1152.62 924.485 1162.11 920.213C1154.21 923.468 1146.01 926.094 1137.5 927.998C1060.36 945.243 983.05 897.331 929.484 839.45C902.702 810.51 879.148 778.508 854.686 747.546C830.215 716.573 804.825 686.625 774.339 661.732C650.444 560.589 463.11 566.442 322.182 642.085C181.254 717.727 79.9612 850.696 0.75293 989.675L0.375977 989.46L0 989.245C79.2373 850.215 180.63 717.078 321.771 641.32C462.913 565.563 650.644 559.635 774.886 661.062C805.448 686.017 830.887 716.025 855.365 747.008C879.852 778.002 903.369 809.956 930.12 838.862C983.622 896.675 1060.64 944.294 1137.31 927.152C1150.33 924.239 1162.62 919.624 1174.22 913.643C1174.72 913.221 1175.22 912.794 1175.72 912.369C1179.22 909.367 1182.67 906.299 1186.08 903.186C1195.85 894.196 1205.2 884.725 1214.3 875.283C1217.34 872.014 1220.36 868.735 1223.34 865.463C1224.97 863.669 1226.59 861.864 1228.21 860.048C1228.7 859.478 1229.2 858.909 1229.69 858.34C1236.13 850.889 1242.43 843.256 1248.6 835.464C1254.04 828.45 1259.37 821.311 1264.6 814.059C1272.49 802.866 1280.14 791.416 1287.61 779.755C1292.05 772.622 1296.42 765.411 1300.73 758.136C1304.64 751.34 1308.49 744.488 1312.29 737.59C1317.57 727.693 1322.75 717.705 1327.85 707.646C1329.91 703.428 1331.96 699.2 1333.99 694.961C1338.64 684.914 1343.2 674.815 1347.72 664.682C1351.06 656.878 1354.37 649.056 1357.65 641.225C1380.62 586.518 1402.79 531.34 1429.8 478.539C1483.77 372.955 1564.22 272.021 1677.3 235.601C1740.72 215.194 1808.78 216.812 1875.28 214.48C1941.82 212.148 2010.9 204.727 2067.1 169.344C2107.45 143.921 2138.79 100.247 2145.47 54.3779C2145.12 53.1975 2144.75 52.0181 2144.36 50.8428L2144.77 50.7051L2145.19 50.5693C2145.38 51.1535 2145.57 51.7388 2145.75 52.3242C2146.04 50.1127 2146.26 47.8965 2146.43 45.6777C2145.6 41.7607 2144.54 37.8618 2143.25 33.9932L2143.66 33.8564L2144.07 33.7188C2145.06 36.6735 2145.9 39.6466 2146.63 42.6299C2146.72 40.8191 2146.77 39.0067 2146.78 37.1943C2145.86 30.4545 2144.32 23.7507 2142.11 17.1348L2142.52 16.9971L2142.93 16.8604C2144.51 21.5883 2145.75 26.3601 2146.67 31.1562C2146.21 20.7768 2144.37 10.4217 2140.97 0.275391L2141.79 0ZM1181.66 910.956C1180.59 911.653 1179.52 912.34 1178.45 913.015C1171.98 918.32 1165.41 923.574 1158.67 928.622C1166.48 922.86 1174.11 916.889 1181.66 910.956ZM1227.77 869.186C1226.19 870.74 1224.61 872.283 1223.02 873.817C1218.3 879.004 1213.42 884.024 1208.38 888.822C1209.08 888.207 1209.77 887.59 1210.47 886.971C1216.47 881.342 1222.23 875.384 1227.77 869.186ZM1216.33 878.036C1213.91 880.672 1211.45 883.269 1208.95 885.823C1209.22 885.58 1209.49 885.336 1209.76 885.092C1212.69 882.136 1215.57 879.112 1218.4 876.03C1217.71 876.701 1217.02 877.369 1216.33 878.036ZM1233.81 866.268C1231.95 868.103 1230.08 869.925 1228.2 871.731C1223.67 876.612 1218.99 881.319 1214.15 885.81C1221.01 879.71 1227.56 873.159 1233.81 866.268ZM2161.56 304.565C2153.56 346.44 2122.36 385.101 2083.93 405.788L2082.12 406.753C2077.88 408.975 2073.57 411.007 2069.18 412.868L2067.98 413.371C2017.2 434.494 1960.02 433.483 1905.02 427.44C1894.35 426.272 1883.69 424.894 1873.06 423.463C1823.11 416.718 1772.63 408.842 1722.24 413.354C1705.97 414.816 1690.01 417.53 1674.38 421.622C1568.16 449.408 1485.06 537.314 1420.31 627.711C1415.6 634.282 1410.95 640.874 1406.34 647.512V647.513C1354.16 722.318 1302.17 796.654 1242.83 857.228C1236.49 864.826 1229.82 872.102 1222.81 878.926C1289.6 817.789 1346.93 738.532 1404 658.264C1408.7 651.653 1413.41 645.078 1418.16 638.551L1421.24 634.336C1486.3 545.878 1569.01 460.18 1673.94 433.139L1673.94 433.14C1689.17 429.235 1704.68 426.593 1720.49 425.19L1722.02 425.059C1772.63 420.787 1823.16 429.184 1873.05 436.499C1883.69 438.059 1894.32 439.553 1904.96 440.865C1960.3 447.608 2017.84 449.268 2068.96 428.272C2073.96 426.219 2078.9 423.928 2083.74 421.387C2125.49 399.471 2158.78 356.275 2163.25 310.745C2162.76 308.68 2162.19 306.62 2161.56 304.565ZM1218.67 873.994C1217.34 875.487 1216 876.971 1214.65 878.445C1215 878.11 1215.35 877.774 1215.7 877.438C1217.17 875.833 1218.63 874.214 1220.07 872.584C1219.6 873.055 1219.14 873.525 1218.67 873.994ZM1227.87 866.621C1225.39 869.532 1222.86 872.407 1220.3 875.236C1220.99 874.569 1221.69 873.898 1222.38 873.227C1225.23 870.101 1228.02 866.913 1230.75 863.676C1229.79 864.661 1228.83 865.643 1227.87 866.621ZM1240.49 856.297C1239.09 857.75 1237.69 859.194 1236.28 860.632C1232.45 865.233 1228.52 869.732 1224.46 874.099C1225.5 873.113 1226.54 872.124 1227.57 871.13C1232.02 866.342 1236.32 861.383 1240.49 856.297ZM1229.73 862.655C1228.11 864.607 1226.47 866.547 1224.81 868.473C1225.62 867.664 1226.42 866.853 1227.22 866.039C1229 863.958 1230.75 861.858 1232.48 859.743C1231.56 860.717 1230.65 861.688 1229.73 862.655ZM1243.66 850.062C1241.97 851.891 1240.27 853.71 1238.57 855.517C1236.06 858.665 1233.5 861.78 1230.9 864.849C1232.48 863.259 1234.06 861.659 1235.64 860.05C1238.36 856.769 1241.04 853.436 1243.66 850.062ZM1229.5 861.388C1228.94 862.065 1228.37 862.741 1227.8 863.416C1228.23 862.973 1228.65 862.528 1229.07 862.084C1229.68 861.352 1230.29 860.62 1230.89 859.885C1230.43 860.387 1229.96 860.888 1229.5 861.388ZM1253.19 842.751C1251.27 844.849 1249.34 846.933 1247.4 849.002C1243.91 853.512 1240.32 857.939 1236.62 862.263C1238.48 860.411 1240.33 858.544 1242.17 856.665C1245.96 852.133 1249.63 847.487 1253.19 842.751ZM1240.5 851.067C1238.69 853.397 1236.86 855.716 1235 858.018C1235.97 856.999 1236.94 855.976 1237.91 854.949C1239.85 852.522 1241.75 850.072 1243.63 847.606C1242.59 848.765 1241.55 849.918 1240.5 851.067ZM1240.44 849.327C1239.46 850.584 1238.47 851.838 1237.48 853.09C1238.27 852.236 1239.05 851.38 1239.83 850.521C1240.86 849.197 1241.88 847.867 1242.9 846.535C1242.08 847.468 1241.26 848.4 1240.44 849.327ZM1254.5 838.065C1253.04 839.711 1251.58 841.347 1250.11 842.976C1247.65 846.31 1245.13 849.613 1242.56 852.877C1243.95 851.407 1245.35 849.931 1246.74 848.446C1249.38 845.029 1251.97 841.565 1254.5 838.065ZM2160.51 287.927C2152.64 329.721 2121.86 368.389 2083.75 389.434H2083.75C2078.95 392.071 2074.06 394.497 2069.06 396.662C2018.25 418.833 1960.66 418.615 1905.17 413.182H1905.17C1894.49 412.132 1883.85 410.883 1873.21 409.57C1823.22 403.4 1772.7 395.997 1722.38 400.785C1706.15 402.322 1690.19 405.099 1674.57 409.255C1568.42 437.435 1485.74 525.465 1421.73 616.35L1421.73 616.351C1417.08 622.941 1412.5 629.589 1407.94 636.248C1359.78 706.633 1312.25 776.923 1258.88 836.473C1255.7 840.899 1252.42 845.263 1249.06 849.544C1305.5 790.377 1355.45 718.95 1405.63 647.016C1410.24 640.374 1414.9 633.78 1419.6 627.206C1484.38 536.777 1567.63 448.65 1674.16 420.783C1689.35 416.807 1704.85 414.128 1720.63 412.631L1722.16 412.489C1772.68 407.967 1823.26 415.863 1873.18 422.604C1883.81 424.035 1894.45 425.411 1905.11 426.578C1960.51 432.665 2017.98 433.62 2068.84 412.069C2073.83 409.952 2078.72 407.613 2083.52 405.025H2083.52C2124.94 382.728 2157.8 339.523 2162.19 294.087C2161.7 292.028 2161.14 289.974 2160.51 287.927ZM1239.7 848.815C1239.59 848.95 1239.48 849.084 1239.38 849.218C1239.5 849.075 1239.63 848.932 1239.76 848.789C1239.87 848.639 1239.99 848.49 1240.11 848.34C1239.97 848.499 1239.83 848.657 1239.7 848.815ZM1255.36 834.235C1253.75 836.114 1252.13 837.982 1250.51 839.84C1248.59 842.47 1246.64 845.088 1244.66 847.689C1246.26 845.949 1247.85 844.199 1249.43 842.438C1251.44 839.723 1253.42 836.986 1255.36 834.235ZM1250.86 837.308C1249.6 839.028 1248.33 840.746 1247.06 842.461C1247.98 841.411 1248.91 840.358 1249.83 839.301C1251.12 837.541 1252.39 835.774 1253.65 834.005C1252.72 835.109 1251.79 836.21 1250.86 837.308ZM1265.62 825.245C1263.78 827.41 1261.93 829.564 1260.07 831.703C1257.66 835.175 1255.19 838.619 1252.67 842.028C1254.52 840.011 1256.36 837.98 1258.19 835.937C1260.72 832.409 1263.2 828.842 1265.62 825.245ZM1250.77 835.725C1250.35 836.289 1249.93 836.854 1249.51 837.417C1249.23 837.791 1248.95 838.166 1248.67 838.54C1249.18 837.951 1249.68 837.36 1250.18 836.769C1250.85 835.857 1251.51 834.945 1252.17 834.033C1251.7 834.598 1251.24 835.162 1250.77 835.725ZM1265.34 822.388C1263.95 824.066 1262.56 825.739 1261.16 827.402C1259.21 830.26 1257.23 833.109 1255.22 835.941C1256.61 834.362 1258 832.776 1259.38 831.182C1261.4 828.268 1263.39 825.333 1265.34 822.388ZM1264.77 820.479C1263.32 822.283 1261.86 824.079 1260.39 825.866C1258.98 827.92 1257.56 829.973 1256.12 832.021C1257.57 830.316 1259.02 828.602 1260.47 826.88C1261.92 824.751 1263.35 822.617 1264.77 820.479ZM2159.48 271.412C2151.69 313.077 2121.31 351.705 2083.56 373.104C2078.79 375.817 2073.92 378.28 2068.96 380.492L2067.78 381.021C2017.49 403.219 1960.47 403.674 1905.35 398.934H1905.35C1894.68 398.012 1884 396.898 1873.38 395.687L1863.99 394.625C1817.05 389.273 1769.67 383.487 1722.52 388.216C1706.33 389.827 1690.4 392.705 1674.79 396.898C1568.72 425.51 1486.43 513.654 1423.18 605C1418.57 611.637 1414.05 618.307 1409.57 624.995L1397.15 643.538C1356 704.997 1315.24 765.956 1270.41 819.559C1268.1 823.121 1265.73 826.663 1263.31 830.172C1314.58 771.93 1360.58 703.924 1407.23 635.759C1411.21 629.931 1415.22 624.109 1419.28 618.326L1421.02 615.851C1485.05 524.93 1567.88 436.679 1674.34 408.417C1690.02 404.248 1706.02 401.463 1722.3 399.922C1772.73 395.123 1823.37 402.544 1873.31 408.709C1883.95 410.022 1894.58 411.271 1905.26 412.319C1960.71 417.75 2018.12 417.946 2068.71 395.866H2068.72C2073.69 393.713 2078.55 391.302 2083.33 388.676L2083.33 388.675C2124.4 365.994 2156.81 322.818 2161.11 277.482C2160.64 275.454 2160.09 273.43 2159.48 271.412ZM1260.75 823.417C1259.72 824.897 1258.69 826.373 1257.65 827.845C1258.33 827.014 1259.02 826.18 1259.7 825.346C1260.33 824.424 1260.96 823.501 1261.59 822.579C1261.94 822.057 1262.3 821.534 1262.65 821.011C1262.02 821.814 1261.38 822.617 1260.75 823.417ZM1275.57 809.789C1273.85 811.942 1272.12 814.085 1270.39 816.216C1268.45 819.245 1266.47 822.265 1264.46 825.271C1266.21 823.209 1267.96 821.133 1269.71 819.048C1271.7 815.976 1273.65 812.887 1275.57 809.789ZM1274.15 808.626C1272.92 810.207 1271.68 811.784 1270.44 813.354C1269.88 814.232 1269.31 815.109 1268.75 815.984C1267.8 817.45 1266.84 818.915 1265.87 820.379C1267.15 818.83 1268.42 817.274 1269.68 815.713C1271.2 813.355 1272.68 810.991 1274.15 808.626ZM1273.32 807.211C1272.13 808.781 1270.93 810.346 1269.74 811.905C1268.52 813.767 1267.3 815.624 1266.07 817.474C1267.29 815.941 1268.51 814.401 1269.73 812.857C1270.94 810.981 1272.13 809.099 1273.32 807.211ZM2158.43 254.801C2150.76 296.379 2120.8 335.009 2083.36 356.776C2078.64 359.537 2073.79 362.037 2068.87 364.322L2068.87 364.321C2018.55 387.598 1961.13 388.833 1905.52 384.712H1905.52C1894.84 383.909 1884.17 382.924 1873.5 381.848C1823.47 376.801 1772.85 370.408 1722.64 375.729L1722.64 375.728C1706.46 377.44 1690.55 380.356 1674.98 384.597L1672.5 385.287C1567.71 414.982 1486.66 502.596 1424.58 593.693C1420.06 600.362 1415.55 607.067 1411.12 613.802C1367.89 679.476 1326.06 745.663 1279.93 804.282C1278.05 807.422 1276.13 810.557 1274.16 813.68C1321.7 756.001 1364.78 690.181 1408.85 624.512C1413.33 617.82 1417.86 611.148 1422.47 604.506C1485.25 513.835 1566.9 426.138 1672.07 396.745L1674.56 396.062C1689.73 391.987 1705.2 389.15 1720.92 387.508L1722.44 387.354C1772.84 382.298 1823.5 389.234 1873.47 394.824L1873.47 394.825C1884.09 396.037 1894.77 397.15 1905.43 398.07C1960.94 402.845 2018.24 402.325 2068.61 379.7C2072.93 377.775 2077.17 375.658 2081.34 373.351L2083.13 372.351C2123.84 349.279 2155.82 306.157 2160.08 260.953C2159.6 258.897 2159.05 256.846 2158.43 254.801ZM1269.14 811.057C1268.81 811.555 1268.48 812.054 1268.15 812.552C1268.44 812.169 1268.74 811.784 1269.03 811.4C1269.35 810.905 1269.68 810.409 1270 809.913C1269.71 810.295 1269.43 810.676 1269.14 811.057ZM1283.73 796.133C1282.16 798.202 1280.6 800.266 1279.03 802.317C1277.72 804.475 1276.41 806.627 1275.08 808.771C1274.86 809.131 1274.63 809.489 1274.41 809.849C1276.02 807.839 1277.62 805.82 1279.21 803.792C1279.73 802.923 1280.25 802.053 1280.76 801.184C1281.76 799.504 1282.75 797.82 1283.73 796.133ZM1279.21 799.366C1277.86 801.568 1276.5 803.763 1275.13 805.951C1276.19 804.583 1277.25 803.21 1278.31 801.833C1279.62 799.667 1280.92 797.496 1282.21 795.317C1281.21 796.671 1280.21 798.02 1279.21 799.366ZM1277.72 799.416C1277.06 800.474 1276.39 801.531 1275.73 802.585C1276.65 801.358 1277.57 800.128 1278.48 798.895C1279.18 797.762 1279.87 796.627 1280.55 795.49C1279.61 796.802 1278.66 798.111 1277.72 799.416ZM2157.39 238.275C2149.81 279.72 2120.26 318.308 2083.18 340.421C2078.47 343.218 2073.66 345.791 2068.75 348.115L2067.58 348.669C2017.78 371.943 1960.92 373.864 1905.71 370.463C1895 369.806 1884.32 368.913 1873.67 367.965C1823.61 363.493 1772.93 357.571 1722.81 363.169C1706.67 364.955 1690.79 367.946 1675.23 372.25C1569.31 401.651 1487.87 490.076 1426.06 582.353L1422.71 587.394C1419.37 592.437 1416.05 597.492 1412.77 602.559C1371.3 666.86 1331.57 731.932 1288 790.433C1286.46 793.139 1284.91 795.838 1283.33 798.527C1327.81 741.266 1368.43 677.086 1410.39 613.326C1414.83 606.587 1419.34 599.877 1423.87 593.206V593.205C1486.46 501.348 1568.45 412.852 1674.75 383.761V383.76C1689.39 379.772 1704.33 376.954 1719.51 375.202L1722.55 374.865C1772.87 369.533 1823.6 375.942 1873.59 380.985C1884.25 382.061 1894.92 383.046 1905.59 383.848C1961.16 387.967 2018.39 386.717 2068.5 363.536C2073.4 361.26 2078.23 358.773 2082.93 356.027L2082.93 356.026C2123.29 332.555 2154.83 289.461 2159.01 244.359C2158.54 242.326 2158 240.298 2157.39 238.275ZM1291.35 782.708C1289.98 784.622 1288.61 786.531 1287.23 788.432C1285.85 790.827 1284.45 793.216 1283.04 795.598C1284.46 793.725 1285.87 791.846 1287.27 789.96C1288.64 787.549 1290 785.132 1291.35 782.708ZM1286.81 786.684C1285.92 788.21 1285.01 789.734 1284.11 791.255C1284.91 790.161 1285.7 789.066 1286.5 787.968C1287.38 786.446 1288.25 784.922 1289.12 783.395C1288.35 784.493 1287.58 785.589 1286.81 786.684ZM1285.94 786.013C1285.38 786.952 1284.81 787.89 1284.24 788.826C1284.86 787.96 1285.47 787.091 1286.08 786.222C1286.64 785.263 1287.2 784.304 1287.76 783.343C1287.16 784.234 1286.55 785.124 1285.94 786.013ZM2156.35 221.641C2148.88 263.011 2119.73 301.611 2082.97 324.055L2081.21 325.111C2077.1 327.554 2072.89 329.834 2068.64 331.908L2067.47 332.475C2017.92 356.305 1961.13 358.955 1905.87 356.178C1895.15 355.639 1884.48 354.9 1873.81 354.07L1864.41 353.323C1817.37 349.529 1769.89 345.102 1722.95 350.6C1706.83 352.487 1690.97 355.515 1675.42 359.884C1569.56 389.706 1488.54 478.227 1427.48 570.992C1423.05 577.728 1418.67 584.51 1414.38 591.295C1374.56 654.279 1336.84 718.271 1295.7 776.579C1294.29 779.176 1292.87 781.766 1291.43 784.348C1333.35 727.349 1371.87 664.388 1412.05 602.088V602.087C1416.42 595.328 1420.85 588.59 1425.34 581.871V581.87C1486.69 490.27 1567.49 402.286 1672.51 372.116L1675 371.414C1690.61 367.097 1706.53 364.098 1722.71 362.307L1722.71 362.308C1772.95 356.698 1823.73 362.632 1873.75 367.101C1884.4 368.048 1895.07 368.941 1905.76 369.598C1961.37 373.024 2018.51 371.031 2068.38 347.332H2068.38C2073.26 345.02 2078.05 342.459 2082.74 339.676V339.677C2120.17 317.354 2149.8 278.229 2156.83 236.447C2156.82 236.412 2156.81 236.376 2156.8 236.341L2156.85 236.325C2157.33 233.474 2157.7 230.61 2157.96 227.739C2157.49 225.701 2156.95 223.668 2156.35 221.641ZM1297.97 770.53C1296.78 772.284 1295.59 774.034 1294.39 775.777C1293.39 777.592 1292.37 779.403 1291.35 781.21C1292.56 779.519 1293.76 777.824 1294.96 776.124C1295.97 774.263 1296.98 772.398 1297.97 770.53ZM1294.56 773.224C1293.73 774.704 1292.89 776.183 1292.04 777.658C1292.58 776.88 1293.12 776.101 1293.66 775.32C1294.44 773.902 1295.22 772.48 1296 771.057C1295.53 771.78 1295.04 772.502 1294.56 773.224ZM1293.47 773.255C1293.39 773.396 1293.3 773.537 1293.22 773.678C1293.42 773.381 1293.62 773.083 1293.82 772.785C1293.91 772.612 1294.01 772.438 1294.11 772.265C1293.9 772.595 1293.68 772.925 1293.47 773.255ZM2155.32 205.169C2147.94 246.403 2119.2 284.955 2082.8 307.736C2078.15 310.645 2073.39 313.303 2068.57 315.748L2068.57 315.749C2019 340.661 1961.83 344.081 1906.07 341.966C1895.37 341.555 1884.65 340.926 1874 340.225L1864.59 339.583C1817.52 336.315 1770.01 332.321 1723.14 338.078C1707.06 340.04 1691.2 343.132 1675.68 347.574L1673.21 348.293C1568.63 379.177 1488.81 467.19 1428.98 559.688C1424.59 566.47 1420.29 573.283 1416.05 580.089C1377.59 642.165 1341.6 705.495 1302.49 763.839C1301.4 765.928 1300.3 768.013 1299.19 770.094C1338.67 713.452 1375.16 651.703 1413.64 590.831L1416.07 587.012C1418.5 583.194 1420.97 579.38 1423.44 575.578L1426.76 570.516C1487.85 477.702 1569.01 388.958 1675.19 359.049H1675.19C1690.79 354.667 1706.69 351.632 1722.85 349.739C1773.03 343.863 1823.81 349.302 1873.88 353.206C1884.54 354.035 1895.21 354.773 1905.91 355.312C1961.14 358.087 2017.75 355.427 2067.09 331.694L2068.26 331.13C2073.09 328.771 2077.88 326.145 2082.52 323.314L2082.52 323.315C2119.63 300.656 2148.87 261.517 2155.78 219.806C2155.75 219.701 2155.72 219.596 2155.68 219.492L2155.84 219.442C2156.29 216.688 2156.64 213.921 2156.89 211.148C2156.43 209.15 2155.91 207.157 2155.32 205.169ZM1301.61 762.515C1300.65 764.304 1299.69 766.091 1298.73 767.874C1299.73 766.387 1300.74 764.896 1301.74 763.402C1302.68 761.596 1303.62 759.788 1304.55 757.976C1303.57 759.492 1302.59 761.005 1301.61 762.515ZM1301.69 760.387C1301.2 761.269 1300.72 762.15 1300.24 763.031C1300.44 762.714 1300.65 762.397 1300.86 762.079C1301.29 761.272 1301.72 760.463 1302.15 759.654C1301.99 759.898 1301.84 760.143 1301.69 760.387ZM2154.28 188.567C2147.02 229.713 2118.68 268.264 2082.58 291.397C2077.97 294.353 2073.25 297.086 2068.42 299.56C2019.08 325.019 1962.01 329.184 1906.2 327.697L1902.18 327.58C1894.14 327.327 1886.11 326.976 1878.11 326.544L1874.11 326.321C1823.96 323.537 1773.16 319.108 1723.26 325.499C1707.2 327.562 1691.39 330.7 1675.88 335.207H1675.87C1570.18 365.829 1489.96 454.614 1430.4 548.328C1426.07 555.13 1421.81 561.989 1417.64 568.851C1380.59 629.89 1346.33 692.397 1309.27 750.609C1308.22 752.702 1307.15 754.791 1306.09 756.876C1343.51 700.382 1378.25 639.457 1415.31 579.631H1415.31C1419.56 572.822 1423.86 566.005 1428.25 559.218C1488.59 465.94 1569.34 377.046 1675.45 346.74C1690.04 342.562 1704.92 339.577 1720.01 337.6L1723.04 337.218C1773.13 331.064 1823.96 336.03 1874.05 339.359C1883.37 339.973 1892.73 340.531 1902.09 340.936L1906.1 341.1C1961.83 343.214 2018.82 339.787 2068.18 314.977L2068.18 314.975C2072.98 312.541 2077.71 309.895 2082.34 307.001C2119.1 283.996 2147.93 244.901 2154.76 203.319C2154.69 203.091 2154.62 202.862 2154.54 202.634L2154.89 202.523C2155.3 199.906 2155.62 197.279 2155.86 194.646C2155.4 192.614 2154.87 190.587 2154.28 188.567ZM1308.24 749.882C1307.56 751.187 1306.89 752.49 1306.21 753.792C1306.98 752.592 1307.75 751.389 1308.51 750.185C1309.18 748.864 1309.84 747.541 1310.49 746.218C1309.74 747.441 1308.99 748.662 1308.24 749.882ZM2153.24 172.058C2146.07 213.064 2118.13 251.56 2082.41 275.015C2077.84 278.017 2073.13 280.815 2068.34 283.335C2019.27 309.325 1962.26 314.224 1906.41 313.431C1895.69 313.257 1884.96 312.901 1874.28 312.437L1869.58 312.226C1820.92 309.992 1771.72 306.491 1723.43 312.94C1707.4 315.078 1691.6 318.28 1676.09 322.851H1676.09C1570.46 353.894 1490.66 442.774 1431.85 536.977L1430.24 539.547C1426.52 545.547 1422.87 551.576 1419.27 557.599C1383.44 617.845 1350.76 679.773 1315.52 737.98C1314.7 739.663 1313.87 741.345 1313.05 743.023C1348.36 686.892 1381.33 627.005 1416.9 568.401C1421.07 561.534 1425.33 554.669 1429.67 547.862C1488.8 454.826 1568.37 366.477 1673.15 335.105L1675.63 334.374C1691.19 329.853 1707.05 326.708 1723.15 324.64V324.639C1773.15 318.235 1824.05 322.673 1874.16 325.455L1874.16 325.456C1883.48 325.989 1892.84 326.418 1902.2 326.713L1906.22 326.831C1961.99 328.316 2018.89 324.145 2068.02 298.789L2068.02 298.788C2072.83 296.329 2077.52 293.609 2082.12 290.667C2118.57 267.302 2147 228.204 2153.72 186.703C2153.62 186.385 2153.52 186.065 2153.41 185.747L2153.83 185.613L2153.89 185.594C2154.27 183.096 2154.57 180.59 2154.79 178.078C2154.34 176.066 2153.82 174.059 2153.24 172.058ZM1315.04 736.491C1314.45 737.664 1313.86 738.834 1313.27 740.005C1313.77 739.195 1314.26 738.385 1314.75 737.574C1315.3 736.449 1315.84 735.321 1316.38 734.193C1315.94 734.96 1315.49 735.726 1315.04 736.491ZM2152.21 155.456C2145.15 196.377 2117.61 234.874 2082.19 258.676C2077.63 261.743 2072.97 264.561 2068.18 267.172L2067.03 267.79C2018.45 293.797 1961.99 299.352 1906.52 299.217C1895.8 299.199 1885.07 298.934 1874.38 298.588C1824.17 296.954 1773.29 293.481 1723.5 300.405H1723.5C1707.5 302.616 1691.73 305.92 1676.25 310.501C1570.68 341.939 1491.29 430.97 1433.2 525.624C1428.97 532.492 1424.85 539.401 1420.81 546.34C1386.28 605.629 1355.21 666.784 1321.83 724.796C1321.08 726.393 1320.32 727.989 1319.56 729.583C1352.97 673.744 1384.29 614.717 1418.53 557.153V557.152C1422.64 550.267 1426.82 543.372 1431.11 536.518C1489.51 442.993 1568.66 354.545 1673.37 322.759L1675.85 322.019C1691.4 317.434 1707.25 314.223 1723.31 312.081C1773.25 305.411 1824.18 309.365 1874.32 311.572C1885 312.036 1895.71 312.392 1906.43 312.565C1962.24 313.358 2019.07 308.454 2067.93 282.569L2067.93 282.567C2072.7 280.061 2077.39 277.278 2081.93 274.29H2081.94C2118.02 250.594 2146.05 211.539 2152.68 170.167C2152.55 169.741 2152.41 169.314 2152.27 168.889L2152.68 168.755L2152.91 168.684C2153.26 166.285 2153.54 163.879 2153.75 161.469C2153.3 159.459 2152.78 157.455 2152.21 155.456ZM2151.18 138.998C2144.21 179.786 2117.06 218.242 2082.03 242.357C2077.51 245.472 2072.86 248.355 2068.11 251.013C2019.53 278.107 1962.7 284.459 1906.73 284.979C1895.99 285.079 1885.24 284.959 1874.58 284.714L1869.86 284.609C1821.15 283.479 1771.84 280.907 1723.7 287.856L1720.7 288.302C1705.76 290.591 1691 293.8 1676.52 298.164C1571.02 329.996 1492.05 419.15 1434.71 514.293C1430.55 521.219 1426.48 528.148 1422.48 535.134C1393.11 586.631 1366.69 639.656 1339.2 691.098C1335.22 698.535 1331.22 705.939 1327.19 713.3C1326.89 713.957 1326.58 714.614 1326.28 715.271C1357.68 660.022 1387.29 602.162 1420.06 545.903C1424.11 538.959 1428.23 532.045 1432.47 525.17C1490.6 430.454 1570.12 341.2 1676 309.67H1676C1691.53 305.075 1707.35 301.763 1723.38 299.547C1771.7 292.827 1821.06 295.881 1869.7 297.563L1874.41 297.722C1883.76 298.024 1893.13 298.265 1902.5 298.332L1906.52 298.35C1961.96 298.485 2018.24 292.928 2066.62 267.025L2067.76 266.41C2072.54 263.812 2077.17 261.008 2081.71 257.956C2117.5 233.904 2145.13 194.844 2151.64 153.551C2151.48 153.047 2151.32 152.543 2151.16 152.04L2151.57 151.904L2151.9 151.798C2152.23 149.506 2152.49 147.208 2152.69 144.905C2152.25 142.931 2151.74 140.962 2151.18 138.998ZM2150.15 122.42C2143.3 163.116 2116.55 201.566 2081.83 226.028L2081.83 226.029C2077.33 229.18 2072.72 232.136 2068.01 234.842H2068.01C2019.67 262.457 1962.94 269.553 1906.9 270.756C1896.15 270.975 1885.42 270.983 1874.72 270.884C1824.46 270.4 1773.49 267.91 1723.85 275.351C1707.91 277.737 1692.16 281.143 1676.72 285.862C1571.29 318.089 1492.76 407.403 1436.14 502.997C1432.03 509.943 1428.01 516.919 1424.09 523.934C1395.2 575.681 1369.61 629.138 1343.01 681.243C1339.52 688.084 1336.01 694.902 1332.47 701.689C1332.4 701.859 1332.32 702.029 1332.24 702.199C1334.31 698.372 1336.37 694.536 1338.43 690.689C1365.91 639.279 1392.35 586.213 1421.73 534.704V534.703C1425.73 527.712 1429.8 520.777 1433.96 513.846L1433.96 513.845C1491.35 418.638 1570.46 329.261 1676.27 297.335C1690.79 292.958 1705.59 289.74 1720.57 287.445L1723.57 286.998C1773.36 279.811 1824.4 282.789 1874.59 283.848L1878.6 283.934C1887.94 284.119 1897.34 284.199 1906.72 284.111C1962.65 283.592 2019.3 277.241 2067.69 250.255V250.256C2072.41 247.61 2077.04 244.742 2081.53 241.643C2116.94 217.27 2144.19 178.249 2150.62 137.083C2150.42 136.449 2150.22 135.814 2150.02 135.181L2150.43 135.046L2150.84 134.912C2150.86 134.98 2150.89 135.049 2150.91 135.117C2151.22 132.888 2151.47 130.652 2151.66 128.413C2151.21 126.41 2150.71 124.412 2150.15 122.42ZM2149.12 105.947C2142.35 146.498 2116 184.884 2081.63 209.636V209.637C2077.17 212.836 2072.58 215.828 2067.88 218.598H2067.88C2019.8 246.77 1963.13 254.6 1907.05 256.433L1903.01 256.55C1894.94 256.769 1886.88 256.887 1878.87 256.918L1874.86 256.927C1824.55 256.98 1773.55 255.001 1723.98 262.718C1708.07 265.206 1692.36 268.658 1676.93 273.441C1571.59 306.1 1493.45 395.499 1437.58 491.582L1436.06 494.204C1432.53 500.326 1429.09 506.459 1425.71 512.616C1397.3 564.614 1372.56 618.498 1346.86 671.261C1344.7 675.682 1342.54 680.096 1340.37 684.499C1341 683.283 1341.62 682.067 1342.24 680.85C1368.83 628.772 1394.43 575.276 1423.33 523.511C1426.76 517.366 1430.28 511.253 1433.85 505.164L1435.39 502.555C1492.05 406.893 1570.73 317.355 1676.46 285.033C1691.95 280.3 1707.75 276.885 1723.72 274.493C1773.45 267.04 1824.51 269.534 1874.73 270.018C1884.08 270.104 1893.46 270.109 1902.86 269.962L1906.88 269.889C1962.88 268.687 2019.43 261.596 2067.58 234.092V234.091C2072.26 231.399 2076.85 228.456 2081.33 225.318L2081.33 225.32C2116.42 200.592 2143.27 161.57 2149.58 120.489C2149.36 119.757 2149.13 119.025 2148.89 118.295L2149.3 118.159L2149.71 118.024C2149.77 118.186 2149.81 118.349 2149.87 118.511C2150.17 116.302 2150.42 114.088 2150.6 111.871C2150.16 109.891 2149.67 107.916 2149.12 105.947ZM2148.1 89.4209C2141.51 129.402 2116.07 167.351 2082.62 192.454L2081.46 193.316C2077.04 196.591 2072.46 199.62 2067.81 202.437L2067.81 202.438C2019.99 231.167 1963.4 239.706 1907.27 242.231C1896.51 242.724 1885.75 242.969 1875.04 243.106C1825.48 243.725 1775.23 242.301 1726.48 249.855L1724.16 250.223C1708.28 252.785 1692.58 256.301 1677.18 261.158L1677.18 261.159C1571.91 294.213 1494.18 383.761 1439.06 480.306C1435.06 487.318 1431.16 494.37 1427.38 501.436C1400.14 552.369 1376.75 605.258 1352.62 657.378C1376.01 608.968 1398.95 559.79 1424.95 512.2V512.199C1428.82 505.158 1432.76 498.145 1436.83 491.146C1492.75 394.992 1571.02 305.368 1676.67 272.613C1692.15 267.816 1707.9 264.355 1723.85 261.861H1723.85C1773.5 254.131 1824.6 256.113 1874.86 256.06H1874.86C1884.19 256.058 1893.58 255.939 1902.99 255.684L1907.02 255.566C1963.06 253.736 2019.55 245.913 2067.44 217.853L2067.44 217.851C2072.12 215.094 2076.69 212.114 2081.12 208.931L2081.13 208.933C2115.88 183.903 2142.32 144.933 2148.55 103.986C2148.29 103.135 2148.03 102.284 2147.75 101.436L2148.16 101.301L2148.57 101.165C2148.66 101.442 2148.75 101.72 2148.84 101.997C2149.14 99.7674 2149.38 97.5323 2149.56 95.2939C2149.13 93.331 2148.65 91.3731 2148.1 89.4209ZM2147.06 72.9102C2140.5 113.232 2114.94 151.57 2081.24 176.978L2079.59 178.209C2075.71 181.061 2071.74 183.758 2067.66 186.248C2020.07 215.524 1963.57 224.807 1907.4 227.962C1896.63 228.573 1885.86 228.937 1875.15 229.203V229.202C1824.78 230.406 1773.7 229.41 1724.28 237.644C1708.41 240.27 1692.76 243.87 1677.36 248.755C1572.16 282.203 1494.84 371.875 1440.44 468.897H1440.44C1436.48 475.956 1432.66 483.038 1428.92 490.151C1402.58 540.528 1380.31 592.939 1357.45 644.858C1379.62 596.702 1401.48 548.028 1426.61 501.026C1430.4 493.954 1434.3 486.895 1438.31 479.876C1493.47 383.257 1571.34 293.481 1676.92 260.331V260.333C1692.37 255.461 1708.11 251.934 1724.02 249.366C1773.58 241.386 1824.74 242.868 1875.03 242.24C1885.74 242.103 1896.49 241.858 1907.23 241.365L1907.24 241.364C1963.31 238.841 2019.73 230.312 2067.36 201.696L2067.36 201.695C2071.99 198.891 2076.55 195.876 2080.95 192.619V192.618C2115.35 167.241 2141.41 128.292 2147.53 87.4473C2147.25 86.4926 2146.95 85.5383 2146.63 84.5869L2147.05 84.4512L2147.46 84.3154C2147.58 84.6874 2147.7 85.0602 2147.82 85.4326C2148.11 83.2393 2148.35 81.0411 2148.52 78.8398C2148.09 76.8581 2147.61 74.881 2147.06 72.9102ZM2146.04 56.3828C2138.75 101.861 2107.51 144.907 2067.56 170.078C2011.15 205.595 1941.86 213.013 1875.31 215.346C1808.73 217.68 1740.83 216.067 1677.57 236.426C1564.81 272.741 1484.51 373.424 1430.57 478.934C1407.55 523.938 1388.05 570.671 1368.55 617.4C1387.38 574.429 1406.38 531.393 1428.16 489.75V489.749C1431.9 482.63 1435.72 475.54 1439.68 468.473C1494.13 371.373 1571.59 281.474 1677.09 247.929C1692.55 243.03 1708.23 239.421 1724.13 236.789C1772.09 228.8 1821.62 229.486 1870.41 228.443L1875.13 228.336C1885.83 228.07 1896.59 227.707 1907.35 227.097V227.096C1963.48 223.943 2019.8 214.672 2067.2 185.51L2067.2 185.508C2071.84 182.679 2076.34 179.58 2080.72 176.284L2080.72 176.286C2114.81 150.584 2140.47 111.654 2146.49 70.9229C2146.18 69.8562 2145.84 68.791 2145.49 67.7285L2146.32 67.4551C2146.47 67.9312 2146.63 68.4088 2146.78 68.8857C2147.07 66.6776 2147.3 64.4648 2147.47 62.249C2147.05 60.2886 2146.58 58.3325 2146.04 56.3828ZM2178.34 523.112C2178.25 524.339 2178.13 525.563 2177.99 526.785C2178.28 527.929 2178.55 529.075 2178.79 530.221C2178.73 527.853 2178.58 525.483 2178.34 523.112ZM2177.26 506.632C2177.17 507.826 2177.06 509.019 2176.93 510.21C2177.21 511.324 2177.47 512.44 2177.7 513.557C2177.64 511.25 2177.5 508.941 2177.26 506.632ZM2176.18 489.885C2176.09 491.113 2175.98 492.341 2175.84 493.565C2176.13 494.711 2176.4 495.858 2176.64 497.006C2176.58 494.634 2176.43 492.259 2176.18 489.885ZM2175.1 473.276C2175.02 474.479 2174.91 475.68 2174.78 476.879C2175.06 477.992 2175.31 479.106 2175.55 480.221C2175.49 477.908 2175.34 475.592 2175.1 473.276ZM2174.02 456.624C2173.93 457.812 2173.82 458.999 2173.7 460.184C2173.97 461.289 2174.23 462.396 2174.46 463.504C2174.4 461.212 2174.25 458.918 2174.02 456.624ZM2172.95 440.25C2172.87 441.381 2172.76 442.512 2172.64 443.64C2172.9 444.69 2173.14 445.742 2173.37 446.795C2173.3 444.615 2173.17 442.432 2172.95 440.25ZM2171.88 423.509C2171.8 424.684 2171.69 425.858 2171.57 427.029C2171.84 428.127 2172.09 429.226 2172.31 430.325C2172.25 428.054 2172.11 425.781 2171.88 423.509ZM2170.8 406.876C2170.72 408.031 2170.62 409.186 2170.5 410.338C2170.77 411.408 2171.01 412.48 2171.23 413.552C2171.17 411.327 2171.02 409.102 2170.8 406.876ZM2169.72 390.27C2169.64 391.401 2169.54 392.53 2169.43 393.658C2169.69 394.711 2169.92 395.765 2170.14 396.819C2170.07 394.637 2169.94 392.453 2169.72 390.27ZM2168.66 373.896C2168.58 374.978 2168.49 376.058 2168.38 377.137C2168.62 378.138 2168.84 379.14 2169.05 380.143C2168.99 378.061 2168.86 375.979 2168.66 373.896ZM2167.59 357.17C2167.51 358.292 2167.42 359.412 2167.3 360.531C2167.55 361.575 2167.79 362.619 2168 363.664C2167.93 361.5 2167.8 359.335 2167.59 357.17ZM2166.52 340.577C2166.44 341.674 2166.35 342.771 2166.24 343.865C2166.48 344.878 2166.71 345.892 2166.92 346.907C2166.85 344.798 2166.72 342.687 2166.52 340.577ZM2164.9 329.961C2164.59 332.484 2164.19 334.999 2163.71 337.502L2164.01 337.408L2164.42 337.277C2164.84 338.621 2165.23 339.968 2165.6 341.316C2165.75 339.334 2165.84 337.348 2165.87 335.359C2165.6 333.558 2165.28 331.758 2164.9 329.961ZM2165.46 324.173C2165.38 325.215 2165.3 326.256 2165.2 327.296C2165.43 328.263 2165.64 329.231 2165.84 330.199C2165.77 328.191 2165.64 326.182 2165.46 324.173ZM2163.83 313.379C2163.54 315.785 2163.17 318.183 2162.72 320.57L2162.88 320.521L2163.29 320.391C2163.74 321.826 2164.16 323.264 2164.54 324.705C2164.69 322.771 2164.78 320.833 2164.82 318.893C2164.54 317.053 2164.22 315.214 2163.83 313.379ZM2164.39 307.491C2164.32 308.562 2164.23 309.631 2164.13 310.699C2164.36 311.694 2164.58 312.689 2164.78 313.686C2164.71 311.621 2164.58 309.556 2164.39 307.491ZM2162.78 296.738C2162.5 299.055 2162.15 301.366 2161.73 303.667L2161.74 303.662L2162.15 303.532C2162.63 305.049 2163.07 306.569 2163.47 308.092C2163.62 306.115 2163.71 304.135 2163.74 302.153C2163.47 300.346 2163.15 298.541 2162.78 296.738ZM2163.32 290.95C2163.25 291.982 2163.16 293.013 2163.07 294.043C2163.29 294.998 2163.5 295.953 2163.69 296.909C2163.63 294.923 2163.5 292.936 2163.32 290.95ZM2161.71 280.154C2161.44 282.371 2161.11 284.581 2160.72 286.783L2161.04 286.682C2161.54 288.257 2161.99 289.837 2162.41 291.419C2162.55 289.479 2162.64 287.537 2162.67 285.592C2162.4 283.777 2162.08 281.964 2161.71 280.154ZM2162.24 274.304C2162.17 275.348 2162.09 276.391 2161.99 277.433C2162.22 278.394 2162.43 279.357 2162.62 280.32C2162.55 278.315 2162.43 276.309 2162.24 274.304ZM2160.67 263.649C2160.42 265.727 2160.12 267.8 2159.76 269.865L2159.89 269.822C2160.42 271.474 2160.9 273.132 2161.34 274.791C2161.47 272.828 2161.56 270.861 2161.59 268.893C2161.33 267.143 2161.02 265.395 2160.67 263.649ZM2161.19 258.013C2161.12 258.976 2161.04 259.939 2160.96 260.9C2161.16 261.79 2161.35 262.68 2161.53 263.57C2161.47 261.718 2161.35 259.865 2161.19 258.013ZM2159.6 247.085C2159.37 249.04 2159.09 250.991 2158.76 252.936L2159.2 254.322C2159.59 255.623 2159.96 256.927 2160.3 258.232C2160.43 256.338 2160.51 254.439 2160.54 252.54C2160.28 250.719 2159.96 248.901 2159.6 247.085ZM2160.12 241.245C2160.06 242.267 2159.98 243.288 2159.88 244.309C2160.1 245.255 2160.31 246.203 2160.5 247.151C2160.43 245.183 2160.3 243.213 2160.12 241.245ZM2158.55 230.485C2158.33 232.459 2158.05 234.429 2157.72 236.393C2158.27 238.127 2158.77 239.866 2159.23 241.609C2159.36 239.657 2159.44 237.701 2159.47 235.743C2159.21 233.989 2158.91 232.235 2158.55 230.485ZM2159.06 224.85C2159 225.799 2158.92 226.748 2158.84 227.696C2159.04 228.57 2159.23 229.444 2159.4 230.319C2159.34 228.496 2159.22 226.672 2159.06 224.85ZM2157.48 213.916C2157.26 215.864 2156.99 217.809 2156.67 219.747C2157.22 221.487 2157.73 223.232 2158.18 224.98C2158.3 223.088 2158.38 221.192 2158.41 219.295C2158.15 217.5 2157.84 215.706 2157.48 213.916ZM2157.99 208.148C2157.93 209.133 2157.85 210.117 2157.77 211.101C2157.97 212.011 2158.17 212.922 2158.35 213.834C2158.28 211.939 2158.16 210.043 2157.99 208.148ZM2156.45 197.441C2156.23 199.387 2155.97 201.329 2155.65 203.266C2156.18 204.961 2156.67 206.662 2157.1 208.366C2157.23 206.429 2157.3 204.488 2157.33 202.547C2157.08 200.843 2156.79 199.141 2156.45 197.441ZM2156.94 191.924C2156.88 192.814 2156.81 193.704 2156.74 194.594C2156.92 195.411 2157.1 196.229 2157.26 197.047C2157.19 195.339 2157.09 193.631 2156.94 191.924ZM2155.39 180.901C2155.17 182.82 2154.91 184.736 2154.61 186.646C2155.14 188.37 2155.63 190.1 2156.07 191.833C2156.19 189.976 2156.26 188.117 2156.29 186.257C2156.04 184.469 2155.74 182.684 2155.39 180.901ZM2155.88 175.162C2155.82 176.117 2155.75 177.072 2155.67 178.026C2155.87 178.907 2156.05 179.789 2156.23 180.671C2156.16 178.834 2156.04 176.998 2155.88 175.162ZM2154.35 164.308C2154.13 166.246 2153.87 168.18 2153.57 170.109C2154.09 171.815 2154.57 173.525 2155.01 175.238C2155.13 173.313 2155.2 171.385 2155.22 169.456C2154.97 167.738 2154.68 166.021 2154.35 164.308ZM2154.82 158.78C2154.77 159.66 2154.7 160.539 2154.63 161.417C2154.81 162.227 2154.98 163.039 2155.14 163.851C2155.07 162.16 2154.97 160.47 2154.82 158.78ZM2153.28 147.776C2153.08 149.687 2152.83 151.595 2152.53 153.497C2153.05 155.197 2153.53 156.901 2153.96 158.609C2154.07 156.749 2154.14 154.887 2154.16 153.023C2153.92 151.272 2153.62 149.523 2153.28 147.776ZM2153.76 142.135C2153.7 143.043 2153.64 143.95 2153.56 144.856C2153.75 145.693 2153.92 146.53 2154.09 147.368C2154.02 145.623 2153.91 143.878 2153.76 142.135ZM2152.25 131.311C2152.05 133.22 2151.8 135.126 2151.51 137.027C2152.01 138.689 2152.47 140.354 2152.89 142.023C2153.01 140.124 2153.07 138.222 2153.09 136.319C2152.85 134.648 2152.57 132.978 2152.25 131.311ZM2152.71 125.91C2152.66 126.728 2152.6 127.545 2152.53 128.362C2152.7 129.111 2152.86 129.86 2153 130.61C2152.94 129.043 2152.84 127.476 2152.71 125.91ZM2151.2 114.791C2151 116.675 2150.75 118.556 2150.47 120.432C2150.98 122.117 2151.44 123.807 2151.86 125.501C2151.97 123.679 2152.03 121.854 2152.06 120.029C2151.81 118.281 2151.53 116.534 2151.2 114.791ZM2151.66 109.174C2151.61 110.055 2151.54 110.936 2151.47 111.816C2151.65 112.629 2151.82 113.442 2151.98 114.256C2151.91 112.561 2151.8 110.867 2151.66 109.174ZM2150.16 98.2393C2149.97 100.138 2149.72 102.034 2149.44 103.926C2149.94 105.59 2150.39 107.259 2150.8 108.931C2150.91 107.04 2150.97 105.147 2150.99 103.253C2150.75 101.579 2150.48 99.9078 2150.16 98.2393ZM2150.6 92.8525C2150.56 93.6497 2150.5 94.4468 2150.44 95.2432C2150.6 95.9746 2150.75 96.7068 2150.89 97.4395C2150.83 95.91 2150.73 94.3808 2150.6 92.8525ZM2149.12 81.8242C2148.93 83.6825 2148.7 85.5382 2148.42 87.3896C2148.91 89.0331 2149.36 90.6806 2149.77 92.332C2149.87 90.5127 2149.93 88.6917 2149.94 86.8701C2149.71 85.1857 2149.44 83.5036 2149.12 81.8242ZM2149.56 76.3936C2149.52 77.1927 2149.46 77.9916 2149.4 78.79C2149.56 79.5291 2149.71 80.2695 2149.85 81.0098C2149.79 79.4706 2149.69 77.9314 2149.56 76.3936ZM2148.08 65.2627C2147.89 67.1338 2147.66 69.0027 2147.38 70.8672C2147.87 72.5232 2148.32 74.1835 2148.72 75.8477C2148.83 74.015 2148.88 72.1805 2148.9 70.3457C2148.67 68.6489 2148.39 66.9543 2148.08 65.2627ZM2148.51 59.7861C2148.47 60.5908 2148.41 61.3953 2148.35 62.1992C2148.51 62.9396 2148.66 63.6803 2148.8 64.4219C2148.74 62.876 2148.64 61.3306 2148.51 59.7861ZM2147.04 48.7188C2146.85 50.5898 2146.63 52.4585 2146.36 54.3232C2146.84 55.9544 2147.27 57.5904 2147.67 59.2295C2147.77 57.381 2147.83 55.531 2147.84 53.6807C2147.61 52.0244 2147.34 50.37 2147.04 48.7188ZM2147.46 43.3623C2147.42 44.1174 2147.37 44.8725 2147.31 45.627C2147.46 46.3163 2147.6 47.0059 2147.73 47.6963C2147.67 46.2511 2147.58 44.8061 2147.46 43.3623Z" fill="url(#paint0_linear_3003_9330)"/>
<defs>
<linearGradient id="paint0_linear_3003_9330" x1="2125.8" y1="-3.51764" x2="1028.03" y2="1660.57" gradientUnits="userSpaceOnUse">
<stop stop-color="#E4F1FC"/>
<stop offset="0.2294" stop-color="#9ADCFF"/>
<stop offset="0.711" stop-color="#5EBEF1"/>
<stop offset="1" stop-color="#0577B4"/>
</linearGradient>
</defs>
</svg>
