<svg width="56" height="54" viewBox="0 0 56 54" fill="none" xmlns="http://www.w3.org/2000/svg">
<path d="M10.5758 0.232841C5.51892 1.26111 1.84461 4.89816 0.405187 10.268C0.12109 11.3344 0.0832108 13.0672 0.0263915 26.3015C-0.0493675 41.9731 -0.0114879 42.7158 0.821861 45.1341C1.48475 47.0574 2.35598 48.4094 3.94692 50.028C5.57574 51.6656 7.18562 52.6748 9.34475 53.4175L10.8599 53.9316L27.9057 53.9887C41.1067 54.0268 45.1598 53.9697 45.8985 53.7983L46.8455 53.5508L46.9023 52.5034C46.9402 51.9322 47.0538 51.3609 47.1674 51.2276C47.3 51.0753 47.8303 50.9801 48.6258 50.9801C49.3645 50.9801 49.9895 50.8849 50.122 50.7516C50.2546 50.6183 50.3493 50.0089 50.3493 49.3615C50.3493 47.762 50.5955 47.5525 52.5085 47.5525C53.3039 47.5525 54.1373 47.4763 54.3267 47.3621C54.7244 47.1526 55.179 45.8768 55.5956 43.7822C55.8419 42.5635 55.8987 39.9356 55.9744 28.5104C56.0312 19.3702 55.9934 14.0003 55.8608 12.5912C55.5388 9.33497 54.7623 7.25938 53.0009 5.06953C51.2584 2.89874 49.3455 1.5277 46.6561 0.575596L45.1409 0.0424194L28.4739 0.0043335C15.2918 -0.0147095 11.5418 0.0233765 10.5758 0.232841ZM31.5611 5.46942C34.421 6.28823 36.6559 7.86872 37.546 9.71581C38.0574 10.7441 38.3983 12.6673 38.4173 14.343C38.4173 15.8283 38.8529 16.9709 40.406 19.5415C41.1825 20.8364 41.8264 22.0551 41.8264 22.2455C41.8264 22.7406 40.9552 23.3309 39.9893 23.4833C38.5688 23.6927 38.493 23.8451 38.3605 27.1584C38.2279 30.605 38.0195 31.2334 36.7127 31.8808C35.974 32.2617 35.5953 32.3188 33.3414 32.3188C30.8224 32.3188 30.8035 32.3188 30.2732 32.852C29.5724 33.5756 29.3073 34.5086 29.1936 36.6985C29.08 38.8693 29.1747 39.0597 31.277 40.4307C32.9247 41.5161 36.2581 44.8104 36.4475 45.5531C36.5612 45.991 36.4854 46.1624 36.1445 46.448C35.7468 46.7718 35.1218 46.7908 25.0837 46.7908C17.0532 46.7908 14.3827 46.7337 14.2123 46.5623C13.9092 46.2576 13.9282 44.9437 14.2501 43.0776C14.6289 40.9258 15.1214 39.631 16.5419 37.0032C18.1707 34.0516 18.5495 32.852 18.6821 30.586C18.7957 28.2628 18.5495 27.4059 16.7502 23.8831C15.254 20.9507 14.7615 19.3511 14.61 16.9899C14.3448 13.0672 15.9168 9.6206 19.023 7.25938C20.2351 6.34536 22.4889 5.37421 24.0609 5.08858C25.7087 4.80295 29.9701 5.01241 31.5611 5.46942ZM52.7168 41.6494V43.0776H51.391H50.0652L50.0084 41.8589C49.9327 40.107 49.9327 40.107 51.4289 40.1641L52.7168 40.2213V41.6494ZM48.0387 46.3528L48.0955 47.7048L46.7508 47.781C45.8795 47.8191 45.3303 47.762 45.2167 47.6096C45.0462 47.4192 45.1409 45.7816 45.3492 45.1151C45.406 44.9437 45.7848 44.8866 46.694 44.9247L47.9819 44.9818L48.0387 46.3528Z" fill="url(#paint0_linear_1144_6424)"/>
<path d="M33.9363 14.4427C33.0172 14.9876 32.8083 15.3445 33.1634 15.7391C33.5394 16.1524 34.2079 16.0773 35.1479 15.4949C36.8818 14.4051 35.712 13.3906 33.9363 14.4427Z" fill="url(#paint1_linear_1144_6424)"/>
<path d="M30.5165 17.4373C29.9573 17.9572 29.8557 18.4214 30.1945 18.7928C30.5165 19.1456 30.8723 19.0527 31.4823 18.4771C31.8889 18.0872 32.0414 17.8086 31.9906 17.5116C31.9058 16.8617 31.1942 16.8245 30.5165 17.4373Z" fill="url(#paint2_linear_1144_6424)"/>
<path d="M28.7638 19.2601C27.8398 20.099 27.7436 20.7495 28.5328 20.9721C28.8408 21.0577 29.0718 20.955 29.476 20.5441C30.0535 19.962 30.1498 19.5169 29.784 19.1916C29.476 18.9177 29.1295 18.9348 28.7638 19.2601Z" fill="url(#paint3_linear_1144_6424)"/>
<path d="M24.6321 21.3093C23.9314 21.6913 23.7731 22.5508 24.3608 22.8851C24.9034 23.1954 26.4631 22.8373 26.8247 22.2882C27.5255 21.2615 25.9884 20.5691 24.6321 21.3093Z" fill="url(#paint4_linear_1144_6424)"/>
<path d="M21.2472 23.1487C21.059 23.2526 20.9649 23.4345 21.012 23.6424C21.0433 23.9023 21.1531 23.9673 21.6235 23.9932C21.9214 24.0192 22.3761 23.9673 22.6113 23.8893C22.9562 23.7853 23.0346 23.6944 22.9876 23.3955C22.9405 23.0837 22.8778 23.0447 22.235 23.0057C21.8273 22.9797 21.404 23.0447 21.2472 23.1487Z" fill="url(#paint5_linear_1144_6424)"/>
<path d="M28.1027 23.4049C27.7441 23.9311 28.3896 25 29.0351 25C29.7762 25 30.1109 24.5724 29.9675 23.8982C29.7523 22.9773 28.5809 22.6813 28.1027 23.4049Z" fill="url(#paint6_linear_1144_6424)"/>
<path d="M29.2505 26.2789C28.8772 26.6757 28.9111 26.8646 29.4202 27.3936C29.9971 27.9793 30.4553 28.1494 30.7607 27.866C31.151 27.507 31.0662 26.9969 30.4892 26.4678C29.8953 25.901 29.6238 25.8632 29.2505 26.2789Z" fill="url(#paint7_linear_1144_6424)"/>
<path d="M32.1604 28.418C31.8353 29.0447 31.9816 29.3581 32.8105 29.7759C33.3795 30.0475 33.5745 30.0684 33.7696 29.8595C34.1597 29.4416 34.0459 28.8358 33.4932 28.3971C32.8105 27.8539 32.4692 27.8748 32.1604 28.418Z" fill="url(#paint8_linear_1144_6424)"/>
<path d="M35.2203 28.1852C34.7074 28.9555 35.1241 29.7724 36.118 29.9591C36.6309 30.0525 36.7752 30.0058 36.9194 29.609C37.0477 29.2356 37.0316 29.0255 36.8072 28.652C36.4706 28.0685 35.4928 27.7884 35.2203 28.1852Z" fill="url(#paint9_linear_1144_6424)"/>
<defs>
<linearGradient id="paint0_linear_1144_6424" x1="28" y1="54" x2="28" y2="0" gradientUnits="userSpaceOnUse">
<stop stop-color="#9ADCFF"/>
<stop offset="1" stop-color="#5EBEF1"/>
</linearGradient>
<linearGradient id="paint1_linear_1144_6424" x1="34.5" y1="16" x2="34.5" y2="14" gradientUnits="userSpaceOnUse">
<stop stop-color="#9ADCFF"/>
<stop offset="1" stop-color="#5EBEF1"/>
</linearGradient>
<linearGradient id="paint2_linear_1144_6424" x1="31" y1="19" x2="31" y2="17" gradientUnits="userSpaceOnUse">
<stop stop-color="#9ADCFF"/>
<stop offset="1" stop-color="#5EBEF1"/>
</linearGradient>
<linearGradient id="paint3_linear_1144_6424" x1="29" y1="21" x2="29" y2="19" gradientUnits="userSpaceOnUse">
<stop stop-color="#9ADCFF"/>
<stop offset="1" stop-color="#5EBEF1"/>
</linearGradient>
<linearGradient id="paint4_linear_1144_6424" x1="25.5" y1="23" x2="25.5" y2="21" gradientUnits="userSpaceOnUse">
<stop stop-color="#9ADCFF"/>
<stop offset="1" stop-color="#5EBEF1"/>
</linearGradient>
<linearGradient id="paint5_linear_1144_6424" x1="22" y1="24" x2="22" y2="23" gradientUnits="userSpaceOnUse">
<stop stop-color="#9ADCFF"/>
<stop offset="1" stop-color="#5EBEF1"/>
</linearGradient>
<linearGradient id="paint6_linear_1144_6424" x1="29" y1="25" x2="29" y2="23" gradientUnits="userSpaceOnUse">
<stop stop-color="#9ADCFF"/>
<stop offset="1" stop-color="#5EBEF1"/>
</linearGradient>
<linearGradient id="paint7_linear_1144_6424" x1="30" y1="28" x2="30" y2="26" gradientUnits="userSpaceOnUse">
<stop stop-color="#9ADCFF"/>
<stop offset="1" stop-color="#5EBEF1"/>
</linearGradient>
<linearGradient id="paint8_linear_1144_6424" x1="33" y1="30" x2="33" y2="28" gradientUnits="userSpaceOnUse">
<stop stop-color="#9ADCFF"/>
<stop offset="1" stop-color="#5EBEF1"/>
</linearGradient>
<linearGradient id="paint9_linear_1144_6424" x1="36" y1="30" x2="36" y2="28" gradientUnits="userSpaceOnUse">
<stop stop-color="#9ADCFF"/>
<stop offset="1" stop-color="#5EBEF1"/>
</linearGradient>
</defs>
</svg>
