<svg width="56" height="54" viewBox="0 0 56 54" fill="none" xmlns="http://www.w3.org/2000/svg">
<path d="M11.2757 0.185467C7.00015 0.81321 3.31368 3.40026 1.54646 7.01453C0.0262609 10.0962 0.0832681 9.22113 0.0262608 26.4174C-0.0307465 39.9044 -0.0117441 41.9207 0.25429 43.2523C1.1474 47.6465 4.2638 51.451 8.27332 53.0299C10.7056 53.981 10.9907 54 28.0549 54C44.0739 54 45.6891 53.9429 46.6772 53.3152C47.0193 53.0869 47.0953 52.8587 47.0953 52.1168C47.0953 50.8803 47.3613 50.6711 48.8055 50.8232C49.8126 50.9374 49.9647 50.8993 50.1357 50.576C50.2497 50.3477 50.2877 49.8151 50.2117 49.2824C50.1167 48.5406 50.1737 48.2933 50.4777 47.9128C50.8198 47.4753 51.0288 47.4373 52.644 47.3421L54.4112 47.247L54.7343 46.5812C55.1713 45.6682 55.6084 43.9752 55.8364 42.13C55.9694 41.1028 56.0264 35.5292 55.9884 25.5614C55.9124 9.01189 55.9504 9.6967 54.6963 7.22378C52.72 3.28613 49.2046 0.794186 44.739 0.185467C42.9528 -0.0618248 12.9859 -0.0618248 11.2757 0.185467ZM32.6534 5.85416C36.967 7.12867 39.8934 9.88692 40.9385 13.6724C41.0905 14.2431 41.2806 15.7458 41.3376 17.0013C41.4706 19.6074 41.4516 19.5884 43.4088 22.4798C44.1879 23.6211 44.815 24.6864 44.815 24.8766C44.815 25.3522 44.3019 25.7517 43.1618 26.1131C41.8506 26.5506 41.6986 26.7598 41.8316 28.0534C41.9076 28.8333 41.8696 29.2518 41.6606 29.5561C41.4326 29.9176 41.4136 30.0697 41.6226 30.5073C41.8316 30.9828 41.8126 31.0589 41.3376 31.4394C40.8435 31.8388 40.8245 31.934 40.8245 33.5128C40.8245 36.5945 40.4634 36.8037 35.5988 36.5945C32.3874 36.4613 32.3114 36.4803 31.9314 36.8798C31.3803 37.4885 31.0572 38.9913 31.0382 41.0457C31.0382 42.7387 31.0572 42.8338 31.5323 43.1952C31.8173 43.4235 32.5394 43.6328 33.2995 43.7279C34.6867 43.8991 35.4088 44.2605 35.5988 44.8882C35.7698 45.4018 35.1808 46.2388 34.5347 46.41C34.2877 46.4861 29.309 46.5432 23.4753 46.5622C11.8838 46.5812 11.7128 46.5622 11.4467 45.535C11.2567 44.7551 11.8268 44.1654 14.2021 42.7387C17.0714 41.0267 17.8886 40.3229 18.5346 39.0103C19.0667 37.926 19.0667 37.926 19.0667 34.0264C19.0667 29.5371 18.9527 29.0806 17.2425 26.0941C15.4182 22.9553 14.8102 21.0151 14.6581 18.1427C14.5441 15.6888 14.8292 14.1289 15.7603 12.3028C17.5275 8.82166 20.2449 6.55799 23.7793 5.66394C25.7556 5.15033 30.6202 5.26447 32.6534 5.85416ZM52.891 41.4452V42.8719H51.5609H50.2307L50.1737 41.6544C50.0977 39.9044 50.0977 39.9044 51.5989 39.9614L52.891 40.0185V41.4452ZM48.5775 46.2198C48.6535 47.8177 48.5015 47.9509 46.7723 47.8748L45.4801 47.8177L45.4231 46.6003C45.3471 44.8312 45.3281 44.8502 47.0383 44.9073L48.5205 44.9643L48.5775 46.2198Z" fill="url(#paint0_linear_1144_6452)"/>
<defs>
<linearGradient id="paint0_linear_1144_6452" x1="28" y1="54" x2="28" y2="0" gradientUnits="userSpaceOnUse">
<stop stop-color="#9ADCFF"/>
<stop offset="1" stop-color="#5EBEF1"/>
</linearGradient>
</defs>
</svg>
