<svg width="57" height="53" viewBox="0 0 57 53" fill="none" xmlns="http://www.w3.org/2000/svg">
<path d="M10.7935 0.716654C8.1981 1.31489 6.44775 2.26749 4.55286 4.08054C2.20365 6.37528 0.927174 8.83126 0.386112 12.1581C0.133015 13.6496 0.115817 15.7877 0.2856 27.2013C0.51154 42.375 0.448148 41.7648 2.26236 45.3547C3.0036 46.8173 3.46882 47.4427 4.74352 48.69C6.52037 50.4287 8.09769 51.3295 10.5336 52.0118L12.068 52.4357L28.516 52.2737C37.5624 52.1846 45.3649 52.0314 45.8423 51.9504C47.1979 51.708 47.425 51.4576 47.5259 50.044L47.6096 48.8405L48.9475 48.7319C49.6928 48.6673 50.3993 48.5458 50.5325 48.4681C50.6845 48.3712 50.7556 47.8169 50.7468 46.9198C50.7387 46.0991 50.8279 45.4492 50.9605 45.3142C51.112 45.16 51.838 45.0765 52.9664 45.0654C55.4719 45.0407 55.5851 44.8869 56.1382 40.8346C56.3701 39.1333 56.3846 36.728 56.2327 25.1805C56.0048 9.81599 56.0904 10.7314 54.4712 7.52131C53.0277 4.67215 50.4601 2.27311 47.5219 1.08034C45.1596 0.110971 44.8152 0.0952731 27.7745 0.282179C15.3811 0.404229 11.6904 0.497843 10.7935 0.716654ZM11.8524 9.18181C12.6604 9.65108 13.2102 11.0964 13.52 13.4223C14.4324 20.6099 15.0533 23.4481 16.1437 25.4035C16.5138 26.0871 16.9978 26.6741 17.3828 26.9184C17.7482 27.1248 18.0381 27.4274 18.0398 27.5992C18.0445 28.0764 19.2598 29.1143 20.0653 29.3354C20.4872 29.4458 21.3105 29.5331 21.8843 29.5275C22.6302 29.5202 23.2244 29.6479 23.8781 29.9851C24.9737 30.5279 26.5045 30.5892 27.5331 30.1591C28.1236 29.9051 28.2766 29.9036 28.8719 30.1459C29.8128 30.5184 31.5529 30.4631 32.4857 30.0149C32.9426 29.8004 33.8588 29.6005 34.6999 29.554C36.6305 29.4205 37.7919 28.8745 38.2987 27.896C38.505 27.474 38.9775 26.8967 39.3761 26.5873C39.7747 26.278 40.2465 25.6243 40.5275 25.0298C41.2574 23.4 42.0441 19.7653 42.4312 16.3445C42.887 12.1213 43.0868 11.0504 43.5363 10.0724C44.8285 7.27266 48.3981 8.47831 48.0269 11.5744C47.9554 12.0905 47.606 13.5066 47.2355 14.7319C45.9763 18.9439 45.4502 21.8507 44.8217 27.9463C44.4198 31.8062 44.087 32.974 42.9751 34.6648C41.5237 36.8361 38.1841 39.5606 35.8592 40.4425C35.2875 40.6581 33.9331 41.0341 32.8644 41.2737C31.1656 41.6341 30.4774 41.679 27.7417 41.6296C23.1883 41.5217 21.0982 40.9887 18.3645 39.2022C15.5732 37.3971 13.4071 34.975 12.6394 32.7683C12.462 32.2355 12.0772 30.0631 11.8073 27.9087C11.0211 21.8843 10.6389 19.9791 9.23798 15.6215C8.33076 12.8434 8.1207 10.9366 8.5707 10.0159C9.13375 8.92225 10.7364 8.50559 11.8524 9.18181ZM22.1103 23.3404C22.264 23.4152 22.5346 23.6989 22.6906 24.0028C23.0413 24.6484 23.0994 26.6712 22.7775 26.9989C22.4556 27.3266 20.8678 27.3041 20.3669 26.9463C20.0011 26.7018 19.9417 26.4924 19.9311 25.4235C19.9206 24.3546 19.9948 24.1248 20.3925 23.72C20.847 23.2574 21.4769 23.1176 22.1103 23.3404ZM36.1892 23.4499C36.5747 23.7515 36.6538 24.018 36.723 25.2199C36.835 26.8796 36.7028 27.0527 35.3273 27.2189C33.9516 27.3661 33.8162 27.2147 33.7981 25.3824C33.7844 23.989 33.8208 23.7977 34.2383 23.4691C34.8076 23.0054 35.6109 22.9975 36.1892 23.4499ZM26.5911 23.8498C27.3215 24.2053 27.5977 25.0616 27.477 26.3991C27.3013 27.9852 27.188 28.139 26.0788 28.15C24.8165 28.1624 24.545 27.7833 24.5271 25.97C24.5134 24.5766 24.6626 24.1934 25.3665 23.8046C25.861 23.5134 25.9566 23.5125 26.5911 23.8498ZM31.2962 23.8226C32.0642 24.1205 32.4886 26.4261 31.9445 27.5004C31.4568 28.4788 29.7151 28.3623 29.3413 27.3161C28.8891 26.0606 29.1954 24.1487 29.9002 23.8554C30.2621 23.6992 30.9315 23.6926 31.2962 23.8226ZM53.2374 37.618L53.2515 39.0495L51.817 39.0636L50.3826 39.0778L50.3132 37.8567C50.2194 36.1015 50.2194 36.1015 51.8265 36.1429L53.2233 36.1864L53.2374 37.618ZM48.5783 42.3216C48.7139 42.4921 48.7962 43.083 48.7651 43.8087L48.7196 45.0118L47.6874 45.0792C45.8333 45.212 45.7561 45.1364 45.7412 43.6285C45.7343 42.9223 45.7852 42.2727 45.8612 42.2147C46.1072 41.9451 48.3462 42.0566 48.5783 42.3216Z" fill="url(#paint0_linear_1144_6439)"/>
<defs>
<linearGradient id="paint0_linear_1144_6439" x1="28.5109" y1="52.2738" x2="27.9988" y2="0.276296" gradientUnits="userSpaceOnUse">
<stop stop-color="#9ADCFF"/>
<stop offset="1" stop-color="#5EBEF1"/>
</linearGradient>
</defs>
</svg>
