<svg width="57" height="55" viewBox="0 0 57 55" fill="none" xmlns="http://www.w3.org/2000/svg">
<path d="M11.2577 0.6251C5.2945 1.56041 1.10941 5.92735 0.278607 12.0525C0.137637 13.1401 0.147195 17.9612 0.288316 28.4407L0.491554 43.3024L1.03927 45.0121C2.56511 49.7801 5.78087 52.8737 10.457 54.0853C11.7116 54.416 12.7545 54.4248 29.1344 54.2635C48.9647 54.0682 47.5252 54.2157 47.5083 52.5009C47.5032 51.9864 47.5931 51.49 47.7245 51.3554C47.8559 51.2207 48.4806 51.1192 49.22 51.112C49.9214 51.1051 50.5463 51.0227 50.6212 50.9267C50.6769 50.8118 50.7464 50.1632 50.7586 49.477C50.8361 47.7231 51.0054 47.5881 53.2607 47.4896L55.0799 47.3955L55.3576 46.7067C55.5242 46.3049 55.8165 45.1777 56.0342 44.1847C56.396 42.4089 56.4106 41.9704 56.2607 26.7461L56.1068 11.1216L55.6557 9.60158C54.989 7.35953 53.9863 5.65435 52.4353 4.10703C50.3097 1.97462 47.6616 0.685832 44.6431 0.296322C42.8586 0.0661686 12.9615 0.360594 11.2577 0.6251ZM43.1953 5.3795C43.9951 5.73369 44.6684 6.71798 45.0027 7.93428C45.494 9.6826 45.8121 9.26023 34.4004 21.0349C24.1148 31.6552 23.9834 31.7899 23.3377 31.6819C22.7491 31.5924 22.6549 31.6505 22.1312 32.3798C21.3086 33.5694 20.659 34.9859 20.3311 36.3421C19.565 39.4177 17.2253 42.4897 12.3755 46.7489C9.95075 48.888 9.55375 49.0062 8.91743 47.9263C8.55122 47.3201 8.55047 47.2439 8.84198 46.0405C9.26019 44.2261 10.7035 40.6102 11.7651 38.6751C13.1247 36.1844 14.5849 34.2835 17.2319 31.6086C18.5271 30.281 19.5964 29.1271 19.5957 29.0509C19.5947 28.9556 19.4213 28.6715 19.2101 28.4068C18.9989 28.1421 18.8234 27.6484 18.8201 27.3054C18.8144 26.7338 19.715 25.7721 29.1957 16.2078C34.8837 10.435 39.8225 5.58422 40.1241 5.40975C40.8595 5.00233 42.3572 4.98758 43.1953 5.3795ZM53.1832 41.5449L53.1973 42.974L51.7754 42.988L50.3535 43.002L50.2847 41.783C50.1916 40.0308 50.1916 40.0308 51.7846 40.0723L53.1691 40.1158L53.1832 41.5449ZM48.4915 46.4504L48.5046 47.7842L47.0454 47.8557L45.5672 47.9275L45.5543 46.6127C45.5471 45.8886 45.5976 45.2402 45.6727 45.1633C45.7478 45.0863 46.4112 45.0607 47.1507 45.0725L48.4784 45.1166L48.4915 46.4504Z" fill="url(#paint0_linear_1144_6444)"/>
<path d="M27.6292 19.395C27.4114 19.6171 27.2347 19.9589 27.2369 20.1789C27.241 20.5988 29.7245 22.9745 30.1645 22.9702C30.4845 22.967 31.257 22.1994 31.2538 21.8794C31.2511 21.5994 28.5452 18.9859 28.2652 18.9887C28.1252 18.9901 27.847 19.1728 27.6292 19.395Z" fill="black"/>
<path d="M24.518 22.3492C23.9929 22.9931 24.1338 23.3111 25.4858 24.7032C26.8974 26.1586 27.5485 26.3225 28.1099 25.38C28.4005 24.9087 28.3605 24.8452 26.9884 23.4108C25.5171 21.8921 25.0428 21.6839 24.518 22.3492Z" fill="black"/>
<path d="M21.5498 25.4589C21.3723 25.7133 21.2356 26.0515 21.2369 26.1778C21.2402 26.5146 23.8245 28.9735 24.1645 28.9702C24.5245 28.9666 25.2572 28.2225 25.2539 27.8857C25.2477 27.2542 22.8652 24.9828 22.2052 24.9893C22.0052 24.9912 21.7073 25.2047 21.5498 25.4589Z" fill="black"/>
<defs>
<linearGradient id="paint0_linear_1144_6444" x1="28.5304" y1="54.2718" x2="27.9986" y2="0.27444" gradientUnits="userSpaceOnUse">
<stop stop-color="#9ADCFF"/>
<stop offset="1" stop-color="#5EBEF1"/>
</linearGradient>
</defs>
</svg>
