<svg width="55" height="53" viewBox="0 0 55 53" fill="none" xmlns="http://www.w3.org/2000/svg">
<path d="M12.2214 0.0312424C7.03961 0.502659 2.93975 3.44432 0.965751 8.13967C-0.00227058 10.4213 -0.0402322 11.383 0.0167103 27.1096C0.0926335 41.4408 0.0926335 41.7048 0.49123 43.1567C1.87683 48.0029 5.50216 51.5669 10.1714 52.6606C11.5381 52.9811 12.8288 53 27.8805 53C41.9074 53 44.223 52.9623 44.9633 52.6983L45.8174 52.4154L45.8743 50.6429C45.9123 49.5115 46.0072 48.8138 46.1591 48.7195C46.2919 48.6441 46.9562 48.6252 47.6585 48.7006C49.3858 48.8515 49.5187 48.7195 49.5187 46.8904C49.5187 46.0041 49.6136 45.3441 49.7464 45.2121C49.8983 45.0613 50.6575 44.9859 51.9482 44.9859H53.9032L54.169 44.3447C54.3208 43.9864 54.5865 42.9305 54.7384 41.9876C55.0041 40.5357 55.0231 38.1974 54.9851 25.4314L54.9282 10.5722L54.4726 9.25222C53.2579 5.61285 51.132 3.08604 48.0002 1.53978C44.8114 -0.00647354 45.5517 0.0500984 28.2602 0.0123825C19.8517 -0.00647354 12.6389 -0.00647354 12.2214 0.0312424ZM23.5529 5.70714C25.8686 6.78197 27.3301 8.76194 27.6907 11.251C28.0703 13.8344 27.1023 16.0972 24.8436 17.9075C23.2113 19.2275 22.9265 19.812 22.8886 21.7731C22.8506 23.112 22.8886 23.2628 23.477 24.1114C24.6918 25.8462 24.9195 26.5816 24.9575 28.901C24.9955 31.013 24.9955 31.0318 25.6598 31.9181C27.0074 33.7283 27.5009 34.0678 29.2472 34.3695C30.1203 34.5203 31.2971 34.8409 31.8665 35.1049C33.2711 35.7272 34.7516 37.2169 35.4159 38.65C35.8715 39.6494 35.9474 40.0265 35.9474 41.5916C35.9474 43.1756 35.8904 43.515 35.3969 44.571C34.6946 46.0984 33.0813 47.607 31.5438 48.2104C30.0064 48.7949 27.8046 48.8138 26.3051 48.2104C24.7677 47.607 23.1543 46.0796 22.471 44.571C21.9965 43.5339 21.9016 43.0813 21.8067 40.9882L21.7118 38.5745L20.6678 37.5186C19.3392 36.1797 19.1873 36.1043 17.1943 35.8026C16.0175 35.6329 15.1634 35.3877 14.3852 34.954C11.7469 33.5775 10.2474 30.5981 10.7409 27.7885C11.1205 25.5634 11.6709 24.7525 14.556 22.1691C15.4481 21.3583 15.505 21.2451 15.7328 19.944C16.0175 18.2658 15.9226 17.8698 14.9926 16.6252C14.0056 15.343 13.7398 14.7395 13.4551 13.4007C12.7339 9.93106 14.8787 6.4237 18.4471 5.27343C18.9406 5.10372 19.8327 5.02829 20.7627 5.06601C22.0155 5.12258 22.5469 5.23572 23.5529 5.70714ZM42.306 7.36654C42.9893 7.8191 43.7295 8.3848 43.9763 8.62994L44.3938 9.10136L43.9193 9.79906C43.3689 10.6099 43.3309 10.987 43.7675 11.4585C44.1471 11.8733 44.8304 11.8922 45.1531 11.515C45.5707 11.0248 46.0452 11.2133 46.9752 12.2127C48.7974 14.2304 48.9682 14.947 47.8863 16.1349C46.9373 17.1721 46.6715 17.2098 45.4188 16.5121C44.5836 16.0218 44.223 15.9275 43.6916 16.003C43.0842 16.1161 42.7235 15.9464 40.4648 14.6075C39.0792 13.7779 37.9404 13.0613 37.9404 13.0424C37.9404 13.0047 38.2441 12.6653 38.6047 12.2882C38.9653 11.8922 39.269 11.383 39.269 11.1379C39.269 10.9116 38.9274 10.2893 38.5098 9.79906C38.0922 9.28993 37.7506 8.74308 37.7506 8.57337C37.7506 8.23395 39.25 6.70655 39.7815 6.48027C40.3319 6.27284 40.9773 6.49912 42.306 7.36654ZM39.1172 15.8898C40.4458 16.6818 41.5467 17.3795 41.5467 17.4549C41.5467 17.5304 41.3379 17.7755 41.0912 18.0018L40.6546 18.4166L38.2061 16.9646C36.8585 16.1538 35.7386 15.4938 35.7006 15.4561C35.5678 15.3618 36.2701 14.4378 36.4788 14.4378C36.5737 14.4378 37.7695 15.079 39.1172 15.8898ZM36.4788 18.0583C39.5158 19.8309 39.3639 19.68 38.8704 20.2269C38.6237 20.4532 38.3959 20.6606 38.32 20.6606C38.2061 20.6606 33.4229 17.9075 33.2141 17.7189C33.1382 17.6435 33.9544 16.7007 34.0873 16.7007C34.1252 16.7007 35.2071 17.3041 36.4788 18.0583ZM34.4479 20.5663C35.7766 21.3394 36.9534 22.056 37.0293 22.1314C37.276 22.3766 34.2961 25.3182 33.6317 25.4502C31.354 25.9593 28.8106 23.112 29.7976 21.1697C30.0823 20.604 31.5249 19.152 31.7716 19.152C31.9045 19.152 33.1003 19.7932 34.4479 20.5663ZM51.5876 36.1986C51.7204 36.3683 51.7964 36.9529 51.7584 37.6694L51.7015 38.8574L50.2399 38.914L48.7594 38.9705V37.5751C48.7594 36.8209 48.8164 36.1232 48.8923 36.0666C49.139 35.8026 51.3598 35.9346 51.5876 36.1986ZM46.6336 43.5339L46.6905 45.0047L45.21 44.9481L43.7295 44.8916L43.6726 43.6847C43.5966 41.9499 43.5966 41.9499 45.191 42.0065L46.5766 42.0631L46.6336 43.5339Z" fill="url(#paint0_linear_1144_6457)"/>
<path d="M19.4861 9.2223C18.8808 9.5534 18.0485 10.4103 17.7648 10.9752C17.6135 11.2673 17.5 11.949 17.5 12.4943C17.5 14.5588 18.9375 16 21.0182 16C22.1342 16 22.9665 15.63 23.6852 14.773C25.1228 13.0981 24.5932 10.4493 22.6071 9.35864C21.8694 8.94964 20.0914 8.87173 19.4861 9.2223Z" fill="url(#paint1_linear_1144_6457)"/>
<path d="M16.1283 25.4647C15.0869 26.1009 14.5 27.1612 14.5 28.4336C14.5 29.571 14.6704 30.0336 15.4277 30.8433C16.1472 31.653 16.9235 32 18.0027 32C19.1387 32 19.915 31.6337 20.7102 30.7084C22.1302 29.0697 21.5622 26.3515 19.5931 25.3491C18.6275 24.8478 17.0371 24.8864 16.1283 25.4647Z" fill="url(#paint2_linear_1144_6457)"/>
<path d="M27.574 38.2838C26.1039 38.9099 25.3975 40.1431 25.512 41.7937C25.6457 43.6719 27.0203 45 28.8532 45C30.5524 45 31.5261 44.4119 32.1752 43.0079C33.5117 40.162 30.476 37.0316 27.574 38.2838Z" fill="url(#paint3_linear_1144_6457)"/>
<defs>
<linearGradient id="paint0_linear_1144_6457" x1="27.5" y1="53" x2="27.5" y2="0" gradientUnits="userSpaceOnUse">
<stop stop-color="#9ADCFF"/>
<stop offset="1" stop-color="#5EBEF1"/>
</linearGradient>
<linearGradient id="paint1_linear_1144_6457" x1="21" y1="16" x2="21" y2="9" gradientUnits="userSpaceOnUse">
<stop stop-color="#9ADCFF"/>
<stop offset="1" stop-color="#5EBEF1"/>
</linearGradient>
<linearGradient id="paint2_linear_1144_6457" x1="18" y1="32" x2="18" y2="25" gradientUnits="userSpaceOnUse">
<stop stop-color="#9ADCFF"/>
<stop offset="1" stop-color="#5EBEF1"/>
</linearGradient>
<linearGradient id="paint3_linear_1144_6457" x1="29" y1="45" x2="29" y2="38" gradientUnits="userSpaceOnUse">
<stop stop-color="#9ADCFF"/>
<stop offset="1" stop-color="#5EBEF1"/>
</linearGradient>
</defs>
</svg>
