<svg width="94" height="79" viewBox="0 0 94 79" fill="none" xmlns="http://www.w3.org/2000/svg">
<path d="M0.374053 0.379186C0.0187027 0.739034 0 1.00418 0 7.86025V14.9815L0.467566 15.436C1.00994 16.0042 1.49621 16.0421 2.07599 15.5496L2.52486 15.1898L2.58097 8.82615L2.63707 2.46252H8.79025C14.719 2.46252 14.9808 2.44358 15.3362 2.08373C15.8224 1.59131 15.8224 0.87161 15.3362 0.379186C14.9808 0.0193367 14.719 0.000397682 7.85511 0.000397682C0.991241 0.000397682 0.729403 0.0193367 0.374053 0.379186Z" fill="url(#paint0_linear_1262_10037)"/>
<path d="M77.8028 0.379186C77.3539 0.833731 77.3165 1.45873 77.728 2.04585C78.0085 2.46252 78.0085 2.46252 84.2552 2.46252H90.5019L90.558 8.82615L90.6141 15.1898L91.063 15.5496C91.6428 16.0421 92.129 16.0042 92.6714 15.436L93.139 14.9815V7.86025C93.139 1.00418 93.1203 0.739034 92.7649 0.379186C92.4096 0.0193367 92.1477 0.000397682 85.2839 0.000397682C78.42 0.000397682 78.1582 0.0193367 77.8028 0.379186Z" fill="url(#paint1_linear_1262_10037)"/>
<path d="M0.486269 62.9556L0 63.4291V70.5503C0 77.4064 0.0187027 77.6715 0.374053 78.0314C0.729403 78.3912 0.991241 78.4102 7.85511 78.4102C14.719 78.4102 14.9808 78.3912 15.3362 78.0314C15.8224 77.5389 15.8224 76.8192 15.3362 76.3268C14.9808 75.967 14.719 75.948 8.79025 75.948H2.63707L2.58097 69.6033C2.52486 62.7283 2.54356 62.8609 1.45881 62.5958C1.06605 62.5011 0.841619 62.5768 0.486269 62.9556Z" fill="url(#paint2_linear_1262_10037)"/>
<path d="M91.3071 62.6905C91.0826 62.7852 90.8021 63.0882 90.7086 63.3533C90.5964 63.6374 90.5215 66.3836 90.5215 69.9064V75.948H84.3497C78.4209 75.948 78.1591 75.967 77.8037 76.3268C77.598 76.5352 77.4297 76.9139 77.4297 77.1791C77.4297 77.4442 77.598 77.823 77.8037 78.0314C78.1591 78.3912 78.4209 78.4102 85.2848 78.4102C92.1487 78.4102 92.4105 78.3912 92.7659 78.0314C93.1212 77.6715 93.1399 77.4064 93.1399 70.5503V63.4291L92.6723 62.9746C92.1861 62.4632 91.9803 62.4253 91.3071 62.6905Z" fill="url(#paint3_linear_1262_10037)"/>
<defs>
<linearGradient id="paint0_linear_1262_10037" x1="15.305" y1="15.9409" x2="-0.667024" y2="3.24417" gradientUnits="userSpaceOnUse">
<stop stop-color="#E4F1FC"/>
<stop offset="0.2294" stop-color="#9ADCFF"/>
<stop offset="0.711" stop-color="#5EBEF1"/>
<stop offset="1" stop-color="#0577B4"/>
</linearGradient>
<linearGradient id="paint1_linear_1262_10037" x1="92.7432" y1="15.9409" x2="76.7719" y2="3.24745" gradientUnits="userSpaceOnUse">
<stop stop-color="#E4F1FC"/>
<stop offset="0.2294" stop-color="#9ADCFF"/>
<stop offset="0.711" stop-color="#5EBEF1"/>
<stop offset="1" stop-color="#0577B4"/>
</linearGradient>
<linearGradient id="paint2_linear_1262_10037" x1="15.305" y1="78.4583" x2="-0.635216" y2="65.7543" gradientUnits="userSpaceOnUse">
<stop stop-color="#E4F1FC"/>
<stop offset="0.2294" stop-color="#9ADCFF"/>
<stop offset="0.711" stop-color="#5EBEF1"/>
<stop offset="1" stop-color="#0577B4"/>
</linearGradient>
<linearGradient id="paint3_linear_1262_10037" x1="92.7438" y1="78.4584" x2="76.7779" y2="65.7505" gradientUnits="userSpaceOnUse">
<stop stop-color="#E4F1FC"/>
<stop offset="0.2294" stop-color="#9ADCFF"/>
<stop offset="0.711" stop-color="#5EBEF1"/>
<stop offset="1" stop-color="#0577B4"/>
</linearGradient>
</defs>
</svg>
