<svg width="51" height="28" viewBox="0 0 51 28" fill="none" xmlns="http://www.w3.org/2000/svg">
<path d="M22.1481 0.159111C18.3615 0.718767 15.0631 1.90953 11.9076 3.86237C6.44201 7.24413 2.25053 12.9717 0.666825 19.247C0.357228 20.4377 0 22.4382 0 22.9502C0 23.4504 0.190521 23.0693 0.34532 22.2477C0.571564 21.0569 1.36937 18.7469 2.01238 17.4251C5.4894 10.2925 12.9435 5.58897 20.8145 5.57706C26.6849 5.56516 32.2934 8.00621 36.2824 12.3049L37.2112 13.3051L41.4384 11.6499C43.7604 10.7331 45.7132 9.97096 45.7847 9.94715C45.8442 9.92333 45.5108 9.44703 45.0345 8.88737C40.9978 4.12434 34.9369 0.897381 28.5782 0.111481C27.2446 -0.0552254 23.4103 -0.0314102 22.1481 0.159111Z" fill="#E4F1FC"/>
<path d="M47.1543 11.4727C46.928 11.556 41.9745 13.4851 36.1398 15.7594L25.542 19.9032L24.2917 19.9152C23.2438 19.9271 22.9462 19.9747 22.4937 20.2009C21.6006 20.6415 21.0052 21.2369 20.5765 22.1061C20.2312 22.8087 20.1836 23.0111 20.1836 23.8566C20.1836 24.702 20.2312 24.9044 20.5765 25.607C21.2672 27.0121 22.4103 27.7623 23.994 27.8218C24.7561 27.8575 25.0895 27.8099 25.6373 27.6075C26.4589 27.2979 27.4591 26.3691 27.7925 25.607C27.9712 25.214 28.2331 24.9521 28.9238 24.4758C39.9621 16.843 47.6306 11.4965 47.6901 11.4131C47.7854 11.2583 47.6663 11.2702 47.1543 11.4727Z" fill="#E4F1FC"/>
<path d="M44.2254 16.1857C42.1415 17.6385 40.4149 18.8292 40.403 18.8411C40.3911 18.853 40.534 19.3174 40.7245 19.8652C41.177 21.1988 41.5343 22.8421 41.7129 24.4496L41.8558 25.7594L46.4283 25.7952L51.0008 25.819L50.9293 24.009C50.8579 21.9014 50.5602 20.0438 49.9648 18.0076C49.5242 16.4834 48.3692 13.6613 48.1549 13.5899C48.0834 13.5661 46.3211 14.733 44.2254 16.1857Z" fill="#E4F1FC"/>
</svg>
