<svg width="165" height="45" viewBox="0 0 165 45" fill="none" xmlns="http://www.w3.org/2000/svg">
<path d="M117.54 9.76874V2.8519H118.513V4.16817L118.357 3.9746C118.548 3.57026 118.829 3.25625 119.201 3.03257C119.581 2.80889 119.996 2.69705 120.446 2.69705C120.982 2.69705 121.466 2.8476 121.899 3.14871C122.331 3.44981 122.638 3.84125 122.82 4.32302L122.547 4.33593C122.72 3.80254 123.018 3.3982 123.442 3.1229C123.875 2.839 124.35 2.69705 124.869 2.69705C125.336 2.69705 125.764 2.80889 126.153 3.03257C126.551 3.25625 126.867 3.56595 127.1 3.96169C127.342 4.34883 127.463 4.78758 127.463 5.27796V9.76874H126.49V5.65219C126.49 5.23064 126.413 4.87361 126.257 4.58111C126.11 4.28861 125.907 4.06493 125.647 3.91008C125.388 3.74662 125.09 3.66489 124.752 3.66489C124.424 3.66489 124.125 3.74662 123.857 3.91008C123.589 4.06493 123.377 4.29291 123.222 4.59402C123.066 4.88652 122.988 5.23924 122.988 5.65219V9.76874H122.015V5.65219C122.015 5.23064 121.938 4.87361 121.782 4.58111C121.635 4.28861 121.432 4.06493 121.172 3.91008C120.913 3.74662 120.614 3.66489 120.277 3.66489C119.94 3.66489 119.637 3.74662 119.369 3.91008C119.11 4.06493 118.902 4.29291 118.747 4.59402C118.591 4.88652 118.513 5.23924 118.513 5.65219V9.76874H117.54Z" fill="white"/>
<path d="M132.486 9.92359C131.837 9.92359 131.249 9.76874 130.722 9.45903C130.203 9.14072 129.792 8.70626 129.49 8.15567C129.187 7.60508 129.036 6.98136 129.036 6.28451C129.036 5.58767 129.183 4.97255 129.477 4.43916C129.771 3.89717 130.168 3.47132 130.67 3.16161C131.18 2.8519 131.751 2.69705 132.382 2.69705C132.884 2.69705 133.329 2.79168 133.718 2.98095C134.116 3.16161 134.453 3.4111 134.73 3.72941C135.007 4.03912 135.219 4.39185 135.366 4.78758C135.513 5.17472 135.586 5.57476 135.586 5.98771C135.586 6.07374 135.582 6.17267 135.573 6.28451C135.564 6.38775 135.551 6.49529 135.534 6.60713H129.658V5.70381H134.976L134.509 6.09094C134.587 5.61778 134.531 5.19623 134.341 4.8263C134.159 4.44776 133.895 4.15096 133.55 3.93588C133.204 3.71221 132.815 3.60037 132.382 3.60037C131.95 3.60037 131.548 3.71221 131.176 3.93588C130.813 4.15956 130.527 4.47357 130.32 4.87792C130.112 5.27366 130.03 5.74682 130.073 6.29742C130.03 6.84801 130.116 7.32978 130.333 7.74272C130.557 8.14707 130.86 8.46108 131.241 8.68476C131.63 8.90843 132.045 9.02027 132.486 9.02027C132.996 9.02027 133.424 8.89983 133.77 8.65895C134.116 8.41806 134.397 8.11696 134.613 7.75563L135.443 8.19438C135.305 8.50409 135.093 8.79229 134.808 9.05899C134.522 9.31708 134.181 9.52785 133.783 9.69131C133.394 9.84616 132.962 9.92359 132.486 9.92359Z" fill="white"/>
<path d="M140.44 9.92359C139.792 9.92359 139.208 9.76874 138.689 9.45903C138.17 9.14072 137.76 8.71056 137.457 8.16857C137.163 7.61798 137.016 6.99856 137.016 6.31032C137.016 5.61347 137.163 4.99406 137.457 4.45207C137.76 3.91008 138.166 3.48423 138.676 3.17452C139.195 2.8562 139.783 2.69705 140.44 2.69705C141.037 2.69705 141.569 2.82609 142.036 3.08419C142.503 3.34228 142.87 3.6907 143.138 4.12945L142.983 4.40045V0H143.956V9.76874H142.983V8.22019L143.138 8.36214C142.896 8.86112 142.533 9.24825 142.049 9.52355C141.573 9.79024 141.037 9.92359 140.44 9.92359ZM140.492 8.95575C140.959 8.95575 141.379 8.83961 141.751 8.60733C142.131 8.37505 142.429 8.06104 142.646 7.6653C142.87 7.26096 142.983 6.8093 142.983 6.31032C142.983 5.81134 142.87 5.36399 142.646 4.96825C142.429 4.56391 142.131 4.24559 141.751 4.01331C141.379 3.78103 140.959 3.66489 140.492 3.66489C140.034 3.66489 139.619 3.78103 139.247 4.01331C138.875 4.24559 138.581 4.5596 138.365 4.95534C138.157 5.35108 138.054 5.80274 138.054 6.31032C138.054 6.8093 138.157 7.26096 138.365 7.6653C138.581 8.06104 138.871 8.37505 139.234 8.60733C139.606 8.83961 140.025 8.95575 140.492 8.95575Z" fill="white"/>
<path d="M145.953 9.76874V2.8519H146.926V9.76874H145.953ZM145.953 1.57435V0.154854H146.926V1.57435H145.953Z" fill="white"/>
<path d="M152.095 9.92359C151.412 9.92359 150.811 9.76443 150.292 9.44612C149.773 9.12781 149.367 8.69766 149.073 8.15567C148.779 7.60508 148.632 6.98566 148.632 6.29742C148.632 5.60917 148.779 4.99406 149.073 4.45207C149.367 3.91008 149.773 3.48423 150.292 3.17452C150.811 2.8562 151.412 2.69705 152.095 2.69705C152.528 2.69705 152.934 2.77448 153.315 2.92933C153.695 3.08419 154.032 3.29496 154.326 3.56165C154.62 3.81974 154.841 4.12085 154.988 4.46497L154.106 4.91663C153.933 4.5467 153.669 4.24559 153.315 4.01331C152.96 3.78103 152.554 3.66489 152.095 3.66489C151.637 3.66489 151.222 3.78103 150.85 4.01331C150.487 4.23699 150.197 4.551 149.981 4.95534C149.773 5.35108 149.67 5.80274 149.67 6.31032C149.67 6.8093 149.773 7.26096 149.981 7.6653C150.197 8.06104 150.487 8.37505 150.85 8.60733C151.222 8.83961 151.637 8.95575 152.095 8.95575C152.554 8.95575 152.956 8.83961 153.302 8.60733C153.656 8.37505 153.924 8.06534 154.106 7.6782L154.988 8.15567C154.841 8.49119 154.62 8.79229 154.326 9.05899C154.032 9.32568 153.695 9.53646 153.315 9.69131C152.934 9.84616 152.528 9.92359 152.095 9.92359Z" fill="white"/>
<path d="M158.579 9.92359C158.138 9.92359 157.745 9.84186 157.399 9.6784C157.053 9.50634 156.78 9.27406 156.581 8.98156C156.383 8.68906 156.283 8.35354 156.283 7.97501C156.283 7.61368 156.361 7.28676 156.517 6.99426C156.672 6.69315 156.914 6.43937 157.243 6.23289C157.572 6.02642 157.991 5.88017 158.501 5.79414L161.225 5.34248V6.21999L158.735 6.63293C158.233 6.71896 157.87 6.87812 157.645 7.1104C157.429 7.34268 157.321 7.61798 157.321 7.93629C157.321 8.246 157.442 8.50839 157.684 8.72347C157.935 8.93855 158.255 9.04608 158.644 9.04608C159.12 9.04608 159.535 8.94715 159.889 8.74928C160.244 8.54281 160.52 8.26751 160.719 7.92339C160.918 7.57927 161.018 7.19643 161.018 6.77488V5.01987C161.018 4.60692 160.866 4.2714 160.564 4.01331C160.261 3.75522 159.868 3.62618 159.383 3.62618C158.96 3.62618 158.588 3.73371 158.268 3.94879C157.948 4.15526 157.71 4.42626 157.554 4.76178L156.672 4.28431C156.802 3.9918 157.005 3.72511 157.282 3.48423C157.567 3.24334 157.892 3.05407 158.255 2.91643C158.618 2.77017 158.994 2.69705 159.383 2.69705C159.893 2.69705 160.343 2.79598 160.732 2.99385C161.13 3.19172 161.437 3.46702 161.653 3.81974C161.878 4.16386 161.991 4.56391 161.991 5.01987V9.76874H161.018V8.38795L161.16 8.5299C161.039 8.78799 160.849 9.02458 160.59 9.23965C160.339 9.44612 160.04 9.61388 159.695 9.74293C159.357 9.86337 158.985 9.92359 158.579 9.92359Z" fill="white"/>
<path d="M163.992 9.76874V0H164.964V9.76874H163.992Z" fill="white"/>
<path d="M60.3039 45L71.4641 14.641H79.3112L90.3842 45H83.3655L81.0114 38.3644H69.4152L67.0611 45H60.3039ZM71.159 33.1166H79.224L75.1697 21.5802L71.159 33.1166Z" fill="white"/>
<path d="M87.1858 14.641H111.337V20.2358H102.531V45H95.992V20.2358H87.1858V14.641Z" fill="white"/>
<path d="M114.897 14.641H135.387V20.2358H121.436V27.0448H132.771V32.3793H121.436V39.4053H135.866V45H114.897V14.641Z" fill="white"/>
<path d="M139.802 14.641H146.341V26.828H158.461V14.641H165V45H158.461V32.4661H146.341V45H139.802V14.641Z" fill="white"/>
<path d="M12.8976 15.0394H20.105V44.8528H12.8976V15.0394Z" fill="#5EBEF1"/>
<path d="M5.68093 18.5162H8.94747V21.7659H5.68093V18.5162Z" fill="#5EBEF1"/>
<path d="M3.26662 14.7011H5.11293V16.5379H3.26662V14.7011Z" fill="#5EBEF1"/>
<path d="M7.38518 12.2994H11.0778V15.9729H7.38518V12.2994Z" fill="#5EBEF1"/>
<path d="M39.0565 16.5379H41.6129V19.0812H39.0565V16.5379Z" fill="#5EBEF1"/>
<path d="M43.0331 13.4293H45.5895V15.9725H43.0331V13.4293Z" fill="#5EBEF1"/>
<path d="M46.7257 9.75606H49.7082V12.7232H46.7257V9.75606Z" fill="#5EBEF1"/>
<path d="M48.572 15.9726H51.2705V18.6571H48.572V15.9726Z" fill="#5EBEF1"/>
<path d="M56.0994 15.9726H58.7978V18.6571H56.0994V15.9726Z" fill="#5EBEF1"/>
<path d="M55.2471 22.4721H57.9456V25.1567H55.2471V22.4721Z" fill="#5EBEF1"/>
<path d="M8.80549 25.1566H11.0779V27.4172H8.80549V25.1566Z" fill="#5EBEF1"/>
<path d="M0 20.6357H2.27237V22.8964H0V20.6357Z" fill="#5EBEF1"/>
<path d="M31.1742 44.9374H23.86V14.913H30.5351L38.5594 23.9557H41.4709V21.695H44.4534V19.2224H47.7199V22.1189L51.8386 21.9776V18.9398H54.8211V22.1189H52.3357V25.2273H50.2763V27.7705H53.1878V25.2273H55.2472V44.9374H47.7199V26.8521L40.2637 36.7425L31.1742 26.8521V44.9374Z" fill="#5EBEF1"/>
</svg>
