<svg width="107" height="20" viewBox="0 0 107 20" fill="none" xmlns="http://www.w3.org/2000/svg">
<path d="M0 9.50002C0 14.7559 4.25814 19 9.5 19C14.7559 19 19 14.7419 19 9.50002C19 4.24411 14.7419 3.46854e-05 9.5 3.46854e-05C4.25814 -0.0140185 0 4.24411 0 9.50002Z" fill="#00A7E4"/>
<path d="M107 15.5001C107 16.3257 106.326 17 105.5 17C104.674 17 104 16.3257 104 15.5001C104 14.6745 104.674 14.0002 105.5 14.0002C106.326 13.9864 107 14.6607 107 15.5001Z" fill="#00A7E4"/>
<path d="M15 5.5C15 6.32569 14.3257 7 13.5 7C12.6743 7 12 6.32569 12 5.5C12 4.67431 12.6743 4 13.5 4C14.3257 4 15 4.67431 15 5.5Z" fill="white"/>
<path d="M11 5.5C11 6.32569 10.3257 7 9.5 7C8.67431 7 8 6.32569 8 5.5C8 4.67431 8.67431 4 9.5 4C10.3257 4 11 4.67431 11 5.5Z" fill="white"/>
<path d="M7 5.5C7 6.32569 6.32569 7 5.5 7C4.67431 7 4 6.32569 4 5.5C4 4.67431 4.67431 4 5.5 4C6.32569 4 7 4.67431 7 5.5Z" fill="white"/>
<path d="M9.5001 8C10.3257 8 11 8.67431 11 9.5C11 10.3257 10.3257 11 9.5001 11C8.67447 11 8.00021 10.3257 8.00021 9.5C7.98645 8.67431 8.66071 8 9.5001 8Z" fill="white"/>
<path d="M9.5001 12C10.3257 12 11 12.6743 11 13.5C11 14.3257 10.3257 15 9.5001 15C8.67447 15 8.00021 14.3257 8.00021 13.5C7.98645 12.6743 8.66071 12 9.5001 12Z" fill="white"/>
<path d="M29.8936 16C28.8852 16 28.0588 15.1721 28.0588 14.1759V6.07951H26.4902C26.2101 6.07951 26 5.86904 26 5.61646C26 5.34986 26.2241 5.12535 26.4902 5.12535H28.0588V1.49111C28.0588 1.21048 28.2689 1 28.521 1C28.7871 1 29.0112 1.22451 29.0112 1.49111V5.11132H30.5098C30.7759 5.11132 31 5.33583 31 5.60243C31 5.86904 30.7899 6.06548 30.5098 6.06548H29.0252V14.1618C29.0252 14.6389 29.4174 15.0318 29.8936 15.0318C30.1737 15.0318 30.3838 15.2423 30.3838 15.4949C30.3838 15.7755 30.1597 16 29.8936 16Z" fill="#365868"/>
<path d="M34.5147 16C34.2206 16 34 15.7868 34 15.5026V5.46899C34 5.18475 34.2059 5 34.5147 5C34.7941 5 35 5.19897 35 5.46899V15.5026C35 15.7584 34.7647 16 34.5147 16Z" fill="#365868"/>
<path d="M34.5147 3C34.2206 3 34 2.85577 34 2.68269V2.33654C34 2.13462 34.2059 2 34.5147 2C34.7941 2 35 2.14423 35 2.33654V2.68269C35 2.85577 34.7647 3 34.5147 3Z" fill="#365868"/>
<path d="M42.9045 16C41.8933 16 41.0646 15.1721 41.0646 14.1759V6.07951H39.4916C39.2107 6.07951 39 5.86904 39 5.61646C39 5.34986 39.2247 5.12535 39.4916 5.12535H41.0646V1.49111C41.0646 1.21048 41.2753 1 41.5281 1C41.7949 1 42.0197 1.22451 42.0197 1.49111V5.11132H43.5084C43.7753 5.11132 44 5.33583 44 5.60243C44 5.86904 43.7893 6.06548 43.5084 6.06548H42.0197V14.1618C42.0197 14.6389 42.4129 15.0318 42.8904 15.0318C43.1713 15.0318 43.382 15.2423 43.382 15.4949C43.3961 15.7755 43.1713 16 42.9045 16Z" fill="#365868"/>
<path d="M55.5492 16C55.2623 16 55.071 15.8013 55.071 15.5032V13.6865C54.1421 15.1342 52.6393 16 51 16C48.2404 16 46 13.5303 46 10.5071C46 7.48387 48.2404 5.01419 51 5.01419C52.612 5.01419 54.1284 5.90839 55.071 7.32774V5.49677C55.071 5.25548 55.2486 5 55.5492 5C55.8224 5 56 5.25548 56 5.49677V15.5032C56 15.7871 55.8087 16 55.5492 16ZM51 5.99355C48.7596 5.99355 46.929 8.00903 46.929 10.4929C46.929 12.991 48.7596 15.0206 51 15.0206C53.2404 15.0206 55.071 12.991 55.071 10.4929C55.071 8.02323 53.2404 5.99355 51 5.99355Z" fill="#365868"/>
<path d="M71.65 5C70.1818 5 68.8096 5.78165 67.9862 7.04651C67.1766 5.78165 65.8182 5 64.3362 5C63.2384 5 62.1818 5.42636 61.3997 6.1938V5.72481C61.3997 5.31266 61.0978 5.01421 60.6861 5.01421C60.3156 5.01421 60 5.34109 60 5.72481V15.2894C60 15.6731 60.3156 16 60.6861 16C61.084 16 61.3997 15.6873 61.3997 15.2894V9.53359C61.3997 7.84238 62.717 6.46382 64.3362 6.46382C65.9554 6.46382 67.2727 7.84238 67.2727 9.53359V15.2752C67.2727 15.6731 67.5883 16 67.9725 16C68.3705 16 68.6998 15.6731 68.6998 15.2752V9.53359C68.6998 7.84238 70.0171 6.46382 71.6363 6.46382C73.2555 6.46382 74.5591 7.81395 74.6003 9.53359V15.2894C74.6003 15.6731 74.9159 16 75.2864 16C75.6843 16 75.9999 15.6873 75.9999 15.2894V9.50517C76.0137 7.01809 74.0514 5 71.65 5Z" fill="#00A7E4"/>
<path d="M84.522 16C81.4673 16 79 13.5445 79 10.5213C79 7.48387 81.482 5 84.522 5C87.4152 5 89.765 7.2 90 10.1097V10.209C90 10.5923 89.6622 10.9045 89.2363 10.9045H80.5127C80.7183 12.9484 82.4366 14.5239 84.5073 14.5239C85.8732 14.5239 87.1509 13.8284 87.8411 12.7071C87.9733 12.4942 88.2083 12.3665 88.4726 12.3665C88.6048 12.3665 88.737 12.409 88.8545 12.4658C89.2216 12.7213 89.3244 13.1471 89.1041 13.4877C88.1055 15.0632 86.3872 16 84.522 16ZM88.3405 9.47097C87.8999 7.72516 86.3431 6.47613 84.5073 6.47613C82.6569 6.47613 81.0854 7.69677 80.6155 9.47097H88.3405Z" fill="#00A7E4"/>
<path d="M101.237 16C100.812 16 100.46 15.6776 100.46 15.271V14.3458C99.4333 15.3972 98.0253 15.986 96.5 15.986C93.464 15.986 91 13.5607 91 10.5748C91 7.57477 93.464 5.1215 96.5 5.1215C98.0107 5.1215 99.4333 5.7243 100.46 6.78972V1.72897C100.46 1.33645 100.812 1 101.237 1C101.648 1 102 1.33645 102 1.72897V15.271C102 15.6636 101.648 16 101.237 16ZM96.5 6.60748C94.3147 6.60748 92.54 8.38785 92.54 10.5888C92.54 12.7617 94.3147 14.528 96.5 14.528C98.6413 14.528 100.372 12.8738 100.46 10.757V10.4206C100.372 8.28972 98.6267 6.60748 96.5 6.60748Z" fill="#00A7E4"/>
</svg>
