<svg width="95" height="80" viewBox="0 0 95 80" fill="none" xmlns="http://www.w3.org/2000/svg">
<path d="M1.68265 1.17411C1.3273 1.53396 1.30859 1.79911 1.30859 8.65517V15.7764L1.77616 16.2309C2.31854 16.7991 2.80481 16.837 3.38459 16.3446L3.83345 15.9847L3.88956 9.62108L3.94567 3.25744H10.0988C16.0276 3.25744 16.2894 3.2385 16.6448 2.87865C17.131 2.38623 17.131 1.66653 16.6448 1.17411C16.2894 0.814259 16.0276 0.79532 9.16371 0.79532C2.29983 0.79532 2.038 0.814259 1.68265 1.17411Z" fill="url(#paint0_linear_1407_9230)"/>
<path d="M79.1114 1.17411C78.6625 1.62865 78.6251 2.25365 79.0366 2.84077C79.3171 3.25744 79.3171 3.25744 85.5638 3.25744H91.8105L91.8666 9.62108L91.9227 15.9847L92.3716 16.3446C92.9514 16.837 93.4376 16.7991 93.98 16.2309L94.4476 15.7764V8.65517C94.4476 1.79911 94.4289 1.53396 94.0735 1.17411C93.7182 0.814259 93.4563 0.79532 86.5925 0.79532C79.7286 0.79532 79.4667 0.814259 79.1114 1.17411Z" fill="url(#paint1_linear_1407_9230)"/>
<path d="M1.79486 63.7505L1.30859 64.224V71.3452C1.30859 78.2013 1.3273 78.4664 1.68265 78.8263C2.038 79.1861 2.29983 79.2051 9.16371 79.2051C16.0276 79.2051 16.2894 79.1861 16.6448 78.8263C17.131 78.3339 17.131 77.6142 16.6448 77.1217C16.2894 76.7619 16.0276 76.743 10.0988 76.743H3.94567L3.88956 70.3983C3.83345 63.5233 3.85215 63.6558 2.7674 63.3907C2.37464 63.296 2.15021 63.3717 1.79486 63.7505Z" fill="url(#paint2_linear_1407_9230)"/>
<path d="M92.6156 63.4854C92.3912 63.5801 92.1107 63.8831 92.0172 64.1483C91.9049 64.4324 91.8301 67.1786 91.8301 70.7013V76.743H85.6583C79.7295 76.743 79.4677 76.7619 79.1123 77.1217C78.9066 77.3301 78.7383 77.7089 78.7383 77.974C78.7383 78.2392 78.9066 78.618 79.1123 78.8263C79.4677 79.1861 79.7295 79.2051 86.5934 79.2051C93.4573 79.2051 93.7191 79.1861 94.0745 78.8263C94.4298 78.4664 94.4485 78.2013 94.4485 71.3452V64.224L93.9809 63.7695C93.4947 63.2581 93.2889 63.2202 92.6156 63.4854Z" fill="url(#paint3_linear_1407_9230)"/>
<path d="M44.1481 26.1585C40.3615 26.7181 37.0631 27.9089 33.9076 29.8618C28.442 33.2435 24.2505 38.9711 22.6668 45.2464C22.3572 46.4371 22 48.4376 22 48.9496C22 49.4497 22.1905 49.0687 22.3453 48.2471C22.5716 47.0563 23.3694 44.7462 24.0124 43.4245C27.4894 36.2918 34.9435 31.5884 42.8145 31.5764C48.6849 31.5645 54.2934 34.0056 58.2824 38.3042L59.2112 39.3045L63.4384 37.6493C65.7604 36.7324 67.7132 35.9703 67.7847 35.9465C67.8442 35.9227 67.5108 35.4464 67.0345 34.8868C62.9978 30.1237 56.9369 26.8968 50.5782 26.1109C49.2446 25.9442 45.4103 25.968 44.1481 26.1585Z" fill="#E4F1FC"/>
<path d="M69.1543 37.4721C68.928 37.5554 63.9745 39.4844 58.1398 41.7588L47.542 45.9026L46.2917 45.9145C45.2438 45.9264 44.9462 45.9741 44.4937 46.2003C43.6006 46.6409 43.0052 47.2363 42.5765 48.1055C42.2312 48.8081 42.1836 49.0105 42.1836 49.8559C42.1836 50.7014 42.2312 50.9038 42.5765 51.6064C43.2672 53.0115 44.4103 53.7616 45.994 53.8212C46.7561 53.8569 47.0895 53.8093 47.6373 53.6068C48.4589 53.2972 49.4591 52.3684 49.7925 51.6064C49.9712 51.2134 50.2331 50.9514 50.9238 50.4751C61.9621 42.8424 69.6306 37.4959 69.6901 37.4125C69.7854 37.2577 69.6663 37.2696 69.1543 37.4721Z" fill="#E4F1FC"/>
<path d="M66.2254 42.1851C64.1415 43.6378 62.4149 44.8286 62.403 44.8405C62.3911 44.8524 62.534 45.3168 62.7245 45.8646C63.177 47.1982 63.5343 48.8415 63.7129 50.449L63.8558 51.7588L68.4283 51.7945L73.0008 51.8184L72.9293 50.0084C72.8579 47.9008 72.5602 46.0432 71.9648 44.007C71.5242 42.4828 70.3692 39.6607 70.1549 39.5893C70.0834 39.5655 68.3211 40.7324 66.2254 42.1851Z" fill="#E4F1FC"/>
<defs>
<linearGradient id="paint0_linear_1407_9230" x1="16.6136" y1="16.7358" x2="0.64157" y2="4.03909" gradientUnits="userSpaceOnUse">
<stop stop-color="#E4F1FC"/>
<stop offset="0.2294" stop-color="#9ADCFF"/>
<stop offset="0.711" stop-color="#5EBEF1"/>
<stop offset="1" stop-color="#0577B4"/>
</linearGradient>
<linearGradient id="paint1_linear_1407_9230" x1="94.0518" y1="16.7358" x2="78.0805" y2="4.04237" gradientUnits="userSpaceOnUse">
<stop stop-color="#E4F1FC"/>
<stop offset="0.2294" stop-color="#9ADCFF"/>
<stop offset="0.711" stop-color="#5EBEF1"/>
<stop offset="1" stop-color="#0577B4"/>
</linearGradient>
<linearGradient id="paint2_linear_1407_9230" x1="16.6136" y1="79.2532" x2="0.673378" y2="66.5492" gradientUnits="userSpaceOnUse">
<stop stop-color="#E4F1FC"/>
<stop offset="0.2294" stop-color="#9ADCFF"/>
<stop offset="0.711" stop-color="#5EBEF1"/>
<stop offset="1" stop-color="#0577B4"/>
</linearGradient>
<linearGradient id="paint3_linear_1407_9230" x1="94.0524" y1="79.2533" x2="78.0865" y2="66.5455" gradientUnits="userSpaceOnUse">
<stop stop-color="#E4F1FC"/>
<stop offset="0.2294" stop-color="#9ADCFF"/>
<stop offset="0.711" stop-color="#5EBEF1"/>
<stop offset="1" stop-color="#0577B4"/>
</linearGradient>
</defs>
</svg>
