<svg width="96" height="80" viewBox="0 0 96 80" fill="none" xmlns="http://www.w3.org/2000/svg">
<path d="M1.68265 1.17411C1.3273 1.53396 1.30859 1.79911 1.30859 8.65517V15.7764L1.77616 16.2309C2.31854 16.7991 2.80481 16.837 3.38459 16.3446L3.83345 15.9847L3.88956 9.62108L3.94567 3.25744H10.0988C16.0276 3.25744 16.2894 3.2385 16.6448 2.87865C17.131 2.38623 17.131 1.66653 16.6448 1.17411C16.2894 0.814259 16.0276 0.79532 9.16371 0.79532C2.29983 0.79532 2.038 0.814259 1.68265 1.17411Z" fill="url(#paint0_linear_1407_9240)"/>
<path d="M79.1114 1.17411C78.6625 1.62865 78.6251 2.25365 79.0366 2.84077C79.3171 3.25744 79.3171 3.25744 85.5638 3.25744H91.8105L91.8666 9.62108L91.9227 15.9847L92.3716 16.3446C92.9514 16.837 93.4376 16.7991 93.98 16.2309L94.4476 15.7764V8.65517C94.4476 1.79911 94.4289 1.53396 94.0735 1.17411C93.7182 0.814259 93.4563 0.79532 86.5925 0.79532C79.7286 0.79532 79.4667 0.814259 79.1114 1.17411Z" fill="url(#paint1_linear_1407_9240)"/>
<path d="M36.8794 19.1654C30.8758 22.6882 25.957 25.6427 25.957 25.7374C25.9383 26.0026 47.5773 38.4836 47.914 38.4079C48.3628 38.3132 69.7587 25.7753 69.7587 25.6238C69.7587 25.548 68.2999 24.6579 66.5418 23.6162C64.765 22.5935 59.8275 19.7147 55.582 17.2336C51.3365 14.7526 47.8391 12.726 47.8204 12.745C47.8017 12.745 42.8829 15.6427 36.8794 19.1654Z" fill="#E4F1FC"/>
<path d="M60.0721 34.3561L49.0001 40.8334L49.0188 46.5152C49.0375 49.6591 49.1123 55.4167 49.1684 59.3372L49.2806 66.4395L60.2778 60.019L71.2562 53.5796V40.7387C71.2562 33.6554 71.2375 27.8788 71.2001 27.8788C71.1814 27.8788 66.1691 30.7955 60.0721 34.3561Z" fill="#E4F1FC"/>
<path d="M24.5 40.8148V53.58L35.4036 59.9625C41.4072 63.4663 46.3634 66.3262 46.4382 66.3262C46.513 66.3262 46.5691 60.5875 46.5691 53.58V40.8148L35.6842 34.508C29.6806 31.0421 24.7244 28.1633 24.6496 28.1254C24.5561 28.0875 24.5 33.7883 24.5 40.8148Z" fill="#E4F1FC"/>
<path d="M1.79486 63.7505L1.30859 64.224V71.3452C1.30859 78.2013 1.3273 78.4664 1.68265 78.8263C2.038 79.1861 2.29983 79.2051 9.16371 79.2051C16.0276 79.2051 16.2894 79.1861 16.6448 78.8263C17.131 78.3339 17.131 77.6142 16.6448 77.1217C16.2894 76.7619 16.0276 76.743 10.0988 76.743H3.94567L3.88956 70.3983C3.83345 63.5233 3.85215 63.6558 2.7674 63.3907C2.37464 63.296 2.15021 63.3717 1.79486 63.7505Z" fill="url(#paint2_linear_1407_9240)"/>
<path d="M92.6156 63.4854C92.3912 63.5801 92.1107 63.8831 92.0172 64.1483C91.9049 64.4324 91.8301 67.1786 91.8301 70.7013V76.743H85.6583C79.7295 76.743 79.4677 76.7619 79.1123 77.1217C78.9066 77.3301 78.7383 77.7089 78.7383 77.974C78.7383 78.2392 78.9066 78.618 79.1123 78.8263C79.4677 79.1861 79.7295 79.2051 86.5934 79.2051C93.4573 79.2051 93.7191 79.1861 94.0745 78.8263C94.4298 78.4664 94.4485 78.2013 94.4485 71.3452V64.224L93.9809 63.7695C93.4947 63.2581 93.2889 63.2202 92.6156 63.4854Z" fill="url(#paint3_linear_1407_9240)"/>
<defs>
<linearGradient id="paint0_linear_1407_9240" x1="16.6136" y1="16.7358" x2="0.64157" y2="4.03909" gradientUnits="userSpaceOnUse">
<stop stop-color="#E4F1FC"/>
<stop offset="0.2294" stop-color="#9ADCFF"/>
<stop offset="0.711" stop-color="#5EBEF1"/>
<stop offset="1" stop-color="#0577B4"/>
</linearGradient>
<linearGradient id="paint1_linear_1407_9240" x1="94.0518" y1="16.7358" x2="78.0805" y2="4.04237" gradientUnits="userSpaceOnUse">
<stop stop-color="#E4F1FC"/>
<stop offset="0.2294" stop-color="#9ADCFF"/>
<stop offset="0.711" stop-color="#5EBEF1"/>
<stop offset="1" stop-color="#0577B4"/>
</linearGradient>
<linearGradient id="paint2_linear_1407_9240" x1="16.6136" y1="79.2532" x2="0.673378" y2="66.5492" gradientUnits="userSpaceOnUse">
<stop stop-color="#E4F1FC"/>
<stop offset="0.2294" stop-color="#9ADCFF"/>
<stop offset="0.711" stop-color="#5EBEF1"/>
<stop offset="1" stop-color="#0577B4"/>
</linearGradient>
<linearGradient id="paint3_linear_1407_9240" x1="94.0524" y1="79.2533" x2="78.0865" y2="66.5455" gradientUnits="userSpaceOnUse">
<stop stop-color="#E4F1FC"/>
<stop offset="0.2294" stop-color="#9ADCFF"/>
<stop offset="0.711" stop-color="#5EBEF1"/>
<stop offset="1" stop-color="#0577B4"/>
</linearGradient>
</defs>
</svg>
