<svg width="96" height="80" viewBox="0 0 96 80" fill="none" xmlns="http://www.w3.org/2000/svg">
<path d="M1.68265 1.17411C1.3273 1.53396 1.30859 1.79911 1.30859 8.65517V15.7764L1.77616 16.2309C2.31854 16.7991 2.80481 16.837 3.38459 16.3446L3.83345 15.9847L3.88956 9.62108L3.94567 3.25744H10.0988C16.0276 3.25744 16.2894 3.2385 16.6448 2.87865C17.131 2.38623 17.131 1.66653 16.6448 1.17411C16.2894 0.814259 16.0276 0.79532 9.16371 0.79532C2.29983 0.79532 2.038 0.814259 1.68265 1.17411Z" fill="url(#paint0_linear_1407_9249)"/>
<path d="M79.1114 1.17411C78.6625 1.62865 78.6251 2.25365 79.0366 2.84077C79.3171 3.25744 79.3171 3.25744 85.5638 3.25744H91.8105L91.8666 9.62108L91.9227 15.9847L92.3716 16.3446C92.9514 16.837 93.4376 16.7991 93.98 16.2309L94.4476 15.7764V8.65517C94.4476 1.79911 94.4289 1.53396 94.0735 1.17411C93.7182 0.814259 93.4563 0.79532 86.5925 0.79532C79.7286 0.79532 79.4667 0.814259 79.1114 1.17411Z" fill="url(#paint1_linear_1407_9249)"/>
<path d="M1.79486 63.7505L1.30859 64.224V71.3452C1.30859 78.2013 1.3273 78.4664 1.68265 78.8263C2.038 79.1861 2.29983 79.2051 9.16371 79.2051C16.0276 79.2051 16.2894 79.1861 16.6448 78.8263C17.131 78.3339 17.131 77.6142 16.6448 77.1217C16.2894 76.7619 16.0276 76.743 10.0988 76.743H3.94567L3.88956 70.3983C3.83345 63.5233 3.85215 63.6558 2.7674 63.3907C2.37464 63.296 2.15021 63.3717 1.79486 63.7505Z" fill="url(#paint2_linear_1407_9249)"/>
<path d="M92.6156 63.4854C92.3912 63.5801 92.1107 63.8831 92.0172 64.1483C91.9049 64.4324 91.8301 67.1786 91.8301 70.7013V76.743H85.6583C79.7295 76.743 79.4677 76.7619 79.1123 77.1217C78.9066 77.3301 78.7383 77.7089 78.7383 77.974C78.7383 78.2392 78.9066 78.618 79.1123 78.8263C79.4677 79.1861 79.7295 79.2051 86.5934 79.2051C93.4573 79.2051 93.7191 79.1861 94.0745 78.8263C94.4298 78.4664 94.4485 78.2013 94.4485 71.3452V64.224L93.9809 63.7695C93.4947 63.2581 93.2889 63.2202 92.6156 63.4854Z" fill="url(#paint3_linear_1407_9249)"/>
<path d="M65.3292 14.5207C65.236 14.6242 64.7598 15.5144 64.2629 16.5082C63.0415 18.9615 62.8241 19.1789 60.319 20.4314C59.2942 20.949 58.3936 21.4355 58.3211 21.5183C58.2487 21.6115 58.2073 21.8082 58.228 21.9738C58.259 22.2326 58.435 22.3464 60.1741 23.2367C62.7827 24.572 63.0104 24.7998 64.3251 27.3877C64.8633 28.4332 65.3706 29.3337 65.4637 29.3855C65.5569 29.4476 65.7536 29.458 65.9088 29.4166C66.1366 29.3648 66.3229 29.0646 67.12 27.4705C68.4346 24.8412 68.6727 24.6031 71.2606 23.2988C73.9934 21.922 73.9934 21.891 71.3227 20.5349C68.7245 19.2203 68.4346 18.9304 67.0993 16.3115C66.178 14.5 66.1055 14.3964 65.8053 14.3654C65.6086 14.3447 65.4327 14.3964 65.3292 14.5207Z" fill="#E4F1FC"/>
<path d="M40.021 22.0983C39.5966 22.2949 39.5655 22.3467 37.6091 26.2699C35.456 30.5658 35.0212 31.3008 33.986 32.3981C32.6196 33.8576 32.1642 34.1164 25.1251 37.5428C23.9554 38.1121 23.3964 38.433 23.2618 38.6401C23.003 39.0231 23.003 39.8615 23.2515 40.2446C23.3964 40.4516 24.5351 41.0623 27.5163 42.5323C31.864 44.6854 32.4644 45.0373 33.5823 46.0932C34.8245 47.2733 35.2179 47.9047 37.4538 52.3455C39.7415 56.8899 39.7415 56.8899 40.611 56.9623C41.5116 57.0451 41.5323 57.0244 43.6751 52.7285C45.8179 48.443 46.3976 47.4699 47.5466 46.3313C48.6853 45.1926 49.6479 44.6026 53.9128 42.4701C56.0245 41.4246 57.836 40.4619 57.9395 40.3377C58.0638 40.2031 58.1569 39.9133 58.188 39.5717C58.2604 38.6608 58.219 38.6297 53.4573 36.2385C48.4265 33.7127 47.8468 33.309 46.2423 31.1766C46.0767 30.9592 44.9897 28.8785 43.82 26.5701C42.3915 23.7545 41.6151 22.3157 41.4392 22.1914C41.0251 21.9119 40.5179 21.8705 40.021 22.0983Z" fill="#E4F1FC"/>
<path d="M65.3292 49.7167C65.236 49.8203 64.7598 50.7208 64.2629 51.7042C63.0311 54.1783 62.7723 54.4371 60.1741 55.7621C58.435 56.6523 58.259 56.7662 58.228 57.0249C58.2073 57.1906 58.2487 57.3872 58.3211 57.4804C58.3936 57.5632 59.2942 58.0497 60.319 58.5673C62.8241 59.8199 63.0415 60.0372 64.294 62.5423C64.8116 63.5671 65.2981 64.4677 65.3809 64.5402C65.4741 64.6126 65.6708 64.654 65.8364 64.6333C66.0952 64.6023 66.209 64.4263 67.0993 62.6872C68.4346 60.0683 68.7245 59.7785 71.3227 58.4638C73.9831 57.1078 73.9831 57.0663 71.3538 55.7517C68.7141 54.4371 68.4553 54.1679 67.1614 51.6111C66.6231 50.5449 66.1055 49.6443 66.0227 49.6029C65.7329 49.489 65.4948 49.5304 65.3292 49.7167Z" fill="#E4F1FC"/>
<defs>
<linearGradient id="paint0_linear_1407_9249" x1="16.6136" y1="16.7358" x2="0.64157" y2="4.03909" gradientUnits="userSpaceOnUse">
<stop stop-color="#E4F1FC"/>
<stop offset="0.2294" stop-color="#9ADCFF"/>
<stop offset="0.711" stop-color="#5EBEF1"/>
<stop offset="1" stop-color="#0577B4"/>
</linearGradient>
<linearGradient id="paint1_linear_1407_9249" x1="94.0518" y1="16.7358" x2="78.0805" y2="4.04237" gradientUnits="userSpaceOnUse">
<stop stop-color="#E4F1FC"/>
<stop offset="0.2294" stop-color="#9ADCFF"/>
<stop offset="0.711" stop-color="#5EBEF1"/>
<stop offset="1" stop-color="#0577B4"/>
</linearGradient>
<linearGradient id="paint2_linear_1407_9249" x1="16.6136" y1="79.2532" x2="0.673378" y2="66.5492" gradientUnits="userSpaceOnUse">
<stop stop-color="#E4F1FC"/>
<stop offset="0.2294" stop-color="#9ADCFF"/>
<stop offset="0.711" stop-color="#5EBEF1"/>
<stop offset="1" stop-color="#0577B4"/>
</linearGradient>
<linearGradient id="paint3_linear_1407_9249" x1="94.0524" y1="79.2533" x2="78.0865" y2="66.5455" gradientUnits="userSpaceOnUse">
<stop stop-color="#E4F1FC"/>
<stop offset="0.2294" stop-color="#9ADCFF"/>
<stop offset="0.711" stop-color="#5EBEF1"/>
<stop offset="1" stop-color="#0577B4"/>
</linearGradient>
</defs>
</svg>
