<svg width="96" height="80" viewBox="0 0 96 80" fill="none" xmlns="http://www.w3.org/2000/svg">
<path d="M1.68265 1.17411C1.3273 1.53396 1.30859 1.79911 1.30859 8.65517V15.7764L1.77616 16.2309C2.31854 16.7991 2.80481 16.837 3.38459 16.3446L3.83345 15.9847L3.88956 9.62108L3.94567 3.25744H10.0988C16.0276 3.25744 16.2894 3.2385 16.6448 2.87865C17.131 2.38623 17.131 1.66653 16.6448 1.17411C16.2894 0.814259 16.0276 0.79532 9.16371 0.79532C2.29983 0.79532 2.038 0.814259 1.68265 1.17411Z" fill="url(#paint0_linear_1407_9260)"/>
<path d="M79.1114 1.17411C78.6625 1.62865 78.6251 2.25365 79.0366 2.84077C79.3171 3.25744 79.3171 3.25744 85.5638 3.25744H91.8105L91.8666 9.62108L91.9227 15.9847L92.3716 16.3446C92.9514 16.837 93.4376 16.7991 93.98 16.2309L94.4476 15.7764V8.65517C94.4476 1.79911 94.4289 1.53396 94.0735 1.17411C93.7182 0.814259 93.4563 0.79532 86.5925 0.79532C79.7286 0.79532 79.4667 0.814259 79.1114 1.17411Z" fill="url(#paint1_linear_1407_9260)"/>
<path d="M1.79486 63.7505L1.30859 64.224V71.3452C1.30859 78.2013 1.3273 78.4664 1.68265 78.8263C2.038 79.1861 2.29983 79.2051 9.16371 79.2051C16.0276 79.2051 16.2894 79.1861 16.6448 78.8263C17.131 78.3339 17.131 77.6142 16.6448 77.1217C16.2894 76.7619 16.0276 76.743 10.0988 76.743H3.94567L3.88956 70.3983C3.83345 63.5233 3.85215 63.6558 2.7674 63.3907C2.37464 63.296 2.15021 63.3717 1.79486 63.7505Z" fill="url(#paint2_linear_1407_9260)"/>
<path d="M92.6156 63.4854C92.3912 63.5801 92.1107 63.8831 92.0172 64.1483C91.9049 64.4324 91.8301 67.1786 91.8301 70.7013V76.743H85.6583C79.7295 76.743 79.4677 76.7619 79.1123 77.1217C78.9066 77.3301 78.7383 77.7089 78.7383 77.974C78.7383 78.2392 78.9066 78.618 79.1123 78.8263C79.4677 79.1861 79.7295 79.2051 86.5934 79.2051C93.4573 79.2051 93.7191 79.1861 94.0745 78.8263C94.4298 78.4664 94.4485 78.2013 94.4485 71.3452V64.224L93.9809 63.7695C93.4947 63.2581 93.2889 63.2202 92.6156 63.4854Z" fill="url(#paint3_linear_1407_9260)"/>
<path d="M39.7122 13.0732C38.9568 13.1768 37.7013 13.5701 36.9459 13.9324C32.1074 16.2201 29.9433 21.8617 32.0053 26.7891C32.4034 27.7414 33.2711 29.0561 33.9244 29.7082L34.4348 30.2051L34.4858 27.1203C34.5369 23.6939 34.5675 23.4869 35.231 22.1205C35.9149 20.723 37.4767 19.367 38.9874 18.8494C40.8453 18.2283 42.9685 18.5285 44.6119 19.6465C45.5919 20.309 46.3166 21.1268 46.8168 22.1619C47.4701 23.518 47.5212 23.8803 47.5212 26.8822V29.5426L47.858 29.5943C48.1438 29.6461 48.2255 29.5943 48.5215 29.2734C49.0421 28.673 49.8485 27.317 50.165 26.4578C50.8693 24.6049 50.9816 22.0895 50.4406 20.2158C49.3484 16.4893 46.4085 13.8186 42.6316 13.1561C41.8354 13.0111 40.4267 12.9697 39.7122 13.0732Z" fill="#E4F1FC"/>
<path d="M40.3435 21.9031C39.3227 22.1619 38.4958 22.8451 38.0671 23.7871L37.7711 24.4393L37.7405 34.708L37.7201 44.9871H37.5057C37.3934 44.9871 37.1586 44.8525 36.9953 44.6869L36.6993 44.3867V41.9438V39.5008H35.8112C34.5965 39.5008 33.6676 39.7182 32.6264 40.2461C30.9012 41.1053 29.5844 42.8443 29.1863 44.7801C29.0638 45.3805 29.0332 45.8877 29.0843 47.0057C29.3292 52.8647 31.6362 58.3303 35.5152 62.2225C37.2505 63.9615 39.0777 65.1727 40.7824 65.7109L41.548 65.949H49.6632C58.6562 65.949 58.2479 65.9801 60.1568 65.2451C63.1681 64.1065 65.5567 61.5496 66.5979 58.382C67.1185 56.8086 67.1287 56.4566 67.0981 47.7303L67.0675 39.6561L66.7918 39.1281C65.5159 36.6748 62.0554 36.7473 60.9326 39.242C60.759 39.625 60.657 40.0805 60.6161 40.6188C60.5855 41.0535 60.514 41.4779 60.4528 41.54C60.3303 41.716 59.8199 41.716 59.6872 41.54C59.626 41.4676 59.5647 40.6188 59.5443 39.5525C59.5137 37.8031 59.4933 37.6582 59.2483 37.1199C58.7481 36.033 58.0948 35.474 56.9924 35.1945C55.9001 34.9047 54.7466 35.2566 53.9096 36.1365C53.1644 36.9025 53.0317 37.4201 53.0317 39.4801C53.0317 41.3537 52.9501 41.6746 52.4907 41.6746C51.9599 41.6643 51.9599 41.6953 51.9089 38.3932L51.8578 35.3084L51.5108 34.6563C51.1229 33.942 50.6942 33.5176 49.9694 33.1656C49.2957 32.8344 47.9687 32.8447 47.2643 33.1863C46.611 33.5072 45.9986 34.1283 45.6821 34.7908C45.4371 35.2981 45.4269 35.3809 45.3759 38.3932C45.3249 41.6953 45.3249 41.6643 44.8043 41.6746C44.2939 41.6746 44.3041 41.9231 44.253 32.7826L44.202 24.2322L43.957 23.725C43.3037 22.3793 41.6807 21.5719 40.3435 21.9031Z" fill="#E4F1FC"/>
<defs>
<linearGradient id="paint0_linear_1407_9260" x1="16.6136" y1="16.7358" x2="0.64157" y2="4.03909" gradientUnits="userSpaceOnUse">
<stop stop-color="#E4F1FC"/>
<stop offset="0.2294" stop-color="#9ADCFF"/>
<stop offset="0.711" stop-color="#5EBEF1"/>
<stop offset="1" stop-color="#0577B4"/>
</linearGradient>
<linearGradient id="paint1_linear_1407_9260" x1="94.0518" y1="16.7358" x2="78.0805" y2="4.04237" gradientUnits="userSpaceOnUse">
<stop stop-color="#E4F1FC"/>
<stop offset="0.2294" stop-color="#9ADCFF"/>
<stop offset="0.711" stop-color="#5EBEF1"/>
<stop offset="1" stop-color="#0577B4"/>
</linearGradient>
<linearGradient id="paint2_linear_1407_9260" x1="16.6136" y1="79.2532" x2="0.673378" y2="66.5492" gradientUnits="userSpaceOnUse">
<stop stop-color="#E4F1FC"/>
<stop offset="0.2294" stop-color="#9ADCFF"/>
<stop offset="0.711" stop-color="#5EBEF1"/>
<stop offset="1" stop-color="#0577B4"/>
</linearGradient>
<linearGradient id="paint3_linear_1407_9260" x1="94.0524" y1="79.2533" x2="78.0865" y2="66.5455" gradientUnits="userSpaceOnUse">
<stop stop-color="#E4F1FC"/>
<stop offset="0.2294" stop-color="#9ADCFF"/>
<stop offset="0.711" stop-color="#5EBEF1"/>
<stop offset="1" stop-color="#0577B4"/>
</linearGradient>
</defs>
</svg>
